<?xml version="1.0" encoding="UTF-8" standalone="no"?>
<svg xmlns:ffdec="https://www.free-decompiler.com/flash" xmlns:xlink="http://www.w3.org/1999/xlink" ffdec:objectType="morphshape" height="26.05px" width="73.45px" xmlns="http://www.w3.org/2000/svg">
  <g transform="matrix(1.0, 0.0, 0.0, 1.0, 38.7, 14.3)">
    <path d="M-38.7 -5.25 L-38.6 -5.25 Q-32.6 -4.5 -30.3 -2.5 L-27.4 0.3 -26.5 1.2 -23.3 4.35 -23.0 4.55 -20.65 5.95 -19.55 6.6 -19.05 6.8 Q-16.65 7.9 -14.0 8.15 L-13.3 8.2 -12.7 8.2 -12.0 8.2 Q-7.55 8.2 -3.25 6.8 L-2.85 6.6 -2.55 6.4 4.9 1.8 4.8 1.9 Q-1.3 5.8 -2.75 9.4 L-2.55 9.3 -1.4 8.35 -1.2 8.25 Q3.9 4.35 6.35 3.65 L6.65 3.55 8.85 2.9 9.35 2.8 15.1 1.65 15.4 1.65 25.75 1.05 28.45 1.2 32.25 1.85 34.75 -0.05 33.95 -1.9 33.85 -2.1 32.6 -3.55 31.0 -4.75 30.0 -5.15 Q28.9 -5.6 27.85 -6.0 23.75 -7.45 19.3 -7.85 L17.35 -8.15 Q4.6 -10.2 -20.8 -10.5 L-20.2 -10.3 -12.45 -8.0 -13.85 -8.05 -23.5 -8.15 Q-25.9 -7.85 -28.3 -7.6 L-33.8 -6.35 -38.7 -5.25" fill="url(#gradient0)" fill-rule="evenodd" stroke="none">
      <animate attributeName="d" dur="2s" repeatCount="indefinite" values="M-38.7 -5.25 L-38.6 -5.25 Q-32.6 -4.5 -30.3 -2.5 L-27.4 0.3 -26.5 1.2 -23.3 4.35 -23.0 4.55 -20.65 5.95 -19.55 6.6 -19.05 6.8 Q-16.65 7.9 -14.0 8.15 L-13.3 8.2 -12.7 8.2 -12.0 8.2 Q-7.55 8.2 -3.25 6.8 L-2.85 6.6 -2.55 6.4 4.9 1.8 4.8 1.9 Q-1.3 5.8 -2.75 9.4 L-2.55 9.3 -1.4 8.35 -1.2 8.25 Q3.9 4.35 6.35 3.65 L6.65 3.55 8.85 2.9 9.35 2.8 15.1 1.65 15.4 1.65 25.75 1.05 28.45 1.2 32.25 1.85 34.75 -0.05 33.95 -1.9 33.85 -2.1 32.6 -3.55 31.0 -4.75 30.0 -5.15 Q28.9 -5.6 27.85 -6.0 23.75 -7.45 19.3 -7.85 L17.35 -8.15 Q4.6 -10.2 -20.8 -10.5 L-20.2 -10.3 -12.45 -8.0 -13.85 -8.05 -23.5 -8.15 Q-25.9 -7.85 -28.3 -7.6 L-33.8 -6.35 -38.7 -5.25;M-37.65 -9.4 L-37.65 -9.4 Q-34.5 -6.4 -31.4 -3.45 L-28.4 -0.65 -27.55 0.3 -24.1 3.2 -23.8 3.5 -21.45 4.9 -20.3 5.4 -19.9 5.6 Q-17.35 5.9 -14.8 6.2 L-14.1 6.3 -13.5 6.3 -12.85 6.3 Q-8.45 5.9 -4.05 5.55 L-3.55 5.55 -3.25 5.55 5.0 1.8 4.8 1.9 Q-0.35 5.25 -2.05 9.95 L-2.15 10.15 -2.55 11.55 -2.65 11.75 Q1.15 7.25 3.7 5.25 L3.9 5.05 5.85 3.8 6.35 3.65 12.1 2.15 12.4 2.05 22.9 1.15 25.6 0.95 29.5 0.65 32.7 0.35 34.75 -0.05 34.65 -0.25 33.9 -2.0 32.6 -3.55 31.75 -4.25 Q30.95 -4.85 29.85 -5.25 25.8 -6.95 21.35 -7.6 L19.3 -7.85 Q5.15 -8.3 -19.0 -14.1 L-19.7 -14.3 -13.5 -8.9 -12.45 -8.0 -21.95 -10.25 Q-23.65 -10.6 -26.85 -10.25 L-32.5 -9.1 -37.65 -9.4"/>
    </path>
    <path d="M-38.7 -5.25 L-33.8 -6.35 -28.3 -7.6 Q-25.9 -7.85 -23.5 -8.15 L-13.85 -8.05 -12.45 -8.0 -20.2 -10.3 -20.8 -10.5 Q4.6 -10.2 17.35 -8.15 L19.3 -7.85 Q23.75 -7.45 27.85 -6.0 28.9 -5.6 30.0 -5.15 L31.0 -4.75 32.6 -3.55 33.85 -2.1 33.95 -1.9 34.75 -0.05 32.25 1.85 28.45 1.2 25.75 1.05 15.4 1.65 15.1 1.65 9.35 2.8 8.85 2.9 6.65 3.55 6.35 3.65 Q3.9 4.35 -1.2 8.25 L-1.4 8.35 -2.55 9.3 -2.75 9.4 Q-1.3 5.8 4.8 1.9 L4.9 1.8 -2.55 6.4 -2.85 6.6 -3.25 6.8 Q-7.55 8.2 -12.0 8.2 L-12.7 8.2 -13.3 8.2 -14.0 8.15 Q-16.65 7.9 -19.05 6.8 L-19.55 6.6 -20.65 5.95 -23.0 4.55 -23.3 4.35 -26.5 1.2 -27.4 0.3 -30.3 -2.5 Q-32.6 -4.5 -38.6 -5.25 M-38.7 -5.25 L-33.8 -6.35 -28.3 -7.6 Q-25.9 -7.85 -23.5 -8.15 L-13.85 -8.05 -12.45 -8.0 -20.2 -10.3 -20.8 -10.5 Q4.6 -10.2 17.35 -8.15 L19.3 -7.85 Q23.75 -7.45 27.85 -6.0 28.9 -5.6 30.0 -5.15 L31.0 -4.75 32.6 -3.55 33.85 -2.1 33.95 -1.9 34.75 -0.05 32.25 1.85 28.45 1.2 25.75 1.05 15.4 1.65 15.1 1.65 9.35 2.8 8.85 2.9 6.65 3.55 6.35 3.65 Q3.9 4.35 -1.2 8.25 L-1.4 8.35 -2.55 9.3 -2.75 9.4 Q-1.3 5.8 4.8 1.9 L4.9 1.8 -2.55 6.4 -2.85 6.6 -3.25 6.8 Q-7.55 8.2 -12.0 8.2 L-12.7 8.2 -13.3 8.2 -14.0 8.15 Q-16.65 7.9 -19.05 6.8 L-19.55 6.6 -20.65 5.95 -23.0 4.55 -23.3 4.35 -26.5 1.2 -27.4 0.3 -30.3 -2.5 Q-32.6 -4.5 -38.6 -5.25 L-38.7 -5.25 Z" fill="none" stroke="#330066" stroke-linecap="round" stroke-linejoin="round" stroke-opacity="0.101960786" stroke-width="0.05">
      <animate attributeName="stroke" dur="2s" repeatCount="indefinite" values="#330066;#330067"/>
      <animate attributeName="stroke-width" dur="2s" repeatCount="indefinite" values="0.05;0.05"/>
      <animate attributeName="fill-opacity" dur="2s" repeatCount="indefinite" values="0.101960786;0.101960786"/>
      <animate attributeName="d" dur="2s" repeatCount="indefinite" values="M-38.7 -5.25 L-33.8 -6.35 -28.3 -7.6 Q-25.9 -7.85 -23.5 -8.15 L-13.85 -8.05 -12.45 -8.0 -20.2 -10.3 -20.8 -10.5 Q4.6 -10.2 17.35 -8.15 L19.3 -7.85 Q23.75 -7.45 27.85 -6.0 28.9 -5.6 30.0 -5.15 L31.0 -4.75 32.6 -3.55 33.85 -2.1 33.95 -1.9 34.75 -0.05 32.25 1.85 28.45 1.2 25.75 1.05 15.4 1.65 15.1 1.65 9.35 2.8 8.85 2.9 6.65 3.55 6.35 3.65 Q3.9 4.35 -1.2 8.25 L-1.4 8.35 -2.55 9.3 -2.75 9.4 Q-1.3 5.8 4.8 1.9 L4.9 1.8 -2.55 6.4 -2.85 6.6 -3.25 6.8 Q-7.55 8.2 -12.0 8.2 L-12.7 8.2 -13.3 8.2 -14.0 8.15 Q-16.65 7.9 -19.05 6.8 L-19.55 6.6 -20.65 5.95 -23.0 4.55 -23.3 4.35 -26.5 1.2 -27.4 0.3 -30.3 -2.5 Q-32.6 -4.5 -38.6 -5.25 M-38.7 -5.25 L-33.8 -6.35 -28.3 -7.6 Q-25.9 -7.85 -23.5 -8.15 L-13.85 -8.05 -12.45 -8.0 -20.2 -10.3 -20.8 -10.5 Q4.6 -10.2 17.35 -8.15 L19.3 -7.85 Q23.75 -7.45 27.85 -6.0 28.9 -5.6 30.0 -5.15 L31.0 -4.75 32.6 -3.55 33.85 -2.1 33.95 -1.9 34.75 -0.05 32.25 1.85 28.45 1.2 25.75 1.05 15.4 1.65 15.1 1.65 9.35 2.8 8.85 2.9 6.65 3.55 6.35 3.65 Q3.9 4.35 -1.2 8.25 L-1.4 8.35 -2.55 9.3 -2.75 9.4 Q-1.3 5.8 4.8 1.9 L4.9 1.8 -2.55 6.4 -2.85 6.6 -3.25 6.8 Q-7.55 8.2 -12.0 8.2 L-12.7 8.2 -13.3 8.2 -14.0 8.15 Q-16.65 7.9 -19.05 6.8 L-19.55 6.6 -20.65 5.95 -23.0 4.55 -23.3 4.35 -26.5 1.2 -27.4 0.3 -30.3 -2.5 Q-32.6 -4.5 -38.6 -5.25 L-38.7 -5.25 Z;M-37.65 -9.4 L-32.5 -9.1 -26.85 -10.25 Q-23.65 -10.6 -21.95 -10.25 L-12.45 -8.0 -13.5 -8.9 -19.7 -14.3 -19.0 -14.1 Q5.15 -8.3 19.3 -7.85 L21.35 -7.6 Q25.8 -6.95 29.85 -5.25 30.95 -4.85 31.75 -4.25 L32.6 -3.55 33.9 -2.0 34.65 -0.25 34.75 -0.05 32.7 0.35 29.5 0.65 25.6 0.95 22.9 1.15 12.4 2.05 12.1 2.15 6.35 3.65 5.85 3.8 3.9 5.05 3.7 5.25 Q1.15 7.25 -2.65 11.75 L-2.55 11.55 -2.15 10.15 -2.05 9.95 Q-0.35 5.25 4.8 1.9 L5.0 1.8 -3.25 5.55 -3.55 5.55 -4.05 5.55 Q-8.45 5.9 -12.85 6.3 L-13.5 6.3 -14.1 6.3 -14.8 6.2 Q-17.35 5.9 -19.9 5.6 L-20.3 5.4 -21.45 4.9 -23.8 3.5 -24.1 3.2 -27.55 0.3 -28.4 -0.65 -31.4 -3.45 Q-34.5 -6.4 -37.65 -9.4 M-37.65 -9.4 L-32.5 -9.1 -26.85 -10.25 Q-23.65 -10.6 -21.95 -10.25 L-12.45 -8.0 -13.5 -8.9 -19.7 -14.3 -19.0 -14.1 Q5.15 -8.3 19.3 -7.85 L21.35 -7.6 Q25.8 -6.95 29.85 -5.25 30.95 -4.85 31.75 -4.25 L32.6 -3.55 33.9 -2.0 34.65 -0.25 34.75 -0.05 32.7 0.35 29.5 0.65 25.6 0.95 22.9 1.15 12.4 2.05 12.1 2.15 6.35 3.65 5.85 3.8 3.9 5.05 3.7 5.25 Q1.15 7.25 -2.65 11.75 L-2.55 11.55 -2.15 10.15 -2.05 9.95 Q-0.35 5.25 4.8 1.9 L5.0 1.8 -3.25 5.55 -3.55 5.55 -4.05 5.55 Q-8.45 5.9 -12.85 6.3 L-13.5 6.3 -14.1 6.3 -14.8 6.2 Q-17.35 5.9 -19.9 5.6 L-20.3 5.4 -21.45 4.9 -23.8 3.5 -24.1 3.2 -27.55 0.3 -28.4 -0.65 -31.4 -3.45 Q-34.5 -6.4 -37.65 -9.4 L-37.65 -9.4 Z"/>
    </path>
  </g>
  <defs>
    <linearGradient gradientTransform="matrix(0.1364, -0.0735, 0.0048, 0.0089, 27.75, -18.65)" gradientUnits="userSpaceOnUse" id="gradient0" spreadMethod="pad" x1="-819.2" x2="819.2">
      <animateTransform additive="replace" attributeName="gradientTransform" dur="2s" from="1" repeatCount="indefinite" to="1" type="scale"/>
      <animateTransform additive="sum" attributeName="gradientTransform" dur="2s" from="27.75 -18.65" repeatCount="indefinite" to="-26.8 10.75" type="translate"/>
      <animateTransform additive="sum" attributeName="gradientTransform" dur="2s" from="-28.329" repeatCount="indefinite" to="-28.329" type="rotate"/>
      <animateTransform additive="sum" attributeName="gradientTransform" dur="2s" from="0.155 0.0101" repeatCount="indefinite" to="0.155 0.0101" type="scale"/>
      <animateTransform additive="sum" attributeName="gradientTransform" dur="2s" from="8.0E-4" repeatCount="indefinite" to="8.0E-4" type="skewX"/>
      <stop offset="0.0" stop-color="#ff0000">
        <animate attributeName="offset" dur="2s" repeatCount="indefinite" values="0.0;0.0"/>
        <animate attributeName="stop-color" dur="2s" repeatCount="indefinite" values="#ff0000;#ff0001"/>
        <animate attributeName="stop-opacity" dur="2s" repeatCount="indefinite" values="1.0;1.0"/>
      </stop>
      <stop offset="0.0784313725490196" stop-color="#ff00ff">
        <animate attributeName="offset" dur="2s" repeatCount="indefinite" values="0.0784313725490196;0.0784313725490196"/>
        <animate attributeName="stop-color" dur="2s" repeatCount="indefinite" values="#ff00ff;#ff00ff"/>
        <animate attributeName="stop-opacity" dur="2s" repeatCount="indefinite" values="1.0;1.0"/>
      </stop>
      <stop offset="0.1607843137254902" stop-color="#0000ff">
        <animate attributeName="offset" dur="2s" repeatCount="indefinite" values="0.1607843137254902;0.1607843137254902"/>
        <animate attributeName="stop-color" dur="2s" repeatCount="indefinite" values="#0000ff;#0000ff"/>
        <animate attributeName="stop-opacity" dur="2s" repeatCount="indefinite" values="1.0;1.0"/>
      </stop>
      <stop offset="0.23921568627450981" stop-color="#00ffff">
        <animate attributeName="offset" dur="2s" repeatCount="indefinite" values="0.23921568627450981;0.23921568627450981"/>
        <animate attributeName="stop-color" dur="2s" repeatCount="indefinite" values="#00ffff;#00ffff"/>
        <animate attributeName="stop-opacity" dur="2s" repeatCount="indefinite" values="1.0;1.0"/>
      </stop>
      <stop offset="0.3176470588235294" stop-color="#00ff00">
        <animate attributeName="offset" dur="2s" repeatCount="indefinite" values="0.3176470588235294;0.3176470588235294"/>
        <animate attributeName="stop-color" dur="2s" repeatCount="indefinite" values="#00ff00;#00ff01"/>
        <animate attributeName="stop-opacity" dur="2s" repeatCount="indefinite" values="1.0;1.0"/>
      </stop>
      <stop offset="0.396078431372549" stop-color="#ffff00">
        <animate attributeName="offset" dur="2s" repeatCount="indefinite" values="0.396078431372549;0.396078431372549"/>
        <animate attributeName="stop-color" dur="2s" repeatCount="indefinite" values="#ffff00;#ffff01"/>
        <animate attributeName="stop-opacity" dur="2s" repeatCount="indefinite" values="1.0;1.0"/>
      </stop>
      <stop offset="0.49019607843137253" stop-color="#ff0000">
        <animate attributeName="offset" dur="2s" repeatCount="indefinite" values="0.49019607843137253;0.49019607843137253"/>
        <animate attributeName="stop-color" dur="2s" repeatCount="indefinite" values="#ff0000;#ff0001"/>
        <animate attributeName="stop-opacity" dur="2s" repeatCount="indefinite" values="1.0;1.0"/>
      </stop>
      <stop offset="0.5843137254901961" stop-color="#ff00ff">
        <animate attributeName="offset" dur="2s" repeatCount="indefinite" values="0.5843137254901961;0.5843137254901961"/>
        <animate attributeName="stop-color" dur="2s" repeatCount="indefinite" values="#ff00ff;#ff00ff"/>
        <animate attributeName="stop-opacity" dur="2s" repeatCount="indefinite" values="1.0;1.0"/>
      </stop>
      <stop offset="0.6666666666666666" stop-color="#0000ff">
        <animate attributeName="offset" dur="2s" repeatCount="indefinite" values="0.6666666666666666;0.6666666666666666"/>
        <animate attributeName="stop-color" dur="2s" repeatCount="indefinite" values="#0000ff;#0000ff"/>
        <animate attributeName="stop-opacity" dur="2s" repeatCount="indefinite" values="1.0;1.0"/>
      </stop>
      <stop offset="0.7529411764705882" stop-color="#00ffff">
        <animate attributeName="offset" dur="2s" repeatCount="indefinite" values="0.7529411764705882;0.7529411764705882"/>
        <animate attributeName="stop-color" dur="2s" repeatCount="indefinite" values="#00ffff;#00ffff"/>
        <animate attributeName="stop-opacity" dur="2s" repeatCount="indefinite" values="1.0;1.0"/>
      </stop>
      <stop offset="0.8235294117647058" stop-color="#00ff00">
        <animate attributeName="offset" dur="2s" repeatCount="indefinite" values="0.8235294117647058;0.8235294117647058"/>
        <animate attributeName="stop-color" dur="2s" repeatCount="indefinite" values="#00ff00;#00ff01"/>
        <animate attributeName="stop-opacity" dur="2s" repeatCount="indefinite" values="1.0;1.0"/>
      </stop>
      <stop offset="0.9137254901960784" stop-color="#ffff00">
        <animate attributeName="offset" dur="2s" repeatCount="indefinite" values="0.9137254901960784;0.9137254901960784"/>
        <animate attributeName="stop-color" dur="2s" repeatCount="indefinite" values="#ffff00;#ffff01"/>
        <animate attributeName="stop-opacity" dur="2s" repeatCount="indefinite" values="1.0;1.0"/>
      </stop>
      <stop offset="1.0" stop-color="#ff0000">
        <animate attributeName="offset" dur="2s" repeatCount="indefinite" values="1.0;1.0"/>
        <animate attributeName="stop-color" dur="2s" repeatCount="indefinite" values="#ff0000;#ff0001"/>
        <animate attributeName="stop-opacity" dur="2s" repeatCount="indefinite" values="1.0;1.0"/>
      </stop>
    </linearGradient>
  </defs>
</svg>
