<?xml version="1.0" encoding="UTF-8" standalone="no"?>
<svg xmlns:ffdec="https://www.free-decompiler.com/flash" xmlns:xlink="http://www.w3.org/1999/xlink" ffdec:objectType="shape" height="26.05px" width="72.4px" xmlns="http://www.w3.org/2000/svg">
  <g transform="matrix(1.0, 0.0, 0.0, 1.0, 37.65, 14.3)">
    <path d="M21.35 -7.6 Q25.8 -6.95 29.85 -5.25 30.9 -4.9 31.75 -4.25 L32.6 -3.55 34.0 -1.9 34.75 -0.05 32.7 0.35 12.4 2.05 6.35 3.65 Q5.35 3.95 3.9 5.05 1.3 7.05 -2.65 11.75 L-2.15 10.15 Q-0.45 5.3 4.8 1.9 L5.0 1.8 -3.25 5.55 -3.55 5.55 -12.85 6.3 -14.1 6.3 -19.9 5.6 -21.45 4.9 -23.8 3.5 -27.55 0.3 -28.4 -0.65 -37.65 -9.4 -32.5 -9.1 -26.85 -10.25 Q-23.65 -10.6 -21.95 -10.25 L-12.45 -8.0 -19.7 -14.3 -19.0 -14.1 Q5.15 -8.3 19.3 -7.85 L21.35 -7.6" fill="url(#gradient0)" fill-rule="evenodd" stroke="none"/>
    <path d="M21.35 -7.6 Q25.8 -6.95 29.85 -5.25 30.9 -4.9 31.75 -4.25 L32.6 -3.55 34.0 -1.9 34.75 -0.05 32.7 0.35 12.4 2.05 6.35 3.65 Q5.35 3.95 3.9 5.05 1.3 7.05 -2.65 11.75 L-2.15 10.15 Q-0.45 5.3 4.8 1.9 L5.0 1.8 -3.25 5.55 -3.55 5.55 -12.85 6.3 -14.1 6.3 -19.9 5.6 -21.45 4.9 -23.8 3.5 -27.55 0.3 -28.4 -0.65 -37.65 -9.4 -32.5 -9.1 -26.85 -10.25 Q-23.65 -10.6 -21.95 -10.25 L-12.45 -8.0 -19.7 -14.3 -19.0 -14.1 Q5.15 -8.3 19.3 -7.85 L21.35 -7.6 Z" fill="none" stroke="#330066" stroke-linecap="round" stroke-linejoin="round" stroke-opacity="0.101960786" stroke-width="0.05"/>
  </g>
  <defs>
    <linearGradient gradientTransform="matrix(0.1364, -0.0735, 0.0048, 0.0089, -26.8, 10.75)" gradientUnits="userSpaceOnUse" id="gradient0" spreadMethod="pad" x1="-819.2" x2="819.2">
      <stop offset="0.0" stop-color="#ff0000"/>
      <stop offset="0.0784313725490196" stop-color="#ff00ff"/>
      <stop offset="0.1607843137254902" stop-color="#0000ff"/>
      <stop offset="0.23921568627450981" stop-color="#00ffff"/>
      <stop offset="0.3176470588235294" stop-color="#00ff00"/>
      <stop offset="0.396078431372549" stop-color="#ffff00"/>
      <stop offset="0.49019607843137253" stop-color="#ff0000"/>
      <stop offset="0.5843137254901961" stop-color="#ff00ff"/>
      <stop offset="0.6666666666666666" stop-color="#0000ff"/>
      <stop offset="0.7529411764705882" stop-color="#00ffff"/>
      <stop offset="0.8235294117647058" stop-color="#00ff00"/>
      <stop offset="0.9137254901960784" stop-color="#ffff00"/>
      <stop offset="1.0" stop-color="#ff0000"/>
    </linearGradient>
  </defs>
</svg>
