<?xml version="1.0" encoding="UTF-8" standalone="no"?>
<svg xmlns:ffdec="https://www.free-decompiler.com/flash" xmlns:xlink="http://www.w3.org/1999/xlink" ffdec:objectType="shape" height="19.9px" width="73.45px" xmlns="http://www.w3.org/2000/svg">
  <g transform="matrix(1.0, 0.0, 0.0, 1.0, 38.7, 10.5)">
    <path d="M27.95 -6.0 L31.0 -4.75 32.6 -3.55 33.85 -2.1 34.75 -0.05 32.25 1.85 28.45 1.2 25.75 1.05 15.1 1.65 12.4 2.05 6.35 3.65 Q3.85 4.35 -1.4 8.35 L-2.75 9.4 Q-1.3 5.9 4.5 2.15 L-3.25 6.8 Q-7.9 8.3 -12.7 8.2 L-14.0 8.15 Q-16.9 7.85 -19.55 6.6 L-23.3 4.35 -30.3 -2.5 Q-32.6 -4.5 -38.7 -5.25 L-28.3 -7.6 -21.6 -8.35 -12.45 -8.0 -20.9 -10.5 Q4.6 -10.2 17.35 -8.15 L19.3 -7.85 Q23.8 -7.45 27.95 -6.0 M4.5 2.15 L4.7 2.0 5.0 1.8 4.7 2.0 4.5 2.15" fill="url(#gradient0)" fill-rule="evenodd" stroke="none"/>
    <path d="M27.95 -6.0 L31.0 -4.75 32.6 -3.55 33.85 -2.1 34.75 -0.05 32.25 1.85 28.45 1.2 25.75 1.05 15.1 1.65 12.4 2.05 6.35 3.65 Q3.85 4.35 -1.4 8.35 L-2.75 9.4 Q-1.3 5.9 4.5 2.15 L-3.25 6.8 Q-7.9 8.3 -12.7 8.2 L-14.0 8.15 Q-16.9 7.85 -19.55 6.6 L-23.3 4.35 -30.3 -2.5 Q-32.6 -4.5 -38.7 -5.25 L-28.3 -7.6 -21.6 -8.35 -12.45 -8.0 -20.9 -10.5 Q4.6 -10.2 17.35 -8.15 L19.3 -7.85 Q23.8 -7.45 27.95 -6.0 M5.0 1.8 L4.7 2.0 4.5 2.15" fill="none" stroke="#330066" stroke-linecap="round" stroke-linejoin="round" stroke-opacity="0.101960786" stroke-width="0.05"/>
  </g>
  <defs>
    <linearGradient gradientTransform="matrix(0.1364, -0.0735, 0.0048, 0.0089, -85.2, 42.3)" gradientUnits="userSpaceOnUse" id="gradient0" spreadMethod="pad" x1="-819.2" x2="819.2">
      <stop offset="0.0" stop-color="#ff0000"/>
      <stop offset="0.0784313725490196" stop-color="#ff00ff"/>
      <stop offset="0.1607843137254902" stop-color="#0000ff"/>
      <stop offset="0.23921568627450981" stop-color="#00ffff"/>
      <stop offset="0.3176470588235294" stop-color="#00ff00"/>
      <stop offset="0.396078431372549" stop-color="#ffff00"/>
      <stop offset="0.49019607843137253" stop-color="#ff0000"/>
      <stop offset="0.5843137254901961" stop-color="#ff00ff"/>
      <stop offset="0.6666666666666666" stop-color="#0000ff"/>
      <stop offset="0.7529411764705882" stop-color="#00ffff"/>
      <stop offset="0.8235294117647058" stop-color="#00ff00"/>
      <stop offset="0.9137254901960784" stop-color="#ffff00"/>
      <stop offset="1.0" stop-color="#ff0000"/>
    </linearGradient>
  </defs>
</svg>
