<?xml version="1.0" encoding="UTF-8" standalone="no"?>
<svg xmlns:ffdec="https://www.free-decompiler.com/flash" xmlns:xlink="http://www.w3.org/1999/xlink" ffdec:objectType="shape" height="19.9px" width="73.45px" xmlns="http://www.w3.org/2000/svg">
  <g transform="matrix(1.0, 0.0, 0.0, 1.0, 38.7, 10.5)">
    <path d="M34.75 -0.05 L32.25 1.85 Q29.1 1.1 25.75 1.05 L12.4 2.05 Q9.3 2.7 6.35 3.65 3.55 4.45 -2.75 9.4 -1.25 5.75 5.0 1.8 L-3.25 6.8 Q-7.9 8.3 -12.7 8.2 -16.85 8.15 -20.55 6.05 L-21.1 5.75 Q-24.85 3.6 -27.75 0.1 L-30.3 -2.5 Q-32.55 -4.5 -38.7 -5.25 L-32.65 -6.8 -28.1 -7.6 -21.6 -8.35 -16.0 -8.0 -12.45 -8.0 -20.9 -10.5 Q6.6 -10.15 19.3 -7.85 24.85 -7.35 29.85 -5.25 31.4 -4.7 32.6 -3.55 34.25 -2.05 34.75 -0.05" fill="url(#gradient0)" fill-rule="evenodd" stroke="none"/>
    <path d="M34.75 -0.05 L32.25 1.85 Q29.1 1.1 25.75 1.05 L12.4 2.05 Q9.3 2.7 6.35 3.65 3.55 4.45 -2.75 9.4 -1.25 5.75 5.0 1.8 L-3.25 6.8 Q-7.9 8.3 -12.7 8.2 -16.85 8.15 -20.55 6.05 L-21.1 5.75 Q-24.85 3.6 -27.75 0.1 L-30.3 -2.5 Q-32.55 -4.5 -38.7 -5.25 L-32.65 -6.8 -28.1 -7.6 -21.6 -8.35 -16.0 -8.0 -12.45 -8.0 -20.9 -10.5 Q6.6 -10.15 19.3 -7.85 24.85 -7.35 29.85 -5.25 31.4 -4.7 32.6 -3.55 34.25 -2.05 34.75 -0.05 Z" fill="none" stroke="#330066" stroke-linecap="round" stroke-linejoin="round" stroke-opacity="0.101960786" stroke-width="0.05"/>
  </g>
  <defs>
    <linearGradient gradientTransform="matrix(0.1364, -0.0735, 0.0048, 0.0089, -85.2, 42.3)" gradientUnits="userSpaceOnUse" id="gradient0" spreadMethod="pad" x1="-819.2" x2="819.2">
      <stop offset="0.0" stop-color="#ff0000"/>
      <stop offset="0.0784313725490196" stop-color="#ff00ff"/>
      <stop offset="0.1607843137254902" stop-color="#0000ff"/>
      <stop offset="0.23921568627450981" stop-color="#00ffff"/>
      <stop offset="0.3176470588235294" stop-color="#00ff00"/>
      <stop offset="0.396078431372549" stop-color="#ffff00"/>
      <stop offset="0.49019607843137253" stop-color="#ff0000"/>
      <stop offset="0.5843137254901961" stop-color="#ff00ff"/>
      <stop offset="0.6666666666666666" stop-color="#0000ff"/>
      <stop offset="0.7529411764705882" stop-color="#00ffff"/>
      <stop offset="0.8235294117647058" stop-color="#00ff00"/>
      <stop offset="0.9137254901960784" stop-color="#ffff00"/>
      <stop offset="1.0" stop-color="#ff0000"/>
    </linearGradient>
  </defs>
</svg>
