<?xml version="1.0" encoding="UTF-8" standalone="no"?>
<svg xmlns:ffdec="https://www.free-decompiler.com/flash" xmlns:xlink="http://www.w3.org/1999/xlink" ffdec:objectType="shape" height="37.7px" width="66.7px" xmlns="http://www.w3.org/2000/svg">
  <g transform="matrix(1.0, 0.0, 0.0, 1.0, 33.35, 20.9)">
    <path d="M8.8 -18.95 Q17.95 -17.75 26.2 -13.7 32.5 -10.5 33.35 -3.95 22.45 -5.15 14.55 -4.45 6.25 -3.75 -0.95 -1.9 -9.1 0.1 -15.9 3.55 -26.1 8.65 -33.35 16.8 -33.25 11.15 -29.1 7.8 -25.0 4.45 -27.6 0.7 L-19.85 -0.25 Q-18.1 -2.05 -17.75 -8.5 -12.5 -7.45 -9.65 -8.85 -6.8 -10.3 -12.8 -12.55 L0.7 -12.55 -1.9 -20.9 Q5.5 -17.25 8.8 -18.95" fill="url(#gradient0)" fill-rule="evenodd" stroke="none"/>
    <path d="M8.8 -18.95 Q5.5 -17.25 -1.9 -20.9 L0.7 -12.55 -12.8 -12.55 Q-6.8 -10.3 -9.65 -8.85 -12.5 -7.45 -17.75 -8.5 -18.1 -2.05 -19.85 -0.25 L-27.6 0.7 Q-25.0 4.45 -29.1 7.8 -33.25 11.15 -33.35 16.8 -26.1 8.65 -15.9 3.55 -9.1 0.1 -0.95 -1.9 6.25 -3.75 14.55 -4.45 22.45 -5.15 33.35 -3.95 32.5 -10.5 26.2 -13.7 17.95 -17.75 8.8 -18.95 Z" fill="none" stroke="#330066" stroke-linecap="round" stroke-linejoin="round" stroke-opacity="0.101960786" stroke-width="0.05"/>
  </g>
  <defs>
    <linearGradient gradientTransform="matrix(-0.1401, 0.0809, -0.0084, -0.0145, 58.45, 48.9)" gradientUnits="userSpaceOnUse" id="gradient0" spreadMethod="pad" x1="-819.2" x2="819.2">
      <stop offset="0.0" stop-color="#ff0000"/>
      <stop offset="0.0784313725490196" stop-color="#ff00ff"/>
      <stop offset="0.1607843137254902" stop-color="#0000ff"/>
      <stop offset="0.23921568627450981" stop-color="#00ffff"/>
      <stop offset="0.3176470588235294" stop-color="#00ff00"/>
      <stop offset="0.396078431372549" stop-color="#ffff00"/>
      <stop offset="0.49019607843137253" stop-color="#ff0000"/>
      <stop offset="0.5843137254901961" stop-color="#ff00ff"/>
      <stop offset="0.6666666666666666" stop-color="#0000ff"/>
      <stop offset="0.7529411764705882" stop-color="#00ffff"/>
      <stop offset="0.8235294117647058" stop-color="#00ff00"/>
      <stop offset="0.9137254901960784" stop-color="#ffff00"/>
      <stop offset="1.0" stop-color="#ff0000"/>
    </linearGradient>
  </defs>
</svg>
