<?xml version="1.0" encoding="UTF-8" standalone="no"?>
<svg xmlns:ffdec="https://www.free-decompiler.com/flash" xmlns:xlink="http://www.w3.org/1999/xlink" ffdec:objectType="shape" height="47.95px" width="71.7px" xmlns="http://www.w3.org/2000/svg">
  <g transform="matrix(1.0, 0.0, 0.0, 1.0, 12.35, 29.9)">
    <path d="M5.1 -21.65 Q11.9 -25.1 20.05 -27.1 27.25 -28.95 35.55 -29.65 43.45 -30.35 54.35 -29.15 60.0 -26.15 59.25 -17.8 59.9 -12.3 52.25 -8.9 48.35 -8.8 44.6 -7.75 38.4 -6.15 32.95 -2.6 26.95 1.25 23.4 7.55 L19.7 13.6 Q18.25 15.85 15.85 16.85 10.55 19.3 4.95 16.85 -0.45 14.35 -3.8 9.55 -6.5 5.7 -8.8 1.3 -11.3 -3.4 -12.35 -8.4 -5.1 -16.55 5.1 -21.65" fill="url(#gradient0)" fill-rule="evenodd" stroke="none"/>
    <path d="M5.1 -21.65 Q-5.1 -16.55 -12.35 -8.4 -11.3 -3.4 -8.8 1.3 -6.5 5.7 -3.8 9.55 -0.45 14.35 4.95 16.85 10.55 19.3 15.85 16.85 18.25 15.85 19.7 13.6 L23.4 7.55 Q26.95 1.25 32.95 -2.6 38.4 -6.15 44.6 -7.75 48.35 -8.8 52.25 -8.9 59.9 -12.3 59.25 -17.8 60.0 -26.15 54.35 -29.15 43.45 -30.35 35.55 -29.65 27.25 -28.95 20.05 -27.1 11.9 -25.1 5.1 -21.65 Z" fill="none" stroke="#330066" stroke-linecap="round" stroke-linejoin="round" stroke-opacity="0.2" stroke-width="0.05"/>
    <path d="M20.05 -27.1 Q11.9 -25.1 5.1 -21.65 -5.1 -16.55 -12.35 -8.4 -11.3 -3.4 -8.8 1.3 -6.5 5.7 -3.8 9.55 -0.45 14.35 4.95 16.85 11.05 12.6 13.45 10.3 17.3 6.75 19.35 1.9 21.4 -2.95 23.95 -7.05 26.5 -11.15 29.9 -14.4 33.25 -17.65 38.05 -18.95 42.8 -20.25 59.2 -18.15 L59.25 -17.8 Q60.0 -26.15 54.35 -29.15 43.45 -30.35 35.55 -29.65 27.25 -28.95 20.05 -27.1 M4.95 16.85 Q10.55 19.3 15.85 16.85 18.25 15.85 19.7 13.6 L23.4 7.55 Q26.95 1.25 32.95 -2.6 38.4 -6.15 44.6 -7.75 48.35 -8.8 52.25 -8.9 59.9 -12.3 59.25 -17.8" fill="none" stroke="#330066" stroke-linecap="round" stroke-linejoin="round" stroke-opacity="0.2" stroke-width="0.05"/>
    <path d="M26.25 -28.45 Q28.9 -15.65 34.2 -3.4 M41.1 -29.9 Q39.75 -19.0 44.0 -7.55 M9.65 -23.75 Q20.5 -10.65 24.6 5.65 M-3.7 -16.3 Q10.15 -3.7 17.7 15.8" fill="none" stroke="#330066" stroke-linecap="round" stroke-linejoin="round" stroke-opacity="0.2" stroke-width="0.05"/>
  </g>
  <defs>
    <radialGradient cx="0" cy="0" gradientTransform="matrix(0.1209, 0.0111, -0.0111, 0.1209, 43.15, 23.0)" gradientUnits="userSpaceOnUse" id="gradient0" r="819.2" spreadMethod="pad">
      <stop offset="0.14901960784313725" stop-color="#e099ff"/>
      <stop offset="0.41568627450980394" stop-color="#785cbc"/>
      <stop offset="0.47843137254901963" stop-color="#ffffff"/>
      <stop offset="0.5254901960784314" stop-color="#c9defd"/>
      <stop offset="0.7686274509803922" stop-color="#8bb9fc"/>
    </radialGradient>
  </defs>
</svg>
