<?xml version="1.0" encoding="UTF-8" standalone="no"?>
<svg xmlns:ffdec="https://www.free-decompiler.com/flash" xmlns:xlink="http://www.w3.org/1999/xlink" ffdec:objectType="shape" height="51.45px" width="73.1px" xmlns="http://www.w3.org/2000/svg">
  <g transform="matrix(1.0, 0.0, 0.0, 1.0, 26.05, 28.45)">
    <path d="M10.7 -28.45 L15.85 -28.15 Q21.9 -27.75 27.15 -24.75 30.8 -22.55 34.0 -19.75 38.0 -16.35 40.95 -12.05 44.7 -6.65 46.0 -0.1 L46.9 5.15 Q47.65 9.85 44.1 12.95 39.8 16.65 34.9 19.25 29.8 22.05 23.9 22.85 14.8 23.7 6.3 20.25 -0.85 17.25 -6.25 12.05 -8.65 9.8 -10.5 7.05 -12.9 3.35 -15.95 0.35 -19.65 -3.3 -23.85 -6.1 L-24.55 -6.55 -26.05 -11.15 Q-21.45 -21.6 -9.2 -22.5 -2.9 -23.25 2.65 -26.35 6.35 -28.4 10.7 -28.45" fill="url(#gradient0)" fill-rule="evenodd" stroke="none"/>
    <path d="M10.7 -28.45 L15.85 -28.15 Q21.9 -27.75 27.15 -24.75 30.8 -22.55 34.0 -19.75 38.0 -16.35 40.95 -12.05 44.7 -6.65 46.0 -0.1 L46.9 5.15 Q47.65 9.85 44.1 12.95 39.8 16.65 34.9 19.25 29.8 22.05 23.9 22.85 14.8 23.7 6.3 20.25 -0.85 17.25 -6.25 12.05 -8.65 9.8 -10.5 7.05 -12.9 3.35 -15.95 0.35 -19.65 -3.3 -23.85 -6.1 L-24.55 -6.55 -26.05 -11.15 Q-21.45 -21.6 -9.2 -22.5 -2.9 -23.25 2.65 -26.35 6.35 -28.4 10.7 -28.45 Z" fill="none" stroke="#330066" stroke-linecap="round" stroke-linejoin="round" stroke-opacity="0.2" stroke-width="0.05"/>
  </g>
  <defs>
    <radialGradient cx="0" cy="0" gradientTransform="matrix(0.0868, -0.023, 0.0141, 0.0531, 10.1, -23.7)" gradientUnits="userSpaceOnUse" id="gradient0" r="819.2" spreadMethod="pad">
      <stop offset="0.0" stop-color="#8bb9fc"/>
      <stop offset="0.3607843137254902" stop-color="#c9defd"/>
      <stop offset="0.47843137254901963" stop-color="#ffffff"/>
      <stop offset="0.5882352941176471" stop-color="#785cbc"/>
      <stop offset="1.0" stop-color="#e099ff"/>
    </radialGradient>
  </defs>
</svg>
