<?xml version="1.0" encoding="UTF-8" standalone="no"?>
<svg xmlns:ffdec="https://www.free-decompiler.com/flash" xmlns:xlink="http://www.w3.org/1999/xlink" ffdec:objectType="shape" height="51.6px" width="61.15px" xmlns="http://www.w3.org/2000/svg">
  <g transform="matrix(1.0, 0.0, 0.0, 1.0, 7.3, 15.05)">
    <path d="M-3.05 17.9 L-2.85 18.0 -2.9 18.0 -3.05 17.9" fill="url(#gradient0)" fill-rule="evenodd" stroke="none"/>
    <path d="M8.6 2.95 Q13.5 4.15 11.25 10.75 L8.4 8.3 Q7.55 3.15 8.6 2.95" fill="url(#gradient1)" fill-rule="evenodd" stroke="none"/>
    <path d="M9.2 -6.3 L7.85 -3.45 Q4.75 -2.4 4.25 -4.95 L4.6 -8.65 7.1 -15.05 Q9.4 -11.8 9.2 -6.3" fill="url(#gradient2)" fill-rule="evenodd" stroke="none"/>
    <path d="M4.6 -8.65 L4.25 -4.95 Q4.75 -2.4 7.85 -3.45 L9.2 -6.3 Q12.35 -2.4 14.2 2.4 L15.65 7.35 Q15.85 13.9 13.25 19.0 11.05 21.15 8.1 21.65 5.95 21.45 3.1 20.5 0.35 19.6 -2.85 18.0 L-3.05 17.9 -4.15 16.8 Q-7.0 13.2 -7.3 8.65 L-7.2 7.25 Q-7.2 0.6 -4.45 -4.05 -1.7 -8.75 4.6 -8.65 M8.6 2.95 Q7.55 3.15 8.4 8.3 L11.25 10.75 Q13.5 4.15 8.6 2.95" fill="url(#gradient3)" fill-rule="evenodd" stroke="none"/>
    <path d="M25.85 -0.5 L37.3 -3.35 34.15 2.35 21.35 8.7 25.85 -0.5" fill="url(#gradient4)" fill-rule="evenodd" stroke="none"/>
    <path d="M34.15 2.35 L37.3 -3.35 53.85 -7.5 34.15 2.35" fill="url(#gradient5)" fill-rule="evenodd" stroke="none"/>
    <path d="M15.65 7.35 L14.2 2.4 25.85 -0.5 21.35 8.7 16.75 11.0 15.65 7.35" fill="url(#gradient6)" fill-rule="evenodd" stroke="none"/>
    <path d="M9.15 29.5 L9.8 27.0 Q11.6 24.0 15.2 23.7 18.85 19.95 17.75 14.35 L22.35 29.9 Q21.85 33.4 17.7 36.55 L14.55 33.0 14.85 35.4 Q13.3 35.9 12.0 34.95 10.15 33.55 9.7 31.25 L9.15 29.5 M19.45 27.75 Q19.7 28.3 19.3 29.3 18.9 30.3 19.05 31.0 19.15 31.65 19.55 31.65 L20.25 31.0 20.55 29.4 20.25 27.8 Q19.95 27.15 19.55 27.15 19.15 27.15 19.45 27.75" fill="url(#gradient7)" fill-rule="evenodd" stroke="none"/>
    <path d="M-2.85 18.0 Q0.35 19.6 3.1 20.5 5.95 21.45 8.1 21.65 11.05 21.15 13.25 19.0 15.85 13.9 15.65 7.35 L16.75 11.0 17.75 14.35 Q18.85 19.95 15.2 23.7 11.6 24.0 9.8 27.0 L9.15 29.5 Q8.1 26.85 5.75 24.9 L-2.9 18.0 -2.85 18.0" fill="url(#gradient8)" fill-rule="evenodd" stroke="none"/>
    <path d="M19.45 27.75 Q19.15 27.15 19.55 27.15 19.95 27.15 20.25 27.8 L20.55 29.4 20.25 31.0 19.55 31.65 Q19.15 31.65 19.05 31.0 18.9 30.3 19.3 29.3 19.7 28.3 19.45 27.75" fill="url(#gradient9)" fill-rule="evenodd" stroke="none"/>
    <path d="M4.6 -8.65 L4.25 -4.95 Q4.75 -2.4 7.85 -3.45 L9.2 -6.3 Q9.4 -11.8 7.1 -15.05 L4.6 -8.65 Q-1.7 -8.75 -4.45 -4.05 -7.2 0.6 -7.2 7.25 L-7.3 8.65 Q-7.0 13.2 -4.15 16.8 L-3.05 17.9 -2.85 18.0 Q0.35 19.6 3.1 20.5 5.95 21.45 8.1 21.65 11.05 21.15 13.25 19.0 15.85 13.9 15.65 7.35 L14.2 2.4 Q12.35 -2.4 9.2 -6.3 M37.3 -3.35 L25.85 -0.5 21.35 8.7 34.15 2.35 37.3 -3.35 53.85 -7.5 34.15 2.35 M15.65 7.35 L16.75 11.0 21.35 8.7 M8.6 2.95 Q13.5 4.15 11.25 10.75 L8.4 8.3 Q7.55 3.15 8.6 2.95 M17.75 14.35 Q18.85 19.95 15.2 23.7 11.6 24.0 9.8 27.0 L9.15 29.5 9.7 31.25 Q10.15 33.55 12.0 34.95 13.3 35.9 14.85 35.4 L14.55 33.0 17.7 36.55 Q21.85 33.4 22.35 29.9 L17.75 14.35 16.75 11.0 M19.45 27.75 Q19.15 27.15 19.55 27.15 19.95 27.15 20.25 27.8 L20.55 29.4 20.25 31.0 19.55 31.65 Q19.15 31.65 19.05 31.0 18.9 30.3 19.3 29.3 19.7 28.3 19.45 27.75 M-2.9 18.0 L5.75 24.9 Q8.1 26.85 9.15 29.5 M14.2 2.4 L25.85 -0.5 M-3.05 17.9 L-2.9 18.0" fill="none" stroke="#330066" stroke-linecap="round" stroke-linejoin="round" stroke-opacity="0.2" stroke-width="0.05"/>
  </g>
  <defs>
    <radialGradient cx="0" cy="0" gradientTransform="matrix(0.0253, -0.0089, 0.0124, 0.0353, 7.75, 1.65)" gradientUnits="userSpaceOnUse" id="gradient0" r="819.2" spreadMethod="pad">
      <stop offset="0.0" stop-color="#80f2ff"/>
      <stop offset="0.47843137254901963" stop-color="#ffffff"/>
      <stop offset="0.5647058823529412" stop-color="#a672c9"/>
      <stop offset="1.0" stop-color="#eaa6dd"/>
    </radialGradient>
    <radialGradient cx="0" cy="0" gradientTransform="matrix(0.0112, 0.0, 0.0, 0.0095, 16.1, 3.75)" gradientUnits="userSpaceOnUse" id="gradient1" r="819.2" spreadMethod="pad">
      <stop offset="0.0" stop-color="#80f2ff"/>
      <stop offset="0.596078431372549" stop-color="#ffffff"/>
      <stop offset="0.615686274509804" stop-color="#0066ff"/>
      <stop offset="1.0" stop-color="#00ffff"/>
    </radialGradient>
    <radialGradient cx="0" cy="0" gradientTransform="matrix(0.0142, -0.0038, 0.0053, 0.0199, 6.75, -13.85)" gradientUnits="userSpaceOnUse" id="gradient2" r="819.2" spreadMethod="pad">
      <stop offset="0.0" stop-color="#8bb9fc"/>
      <stop offset="0.3607843137254902" stop-color="#c9defd"/>
      <stop offset="0.47843137254901963" stop-color="#ffffff"/>
      <stop offset="0.5882352941176471" stop-color="#785cbc"/>
      <stop offset="1.0" stop-color="#e099ff"/>
    </radialGradient>
    <radialGradient cx="0" cy="0" gradientTransform="matrix(0.0253, -0.0089, 0.0124, 0.0353, 7.75, 1.65)" gradientUnits="userSpaceOnUse" id="gradient3" r="819.2" spreadMethod="pad">
      <stop offset="0.0" stop-color="#8bb9fc"/>
      <stop offset="0.3607843137254902" stop-color="#c9defd"/>
      <stop offset="0.47843137254901963" stop-color="#ffffff"/>
      <stop offset="0.5882352941176471" stop-color="#785cbc"/>
      <stop offset="1.0" stop-color="#e099ff"/>
    </radialGradient>
    <radialGradient cx="0" cy="0" gradientTransform="matrix(0.0113, 0.0065, -0.0111, 0.0193, 31.5, -1.2)" gradientUnits="userSpaceOnUse" id="gradient4" r="819.2" spreadMethod="pad">
      <stop offset="0.0" stop-color="#8bb9fc"/>
      <stop offset="0.3607843137254902" stop-color="#c9defd"/>
      <stop offset="0.47843137254901963" stop-color="#ffffff"/>
      <stop offset="0.5882352941176471" stop-color="#785cbc"/>
      <stop offset="1.0" stop-color="#e099ff"/>
    </radialGradient>
    <radialGradient cx="0" cy="0" gradientTransform="matrix(0.0188, 0.0108, -0.016, 0.0277, 47.15, -6.1)" gradientUnits="userSpaceOnUse" id="gradient5" r="819.2" spreadMethod="pad">
      <stop offset="0.0" stop-color="#8bb9fc"/>
      <stop offset="0.3607843137254902" stop-color="#c9defd"/>
      <stop offset="0.47843137254901963" stop-color="#ffffff"/>
      <stop offset="0.5882352941176471" stop-color="#785cbc"/>
      <stop offset="1.0" stop-color="#e099ff"/>
    </radialGradient>
    <radialGradient cx="0" cy="0" gradientTransform="matrix(0.01, -0.0173, 0.0085, 0.0049, 22.25, 0.8)" gradientUnits="userSpaceOnUse" id="gradient6" r="819.2" spreadMethod="pad">
      <stop offset="0.0" stop-color="#8bb9fc"/>
      <stop offset="0.3607843137254902" stop-color="#c9defd"/>
      <stop offset="0.47843137254901963" stop-color="#ffffff"/>
      <stop offset="0.5882352941176471" stop-color="#785cbc"/>
      <stop offset="1.0" stop-color="#e099ff"/>
    </radialGradient>
    <radialGradient cx="0" cy="0" gradientTransform="matrix(0.0216, -0.0038, 0.0043, 0.0244, 24.6, 23.15)" gradientUnits="userSpaceOnUse" id="gradient7" r="819.2" spreadMethod="pad">
      <stop offset="0.0" stop-color="#8bb9fc"/>
      <stop offset="0.3607843137254902" stop-color="#c9defd"/>
      <stop offset="0.47843137254901963" stop-color="#ffffff"/>
      <stop offset="0.5882352941176471" stop-color="#785cbc"/>
      <stop offset="1.0" stop-color="#e099ff"/>
    </radialGradient>
    <radialGradient cx="0" cy="0" gradientTransform="matrix(0.0262, 0.0, 0.0, 0.0262, 5.35, 23.65)" gradientUnits="userSpaceOnUse" id="gradient8" r="819.2" spreadMethod="pad">
      <stop offset="0.0" stop-color="#e099ff"/>
      <stop offset="0.3607843137254902" stop-color="#785cbc"/>
      <stop offset="0.47843137254901963" stop-color="#ffffff"/>
      <stop offset="0.5803921568627451" stop-color="#c9defd"/>
      <stop offset="1.0" stop-color="#8bb9fc"/>
    </radialGradient>
    <radialGradient cx="0" cy="0" gradientTransform="matrix(0.0069, 0.0, 0.0, 0.0069, 23.0, 26.8)" gradientUnits="userSpaceOnUse" id="gradient9" r="819.2" spreadMethod="pad">
      <stop offset="0.0" stop-color="#8bb9fc"/>
      <stop offset="0.3607843137254902" stop-color="#c9defd"/>
      <stop offset="0.47843137254901963" stop-color="#ffffff"/>
      <stop offset="0.5882352941176471" stop-color="#785cbc"/>
      <stop offset="1.0" stop-color="#e099ff"/>
    </radialGradient>
  </defs>
</svg>
