<?xml version="1.0" encoding="UTF-8" standalone="no"?>
<svg xmlns:ffdec="https://www.free-decompiler.com/flash" xmlns:xlink="http://www.w3.org/1999/xlink" ffdec:objectType="shape" height="386.65px" width="781.1px" xmlns="http://www.w3.org/2000/svg">
  <g transform="matrix(1.0, 0.0, 0.0, 1.0, 383.45, 497.5)">
    <path d="M165.6 -416.1 Q175.75 -437.75 191.65 -418.55 177.75 -436.95 193.6 -440.1 208.85 -473.6 221.6 -440.1 230.3 -423.15 221.6 -388.1 227.7 -406.4 235.6 -388.1 230.05 -421.35 235.6 -440.1 221.45 -465.15 247.6 -440.1 238.1 -470.1 247.6 -476.1 264.95 -513.85 271.6 -476.1 282.3 -443.3 271.6 -392.1 281.35 -420.7 283.6 -392.1 295.6 -400.75 283.6 -370.1 291.75 -388.1 303.65 -370.1 293.05 -391.0 303.65 -392.1 323.2 -443.95 350.0 -392.05 438.7 -326.9 362.25 -243.85 334.95 -218.7 324.75 -202.1 310.35 -188.05 303.6 -174.1 255.1 -122.6 206.6 -174.1 193.6 -189.5 178.95 -163.0 169.0 -145.0 156.7 -132.05 111.55 -92.75 82.1 -132.05 76.9 -150.7 69.75 -146.1 -21.2 -75.55 -88.65 -146.1 -93.6 -157.95 -96.7 -164.45 -108.3 -188.45 -121.65 -202.4 -137.25 -218.7 -159.8 -226.55 -184.05 -235.0 -220.0 -235.0 -234.9 -235.0 -239.55 -223.1 -240.35 -221.05 -240.8 -218.1 -275.9 -193.35 -310.95 -218.1 L-313.1 -220.0 Q-346.85 -250.35 -358.5 -273.0 L-358.8 -273.65 Q-412.2 -363.3 -350.0 -396.1 -346.2 -408.55 -342.4 -410.15 -367.4 -451.5 -332.55 -476.1 -306.75 -514.9 -288.5 -476.1 -280.35 -471.0 -283.9 -464.95 -272.8 -474.15 -260.5 -460.1 -267.8 -468.9 -260.5 -476.1 -219.15 -518.9 -186.5 -476.1 -156.95 -455.6 -185.1 -435.05 -166.95 -447.55 -150.5 -434.1 -159.35 -445.1 -150.5 -456.1 -140.5 -503.3 -130.5 -456.1 -121.5 -454.85 -130.5 -446.1 -118.6 -455.55 -110.45 -446.1 -88.8 -422.0 -110.45 -404.1 -79.4 -421.0 -46.45 -404.1 -76.0 -438.4 -46.45 -456.1 -48.6 -510.95 -12.45 -476.1 19.9 -493.1 -12.45 -382.1 -2.45 -397.8 7.55 -382.1 16.1 -386.15 7.95 -378.45 11.25 -381.35 15.5 -378.15 10.6 -382.1 15.55 -382.1 23.05 -395.55 31.55 -382.1 43.65 -366.0 32.45 -351.25 49.2 -371.85 67.55 -350.1 53.35 -370.85 67.55 -382.1 88.2 -420.5 113.6 -382.1 93.6 -417.45 113.6 -440.1 173.05 -466.05 165.6 -416.1" fill="#9b48bf" fill-rule="evenodd" stroke="none"/>
  </g>
</svg>
