<?xml version="1.0" encoding="UTF-8" standalone="no"?>
<svg xmlns:ffdec="https://www.free-decompiler.com/flash" xmlns:xlink="http://www.w3.org/1999/xlink" ffdec:objectType="shape" height="465.2px" width="778.45px" xmlns="http://www.w3.org/2000/svg">
  <g transform="matrix(1.0, 0.0, 0.0, 1.0, 388.05, 509.1)">
    <path d="M124.95 -466.45 Q122.05 -471.8 125.75 -477.15 148.2 -495.3 155.75 -477.15 171.6 -457.0 155.75 -435.15 168.7 -448.15 179.75 -435.15 178.2 -461.4 195.75 -451.15 215.2 -420.45 195.75 -393.15 224.35 -419.55 243.8 -393.15 224.3 -425.3 243.8 -435.15 251.55 -455.75 260.7 -441.05 258.7 -447.3 263.8 -451.15 278.25 -467.1 285.8 -451.15 308.7 -418.85 291.6 -389.55 316.4 -420.65 350.0 -381.15 420.55 -340.95 367.85 -285.35 351.1 -276.5 338.2 -266.8 312.9 -247.8 298.45 -222.8 284.5 -198.7 278.5 -165.25 275.2 -146.85 273.9 -123.15 196.45 -73.75 133.15 -123.15 84.55 -169.0 20.0 -169.0 -0.95 -169.0 -32.9 -148.95 -45.15 -141.3 -55.4 -132.8 -64.9 -125.0 -68.0 -120.5 -75.85 -108.95 -81.4 -99.15 -247.25 11.35 -374.95 -99.15 L-376.4 -103.5 Q-388.2 -144.5 -372.95 -163.8 -412.0 -236.55 -350.0 -289.1 -330.9 -338.65 -299.65 -296.7 -310.35 -315.95 -294.35 -335.15 -309.95 -382.95 -270.35 -357.15 -265.4 -371.8 -260.4 -368.2 -283.5 -414.85 -254.35 -441.15 -243.4 -488.35 -236.35 -441.15 -222.45 -422.15 -234.6 -408.9 -224.8 -418.3 -219.0 -414.25 -225.55 -427.7 -214.35 -441.15 -211.25 -452.55 -203.2 -444.5 -216.75 -461.8 -200.35 -479.15 -193.3 -502.0 -186.3 -479.15 -173.35 -485.55 -180.3 -464.15 -178.1 -467.1 -176.25 -467.15 -178.9 -472.25 -172.3 -479.15 -162.3 -539.0 -152.3 -479.15 -142.0 -479.8 -152.3 -441.15 -147.4 -455.75 -145.4 -449.1 -148.2 -484.0 -108.3 -479.15 -96.3 -459.15 -108.3 -439.15 -94.3 -454.05 -80.3 -439.15 -69.8 -423.15 -80.3 -407.15 -71.4 -419.45 -65.65 -409.8 -71.6 -423.0 -64.3 -439.15 -51.3 -453.8 -38.3 -439.15 -13.35 -375.45 -38.3 -321.15 7.6 -355.4 63.75 -321.15 -2.0 -434.55 63.75 -485.1 78.8 -517.9 97.75 -485.1 103.75 -475.15 97.75 -465.15 113.45 -484.2 124.95 -466.45" fill="#9b48bf" fill-rule="evenodd" stroke="none"/>
  </g>
</svg>
