<?xml version="1.0" encoding="UTF-8" standalone="no"?>
<svg xmlns:ffdec="https://www.free-decompiler.com/flash" xmlns:xlink="http://www.w3.org/1999/xlink" ffdec:objectType="shape" height="602.3px" width="745.45px" xmlns="http://www.w3.org/2000/svg">
  <g transform="matrix(1.0, 0.0, 0.0, 1.0, 382.6, 500.95)">
    <path d="M79.55 -444.65 Q142.1 -543.2 205.6 -444.65 268.85 -311.35 205.6 -188.6 295.8 -271.5 350.0 -188.6 368.95 -161.8 360.0 -135.0 358.4 -97.05 327.15 -85.55 295.9 -74.1 276.2 -55.45 256.5 -36.85 256.5 -11.0 256.5 3.3 260.0 14.95 L262.4 23.2 Q263.5 27.8 263.5 32.5 263.5 45.25 237.95 75.05 230.85 83.3 213.8 101.35 L46.6 101.35 Q43.95 90.6 38.9 81.45 26.6 59.2 -6.0 33.0 -20.35 21.65 -45.15 11.2 -74.25 -1.0 -104.0 -5.5 -104.55 -5.55 -117.15 -11.85 -133.55 -20.05 -145.7 -25.6 -189.35 -45.5 -208.0 -45.5 -232.05 -45.5 -254.85 -32.6 L-270.7 -23.25 Q-278.95 -18.7 -285.0 -18.0 -351.35 -29.3 -363.3 -68.05 -375.25 -106.85 -375.55 -119.1 -397.8 -188.3 -350.0 -235.85 -331.4 -268.2 -320.0 -235.85 -322.75 -290.9 -272.0 -284.8 -332.35 -389.35 -272.0 -448.65 -245.75 -481.6 -219.45 -452.2 -230.8 -467.05 -216.5 -475.5 -196.55 -518.9 -184.5 -475.5 -133.6 -490.4 -152.5 -454.65 -132.4 -393.65 -152.5 -332.65 -101.45 -340.5 -71.45 -317.65 -118.0 -400.3 -76.45 -475.5 -35.05 -526.4 -0.45 -475.5 17.05 -431.05 -0.45 -386.65 30.9 -416.9 68.05 -394.65 55.35 -410.45 79.55 -444.65" fill="#9b48bf" fill-rule="evenodd" stroke="none"/>
    <path d="M3.5 -421.7 Q2.9 -416.4 -1.75 -406.8 -4.7 -400.65 -12.8 -392.2 -22.95 -381.55 -30.0 -381.55 -53.05 -381.55 -62.5 -401.55 -68.5 -414.2 -68.5 -433.4 L-67.5 -443.25 Q-67.5 -445.1 -68.0 -448.85 L-68.5 -454.3 Q-68.5 -465.65 -63.85 -475.8 -59.3 -485.7 -51.75 -491.45 -43.85 -497.5 -34.95 -497.15 -25.2 -496.75 -16.25 -488.6 -4.05 -480.6 0.55 -463.25 3.5 -452.2 3.5 -435.0 3.95 -425.4 3.5 -421.7 M45.5 -400.05 Q77.35 -396.35 92.7 -367.65 98.55 -356.7 101.25 -344.65 104.25 -339.85 106.35 -334.9 110.0 -326.2 110.0 -319.35 110.0 -307.9 106.4 -299.25 L123.8 -299.25 Q119.75 -306.6 116.3 -315.25 108.3 -335.4 104.6 -361.0 102.0 -379.05 102.0 -395.1 L102.05 -397.85 Q99.5 -415.65 99.5 -427.15 99.5 -434.35 101.5 -443.45 104.05 -455.05 108.85 -464.3 122.2 -489.85 148.0 -489.35 168.55 -486.4 177.35 -473.9 L183.75 -463.1 Q187.55 -456.5 191.75 -452.8 197.7 -444.9 203.75 -432.35 210.25 -418.0 214.0 -410.75 221.85 -395.55 227.05 -370.3 232.0 -346.35 232.0 -326.8 231.45 -303.6 226.25 -281.8 215.95 -238.5 192.75 -238.5 184.65 -238.5 176.8 -244.15 178.0 -239.25 178.0 -234.5 178.0 -213.45 176.5 -199.4 174.45 -180.15 169.0 -164.75 166.85 -158.7 160.95 -149.05 153.7 -137.05 145.0 -127.05 120.65 -99.0 96.5 -99.0 43.25 -99.0 17.8 -143.5 9.3 -158.4 4.95 -176.55 2.0 -189.05 2.0 -196.75 L1.9 -211.85 Q2.0 -218.0 2.95 -222.4 4.65 -230.15 16.0 -253.75 21.1 -264.35 34.65 -273.65 20.1 -277.85 9.65 -292.9 -0.65 -288.0 -15.5 -288.0 -40.65 -288.0 -49.3 -308.8 -53.65 -319.25 -53.0 -330.5 -53.0 -347.6 -47.95 -360.7 -42.25 -375.45 -31.85 -375.6 L-31.75 -375.75 Q-23.75 -376.95 -18.45 -374.25 L-16.95 -373.2 Q-7.9 -373.05 -0.45 -370.45 -0.05 -378.95 6.35 -386.5 14.2 -395.75 28.5 -400.05 L45.5 -400.05 M277.5 -224.75 L277.5 -225.0 292.5 -225.0 Q322.2 -219.15 341.6 -194.75 349.45 -184.85 353.9 -173.8 358.0 -163.5 358.0 -155.3 358.0 -129.75 338.75 -110.4 330.45 -102.0 320.45 -97.25 310.55 -92.5 301.5 -92.5 276.7 -92.5 260.35 -107.0 246.35 -111.45 236.45 -126.7 231.45 -134.4 228.5 -143.45 226.0 -151.1 226.0 -156.0 226.0 -177.65 234.75 -192.85 235.4 -195.75 237.65 -199.8 241.05 -205.8 246.45 -211.15 260.5 -225.0 277.5 -224.75 M14.05 -126.1 Q19.0 -116.2 19.0 -113.0 19.0 -95.95 12.7 -83.05 1.0 -59.0 -29.0 -59.0 -52.35 -59.0 -59.0 -77.1 -62.35 -86.15 -61.0 -95.5 -61.0 -110.4 -54.55 -123.45 -48.2 -136.35 -31.5 -155.5 -24.25 -163.75 -14.8 -159.95 -7.0 -156.8 1.6 -145.95 8.5 -137.2 14.05 -126.1 M131.0 -67.6 Q131.0 -79.85 140.2 -82.45 148.6 -84.8 160.5 -78.65 172.55 -72.4 180.8 -61.25 190.0 -48.7 190.0 -35.25 190.0 -28.45 186.05 -21.7 181.8 -14.55 174.0 -9.0 L173.85 -9.0 Q165.6 -3.0 153.0 -3.0 135.85 -3.0 128.25 -17.8 125.85 -22.4 124.7 -28.0 124.1 -30.8 124.0 -32.75 124.0 -44.0 127.0 -52.45 128.8 -57.55 131.55 -61.15 L131.25 -62.45 Q131.0 -63.7 131.0 -67.6 M-245.7 -463.1 Q-235.75 -464.35 -228.35 -458.4 -226.2 -456.65 -224.55 -454.5 -223.1 -453.05 -221.95 -451.2 -219.9 -447.95 -218.65 -443.3 L-217.25 -437.1 Q-214.05 -441.7 -212.65 -448.0 L-212.05 -451.6 Q-213.95 -453.8 -215.75 -457.25 -217.35 -460.35 -218.6 -464.0 L-219.6 -467.35 Q-219.6 -472.4 -213.4 -474.7 -209.5 -476.15 -209.25 -476.3 -207.4 -477.25 -207.6 -478.75 -207.05 -480.55 -206.65 -485.7 -205.9 -490.25 -203.1 -491.8 -193.95 -496.75 -190.3 -487.8 L-187.8 -479.75 Q-186.4 -475.0 -184.75 -473.3 -183.45 -474.45 -180.45 -475.25 -174.75 -476.75 -160.75 -476.75 -152.8 -476.75 -150.85 -473.75 -150.35 -472.95 -150.35 -469.55 -150.35 -463.05 -154.95 -457.15 L-157.25 -454.5 -158.3 -452.55 Q-152.65 -444.85 -149.35 -430.0 -146.0 -415.0 -146.0 -398.8 -146.0 -386.1 -147.35 -376.65 -149.25 -363.9 -153.0 -354.9 -160.8 -336.0 -163.75 -329.95 L-167.55 -322.65 -162.6 -322.95 -159.25 -325.45 Q-154.4 -328.35 -146.0 -330.05 L-121.5 -330.05 Q-86.0 -327.45 -68.05 -312.6 -54.35 -301.25 -54.35 -287.4 L-54.6 -282.6 Q-48.75 -275.95 -44.2 -267.65 -37.7 -255.75 -34.5 -241.55 -32.0 -230.5 -32.0 -220.75 -32.0 -212.45 -35.0 -202.6 -39.2 -188.9 -48.05 -178.0 -73.15 -147.0 -128.0 -147.0 -184.55 -147.0 -207.75 -189.75 -214.45 -202.05 -218.15 -217.7 -219.5 -210.65 -221.8 -204.75 -225.5 -195.0 -230.95 -190.05 L-224.75 -184.0 Q-206.0 -164.05 -206.0 -141.35 -206.0 -124.3 -213.55 -112.5 -227.9 -90.0 -266.0 -90.0 L-272.45 -90.45 -286.0 -91.25 Q-311.85 -97.55 -321.0 -122.7 -325.05 -133.8 -325.8 -151.05 -342.0 -152.5 -347.0 -180.25 -348.75 -189.85 -349.05 -202.25 L-349.0 -216.25 Q-349.0 -222.5 -347.8 -226.7 -348.5 -234.3 -343.3 -241.75 -337.5 -250.1 -330.5 -247.5 -320.6 -236.65 -315.05 -220.0 -313.45 -215.25 -311.2 -206.65 L-309.85 -203.15 -307.25 -205.1 Q-299.9 -210.05 -290.85 -211.4 L-293.55 -214.5 Q-301.95 -224.5 -308.5 -235.65 -314.0 -245.0 -314.0 -247.1 L-313.95 -248.1 Q-314.35 -249.05 -314.55 -250.3 -314.85 -252.65 -314.55 -255.1 -314.55 -264.5 -307.3 -271.05 -297.55 -279.85 -276.05 -281.75 L-276.05 -282.0 -261.05 -282.0 Q-233.7 -277.4 -223.25 -272.0 L-222.3 -271.45 Q-221.3 -277.3 -218.9 -283.8 -213.15 -299.35 -201.7 -309.1 -197.35 -312.8 -192.35 -315.55 -215.25 -318.55 -235.25 -338.15 -242.85 -345.6 -249.0 -354.5 -253.35 -360.8 -254.0 -362.75 -256.2 -369.15 -259.85 -377.15 L-265.6 -389.8 Q-271.75 -404.05 -271.75 -416.1 -271.75 -423.0 -269.9 -430.2 L-270.0 -432.15 Q-270.0 -445.3 -262.5 -454.0 -255.7 -461.8 -245.7 -463.1" fill="#c674cf" fill-rule="evenodd" stroke="none"/>
  </g>
</svg>
