<?xml version="1.0" encoding="UTF-8" standalone="no"?>
<svg xmlns:ffdec="https://www.free-decompiler.com/flash" xmlns:xlink="http://www.w3.org/1999/xlink" ffdec:objectType="shape" height="299.85px" width="59.75px" xmlns="http://www.w3.org/2000/svg">
  <g transform="matrix(1.0, 0.0, 0.0, 1.0, 136.5, 68.35)">
    <path d="M-93.75 -55.25 Q-80.9 62.1 -76.75 201.5 -82.45 194.35 -86.5 198.35 -89.3 60.35 -98.0 -52.9 -97.25 -61.3 -93.75 -55.25 M-105.75 -60.0 Q-92.25 36.85 -89.25 202.25 -93.9 219.15 -98.7 215.8 -104.85 222.0 -107.75 231.5 -109.0 208.6 -116.25 208.6 -120.8 45.2 -136.5 -66.2 -131.35 -72.8 -128.25 -59.25 -115.45 12.05 -109.2 147.9 -112.35 18.65 -122.25 -65.2 -117.5 -67.85 -115.0 -63.4 -107.45 18.0 -99.45 167.2 -101.75 31.1 -110.25 -59.25 -110.65 -69.65 -105.75 -60.0" fill="#ffffff" fill-opacity="0.5019608" fill-rule="evenodd" stroke="none"/>
  </g>
</svg>
