<?xml version="1.0" encoding="UTF-8" standalone="no"?>
<svg xmlns:ffdec="https://www.free-decompiler.com/flash" xmlns:xlink="http://www.w3.org/1999/xlink" ffdec:objectType="shape" height="267.8px" width="59.75px" xmlns="http://www.w3.org/2000/svg">
  <g transform="matrix(1.0, 0.0, 0.0, 1.0, 136.5, 68.35)">
    <path d="M-105.75 -60.9 Q-92.25 25.6 -89.25 173.35 -93.9 188.4 -98.7 185.45 -104.85 190.95 -107.75 199.45 -109.0 179.0 -116.25 179.0 -120.8 33.05 -136.5 -66.4 -131.35 -72.3 -128.25 -60.2 -115.45 3.45 -109.2 124.8 -112.35 9.4 -122.25 -65.55 -117.5 -67.9 -115.0 -63.9 -107.45 8.8 -99.45 142.05 -101.75 20.5 -110.25 -60.2 -110.65 -69.5 -105.75 -60.9 M-93.75 -56.65 Q-80.9 48.15 -76.75 172.65 -82.45 166.25 -86.5 169.85 -89.3 46.6 -98.0 -54.55 -97.25 -62.05 -93.75 -56.65" fill="#ffffff" fill-opacity="0.101960786" fill-rule="evenodd" stroke="none"/>
  </g>
</svg>
