<?xml version="1.0" encoding="UTF-8" standalone="no"?>
<svg xmlns:ffdec="https://www.free-decompiler.com/flash" xmlns:xlink="http://www.w3.org/1999/xlink" ffdec:objectType="shape" height="503.0px" width="791.7px" xmlns="http://www.w3.org/2000/svg">
  <g transform="matrix(1.0, 0.0, 0.0, 1.0, 399.45, 509.25)">
    <path d="M38.0 -425.85 Q33.95 -440.3 28.0 -442.45 23.15 -444.2 17.45 -437.6 13.1 -432.5 9.5 -424.1 5.5 -420.85 2.15 -415.35 L-0.6 -410.3 -1.9 -412.15 Q-3.75 -414.7 -6.15 -417.05 L-4.9 -419.0 Q3.0 -431.55 3.0 -437.9 3.0 -442.15 1.0 -449.7 -1.3 -458.2 -4.0 -461.6 -11.15 -470.55 -14.45 -473.1 -22.95 -479.65 -38.5 -482.6 L-38.5 -482.35 Q-50.15 -480.9 -53.55 -472.05 -55.0 -468.35 -55.0 -459.15 -55.0 -450.9 -54.65 -448.9 L-54.15 -446.8 Q-53.95 -442.45 -52.95 -438.6 L-68.25 -439.05 -68.6 -444.05 Q-70.2 -454.25 -77.1 -461.1 -96.75 -475.7 -105.75 -467.15 -111.5 -461.65 -111.5 -450.35 L-110.6 -442.7 -109.5 -435.35 -108.2 -431.55 Q-107.75 -424.4 -102.25 -416.8 L-99.8 -413.8 Q-104.75 -404.0 -107.5 -391.0 L-107.5 -396.85 Q-107.5 -410.95 -117.65 -420.0 -126.5 -427.95 -140.0 -429.85 -152.85 -431.65 -162.35 -427.1 -172.5 -422.25 -172.5 -412.6 -172.5 -403.8 -170.15 -396.6 -168.2 -390.7 -164.95 -387.25 L-164.7 -386.45 Q-162.8 -380.35 -159.2 -375.3 -150.7 -363.25 -135.45 -360.55 -130.55 -358.0 -125.5 -358.0 -114.4 -358.0 -109.95 -374.0 L-110.25 -367.35 Q-110.25 -358.9 -107.1 -346.05 -103.35 -330.5 -96.75 -317.5 L-96.15 -316.4 Q-112.8 -315.25 -125.75 -310.45 -125.9 -331.9 -137.7 -349.35 -144.45 -359.35 -154.9 -367.85 -158.15 -372.95 -162.35 -376.55 L-172.3 -385.8 Q-176.75 -390.05 -180.8 -392.2 -190.35 -397.35 -223.0 -403.05 L-237.5 -403.05 Q-255.0 -402.2 -264.4 -387.3 -267.05 -383.15 -268.65 -378.9 -271.95 -375.5 -274.75 -371.3 -287.25 -352.65 -287.25 -325.35 -287.25 -317.0 -283.55 -306.3 -278.7 -292.15 -269.05 -280.75 -241.85 -248.75 -186.5 -248.75 -177.6 -248.75 -169.95 -250.35 L-170.25 -243.1 Q-170.25 -228.15 -165.6 -213.65 -160.35 -197.45 -150.2 -185.0 -125.55 -154.75 -79.5 -154.75 -43.5 -154.75 -24.75 -194.0 -18.6 -206.85 -15.15 -222.3 -12.75 -233.1 -12.75 -237.85 -12.75 -245.3 -17.1 -257.1 -22.05 -270.5 -30.3 -282.3 L-31.15 -283.5 Q-9.8 -288.15 1.95 -305.3 12.25 -293.75 29.0 -293.75 40.9 -293.75 47.25 -320.8 50.45 -334.4 51.25 -348.85 51.25 -364.0 48.0 -377.75 47.65 -387.15 44.65 -402.15 41.3 -418.55 38.0 -425.85 M4.75 -433.45 Q29.75 -462.9 41.75 -427.1 76.7 -343.15 41.75 -265.05 105.75 -352.9 185.75 -265.05 118.35 -372.0 185.75 -463.1 248.85 -555.4 305.8 -463.1 333.25 -418.05 305.8 -365.1 331.55 -397.95 350.0 -365.05 421.1 -299.15 372.5 -208.75 371.3 -202.65 370.25 -196.15 387.05 -161.75 362.5 -144.5 361.75 -134.05 360.5 -124.45 358.1 -106.0 353.3 -91.85 338.45 -48.0 302.5 -48.0 299.4 -48.0 299.15 -48.75 L299.5 -49.5 Q297.6 -57.2 291.55 -69.45 283.15 -86.5 242.55 -44.9 201.9 -3.35 150.05 -6.45 98.2 -9.55 80.5 -30.0 62.8 -50.45 45.25 -41.15 27.7 -31.9 11.35 -19.1 -5.05 -6.35 -32.7 -11.05 -60.35 -15.8 -77.0 -21.0 -108.6 -18.8 -141.6 -36.8 -174.6 -54.8 -178.3 -67.7 L-184.65 -90.6 Q-187.15 -98.9 -211.55 -121.75 -236.0 -144.65 -297.85 -148.75 -359.7 -152.9 -368.9 -200.3 -438.35 -269.6 -350.0 -325.1 -339.7 -374.2 -326.7 -361.75 -337.5 -404.95 -310.35 -451.9 -283.5 -466.75 -268.35 -429.1 -254.55 -411.1 -268.35 -393.1 -226.1 -423.65 -183.8 -396.8 -192.2 -405.5 -178.3 -423.1 -147.3 -446.05 -116.3 -423.1 -127.4 -436.1 -124.3 -451.1 -104.25 -487.9 -76.3 -463.1 -34.4 -508.5 -0.3 -463.1 13.9 -448.3 4.75 -433.45 M-333.15 -287.2 Q-343.25 -278.65 -343.25 -255.6 -343.25 -244.55 -337.05 -233.5 -327.0 -215.75 -305.5 -215.75 -290.05 -215.75 -283.05 -228.55 -278.75 -236.3 -278.75 -244.25 -278.75 -258.6 -288.85 -272.05 -298.3 -284.75 -311.0 -289.55 -324.45 -294.65 -333.15 -287.2 M-320.9 -397.1 L-320.75 -396.05 Q-322.0 -389.8 -322.0 -383.75 -322.0 -378.15 -319.55 -373.65 -316.8 -368.55 -310.0 -363.0 L-297.0 -363.0 Q-287.35 -365.1 -282.7 -379.8 -277.55 -384.05 -272.95 -391.75 -269.45 -397.6 -267.0 -404.3 -265.0 -409.7 -265.0 -411.4 -265.0 -418.4 -266.55 -422.95 -267.9 -427.05 -271.3 -431.1 L-274.75 -434.85 Q-276.6 -438.95 -278.8 -442.65 -287.65 -457.55 -294.3 -453.9 -308.35 -456.75 -315.85 -434.0 -318.55 -425.85 -320.05 -415.45 -321.05 -408.3 -321.05 -405.1 L-320.9 -397.1 M-287.9 -449.8 L-288.45 -449.5 -288.8 -449.9 -287.9 -449.8 M259.0 -108.5 Q262.25 -114.7 262.25 -122.35 262.25 -136.05 255.6 -142.8 249.65 -148.9 241.0 -147.3 232.4 -145.7 226.4 -137.45 219.75 -128.3 219.75 -114.85 218.95 -109.95 220.75 -105.5 224.2 -96.75 237.0 -96.75 252.8 -96.75 259.0 -108.5 M46.25 -160.1 Q46.25 -166.75 43.1 -173.2 42.4 -181.95 38.3 -187.9 32.6 -196.15 17.0 -205.25 -3.2 -201.1 -7.55 -195.2 -9.3 -192.85 -9.45 -189.1 L-9.25 -181.85 Q-9.25 -170.35 -8.8 -167.25 -7.55 -158.6 -2.85 -153.6 -2.1 -148.1 0.3 -142.65 6.85 -127.75 22.0 -127.75 38.2 -127.75 43.8 -143.25 46.65 -151.1 46.25 -160.1 M188.0 -202.65 Q192.5 -216.35 192.5 -227.65 192.5 -248.8 179.45 -265.25 165.4 -282.95 135.25 -296.65 91.6 -313.55 70.35 -280.85 63.25 -269.9 59.55 -254.6 57.0 -244.0 57.0 -237.05 57.0 -234.1 58.15 -230.1 L59.05 -227.45 59.0 -226.25 Q59.0 -218.05 61.2 -207.85 64.7 -191.9 72.55 -179.05 95.9 -140.75 150.5 -140.75 174.25 -140.75 184.55 -163.3 190.25 -175.85 190.25 -188.0 190.25 -190.0 188.0 -202.65 M214.45 -476.1 Q209.85 -466.8 207.05 -456.55 204.5 -447.25 204.5 -441.5 L205.05 -435.45 Q204.0 -427.35 204.0 -418.1 203.4 -396.3 208.75 -374.25 213.75 -353.55 223.0 -342.55 219.05 -338.3 216.4 -332.3 211.75 -321.75 211.75 -306.5 211.75 -301.25 213.2 -292.8 215.2 -281.0 219.0 -271.3 230.3 -242.75 253.0 -242.75 L254.8 -242.75 254.75 -239.0 Q254.1 -232.95 254.3 -226.75 254.6 -214.7 258.75 -205.25 271.65 -175.75 318.0 -175.75 346.25 -175.75 361.95 -212.05 364.9 -215.95 368.5 -222.15 L374.8 -232.3 Q381.25 -241.3 383.55 -253.3 385.05 -261.3 385.05 -274.3 385.05 -295.2 377.5 -316.3 368.6 -341.15 352.9 -353.05 347.4 -357.2 345.95 -363.2 L344.9 -367.9 Q344.15 -370.55 342.55 -372.5 333.8 -380.8 324.65 -375.8 320.9 -373.75 314.9 -366.8 310.5 -361.6 302.15 -344.85 L300.4 -341.25 299.2 -340.35 Q292.2 -334.75 287.25 -329.9 L280.1 -322.1 Q277.65 -327.3 274.95 -331.35 284.85 -342.95 295.55 -361.9 303.8 -376.55 308.8 -389.85 314.05 -403.85 314.05 -412.15 314.05 -428.0 312.35 -437.4 309.65 -452.1 302.05 -461.5 L293.1 -473.7 Q287.95 -480.75 283.3 -484.95 270.2 -496.75 242.5 -502.6 226.5 -500.25 214.45 -476.1" fill="#9b48bf" fill-rule="evenodd" stroke="none"/>
    <path d="M38.0 -425.85 Q41.3 -418.55 44.65 -402.15 47.65 -387.15 48.0 -377.75 51.25 -364.0 51.25 -348.85 50.45 -334.4 47.25 -320.8 40.9 -293.75 29.0 -293.75 12.25 -293.75 1.95 -305.3 -9.8 -288.15 -31.15 -283.5 L-30.3 -282.3 Q-22.05 -270.5 -17.1 -257.1 -12.75 -245.3 -12.75 -237.85 -12.75 -233.1 -15.15 -222.3 -18.6 -206.85 -24.75 -194.0 -43.5 -154.75 -79.5 -154.75 -125.55 -154.75 -150.2 -185.0 -160.35 -197.45 -165.6 -213.65 -170.25 -228.15 -170.25 -243.1 L-169.95 -250.35 Q-177.6 -248.75 -186.5 -248.75 -241.85 -248.75 -269.05 -280.75 -278.7 -292.15 -283.55 -306.3 -287.25 -317.0 -287.25 -325.35 -287.25 -352.65 -274.75 -371.3 -271.95 -375.5 -268.65 -378.9 -267.05 -383.15 -264.4 -387.3 -255.0 -402.2 -237.5 -403.05 L-223.0 -403.05 Q-190.35 -397.35 -180.8 -392.2 -176.75 -390.05 -172.3 -385.8 L-162.35 -376.55 Q-158.15 -372.95 -154.9 -367.85 -144.45 -359.35 -137.7 -349.35 -125.9 -331.9 -125.75 -310.45 -112.8 -315.25 -96.15 -316.4 L-96.75 -317.5 Q-103.35 -330.5 -107.1 -346.05 -110.25 -358.9 -110.25 -367.35 L-109.95 -374.0 Q-114.4 -358.0 -125.5 -358.0 -130.55 -358.0 -135.45 -360.55 -150.7 -363.25 -159.2 -375.3 -162.8 -380.35 -164.7 -386.45 L-164.95 -387.25 Q-168.2 -390.7 -170.15 -396.6 -172.5 -403.8 -172.5 -412.6 -172.5 -422.25 -162.35 -427.1 -152.85 -431.65 -140.0 -429.85 -126.5 -427.95 -117.65 -420.0 -107.5 -410.95 -107.5 -396.85 L-107.5 -391.0 Q-104.75 -404.0 -99.8 -413.8 L-102.25 -416.8 Q-107.75 -424.4 -108.2 -431.55 L-109.5 -435.35 -110.6 -442.7 -111.5 -450.35 Q-111.5 -461.65 -105.75 -467.15 -96.75 -475.7 -77.1 -461.1 -70.2 -454.25 -68.6 -444.05 L-68.25 -439.05 -52.95 -438.6 Q-53.95 -442.45 -54.15 -446.8 L-54.65 -448.9 Q-55.0 -450.9 -55.0 -459.15 -55.0 -468.35 -53.55 -472.05 -50.15 -480.9 -38.5 -482.35 L-38.5 -482.6 Q-22.95 -479.65 -14.45 -473.1 -11.15 -470.55 -4.0 -461.6 -1.3 -458.2 1.0 -449.7 3.0 -442.15 3.0 -437.9 3.0 -431.55 -4.9 -419.0 L-6.15 -417.05 Q-3.75 -414.7 -1.9 -412.15 L-0.6 -410.3 2.15 -415.35 Q5.5 -420.85 9.5 -424.1 13.1 -432.5 17.45 -437.6 23.15 -444.2 28.0 -442.45 33.95 -440.3 38.0 -425.85 M214.45 -476.1 Q226.5 -500.25 242.5 -502.6 270.2 -496.75 283.3 -484.95 287.95 -480.75 293.1 -473.7 L302.05 -461.5 Q309.65 -452.1 312.35 -437.4 314.05 -428.0 314.05 -412.15 314.05 -403.85 308.8 -389.85 303.8 -376.55 295.55 -361.9 284.85 -342.95 274.95 -331.35 277.65 -327.3 280.1 -322.1 L287.25 -329.9 Q292.2 -334.75 299.2 -340.35 L300.4 -341.25 302.15 -344.85 Q310.5 -361.6 314.9 -366.8 320.9 -373.75 324.65 -375.8 333.8 -380.8 342.55 -372.5 344.15 -370.55 344.9 -367.9 L345.95 -363.2 Q347.4 -357.2 352.9 -353.05 368.6 -341.15 377.5 -316.3 385.05 -295.2 385.05 -274.3 385.05 -261.3 383.55 -253.3 381.25 -241.3 374.8 -232.3 L368.5 -222.15 Q364.9 -215.95 361.95 -212.05 346.25 -175.75 318.0 -175.75 271.65 -175.75 258.75 -205.25 254.6 -214.7 254.3 -226.75 254.1 -232.95 254.75 -239.0 L254.8 -242.75 253.0 -242.75 Q230.3 -242.75 219.0 -271.3 215.2 -281.0 213.2 -292.8 211.75 -301.25 211.75 -306.5 211.75 -321.75 216.4 -332.3 219.05 -338.3 223.0 -342.55 213.75 -353.55 208.75 -374.25 203.4 -396.3 204.0 -418.1 204.0 -427.35 205.05 -435.45 L204.5 -441.5 Q204.5 -447.25 207.05 -456.55 209.85 -466.8 214.45 -476.1 M188.0 -202.65 Q190.25 -190.0 190.25 -188.0 190.25 -175.85 184.55 -163.3 174.25 -140.75 150.5 -140.75 95.9 -140.75 72.55 -179.05 64.7 -191.9 61.2 -207.85 59.0 -218.05 59.0 -226.25 L59.05 -227.45 58.15 -230.1 Q57.0 -234.1 57.0 -237.05 57.0 -244.0 59.55 -254.6 63.25 -269.9 70.35 -280.85 91.6 -313.55 135.25 -296.65 165.4 -282.95 179.45 -265.25 192.5 -248.8 192.5 -227.65 192.5 -216.35 188.0 -202.65 M46.25 -160.1 Q46.65 -151.1 43.8 -143.25 38.2 -127.75 22.0 -127.75 6.85 -127.75 0.3 -142.65 -2.1 -148.1 -2.85 -153.6 -7.55 -158.6 -8.8 -167.25 -9.25 -170.35 -9.25 -181.85 L-9.45 -189.1 Q-9.3 -192.85 -7.55 -195.2 -3.2 -201.1 17.0 -205.25 32.6 -196.15 38.3 -187.9 42.4 -181.95 43.1 -173.2 46.25 -166.75 46.25 -160.1 M259.0 -108.5 Q252.8 -96.75 237.0 -96.75 224.2 -96.75 220.75 -105.5 218.95 -109.95 219.75 -114.85 219.75 -128.3 226.4 -137.45 232.4 -145.7 241.0 -147.3 249.65 -148.9 255.6 -142.8 262.25 -136.05 262.25 -122.35 262.25 -114.7 259.0 -108.5 M-287.9 -449.8 L-288.8 -449.9 -288.45 -449.5 -287.9 -449.8 M-320.9 -397.1 L-321.05 -405.1 Q-321.05 -408.3 -320.05 -415.45 -318.55 -425.85 -315.85 -434.0 -308.35 -456.75 -294.3 -453.9 -287.65 -457.55 -278.8 -442.65 -276.6 -438.95 -274.75 -434.85 L-271.3 -431.1 Q-267.9 -427.05 -266.55 -422.95 -265.0 -418.4 -265.0 -411.4 -265.0 -409.7 -267.0 -404.3 -269.45 -397.6 -272.95 -391.75 -277.55 -384.05 -282.7 -379.8 -287.35 -365.1 -297.0 -363.0 L-310.0 -363.0 Q-316.8 -368.55 -319.55 -373.65 -322.0 -378.15 -322.0 -383.75 -322.0 -389.8 -320.75 -396.05 L-320.9 -397.1 M-333.15 -287.2 Q-324.45 -294.65 -311.0 -289.55 -298.3 -284.75 -288.85 -272.05 -278.75 -258.6 -278.75 -244.25 -278.75 -236.3 -283.05 -228.55 -290.05 -215.75 -305.5 -215.75 -327.0 -215.75 -337.05 -233.5 -343.25 -244.55 -343.25 -255.6 -343.25 -278.65 -333.15 -287.2" fill="#c674cf" fill-rule="evenodd" stroke="none"/>
  </g>
</svg>
