<?xml version="1.0" encoding="UTF-8" standalone="no"?>
<svg xmlns:ffdec="https://www.free-decompiler.com/flash" xmlns:xlink="http://www.w3.org/1999/xlink" ffdec:objectType="shape" height="239.85px" width="161.85px" xmlns="http://www.w3.org/2000/svg">
  <g transform="matrix(1.0, 0.0, 0.0, 1.0, 166.3, 73.75)">
    <path d="M-20.7 -9.0 Q-18.2 -9.0 -17.45 -5.15 -14.95 22.95 -14.05 51.5 L-4.45 159.9 Q-12.95 132.45 -12.85 163.45 L-34.1 161.85 -35.7 87.45 -38.6 35.1 Q-34.75 3.55 -36.85 -61.35 -32.3 -68.15 -27.85 10.8 -25.4 -27.5 -29.35 -66.65 -24.2 -74.15 -20.7 -9.0 M-135.3 146.15 Q-141.3 143.55 -143.05 153.1 -150.3 158.3 -157.45 164.75 -161.9 168.9 -165.8 160.4 L-166.3 -73.75 Q-143.7 -7.2 -132.55 136.55 -134.05 140.35 -135.3 146.15" fill="#ffffff" fill-opacity="0.5019608" fill-rule="evenodd" stroke="none"/>
  </g>
</svg>
