<?xml version="1.0" encoding="UTF-8" standalone="no"?>
<svg xmlns:ffdec="https://www.free-decompiler.com/flash" xmlns:xlink="http://www.w3.org/1999/xlink" ffdec:objectType="shape" height="255.35px" width="161.85px" xmlns="http://www.w3.org/2000/svg">
  <g transform="matrix(1.0, 0.0, 0.0, 1.0, 166.3, 73.75)">
    <path d="M-20.7 -4.8 Q-18.2 -4.8 -17.45 -0.7 -14.95 29.2 -14.05 59.55 L-4.45 175.0 Q-12.95 145.75 -12.85 178.75 L-34.1 177.05 -35.7 97.85 -38.6 42.15 Q-34.75 8.55 -36.85 -60.5 -32.3 -67.8 -27.85 16.3 -25.4 -24.5 -29.35 -66.2 -24.2 -74.15 -20.7 -4.8 M-157.45 180.15 Q-161.9 184.55 -165.8 175.5 L-166.3 -73.75 Q-143.7 -2.9 -132.55 150.1 -134.05 154.2 -135.3 160.35 -141.3 157.55 -143.05 167.7 -150.3 173.3 -157.45 180.15" fill="#ffffff" fill-opacity="0.101960786" fill-rule="evenodd" stroke="none"/>
  </g>
</svg>
