<?xml version="1.0" encoding="UTF-8" standalone="no"?>
<svg xmlns:ffdec="https://www.free-decompiler.com/flash" xmlns:xlink="http://www.w3.org/1999/xlink" ffdec:objectType="shape" height="106.15px" width="116.85px" xmlns="http://www.w3.org/2000/svg">
  <g transform="matrix(1.0, 0.0, 0.0, 1.0, 61.5, 47.85)">
    <path d="M55.25 -7.3 L55.3 -7.35 55.3 -7.3 55.25 -7.3" fill="url(#gradient0)" fill-rule="evenodd" stroke="none"/>
    <path d="M54.5 -6.35 L55.25 -7.3 55.3 -7.3 54.5 -6.35" fill="url(#gradient1)" fill-rule="evenodd" stroke="none"/>
    <path d="M-56.05 -7.15 L-55.85 -6.9 -55.8 -6.8 -56.15 -7.25 -56.2 -7.3 -56.15 -7.3 -56.05 -7.15" fill="url(#gradient2)" fill-rule="evenodd" stroke="none"/>
    <path d="M-56.2 -7.35 L-56.15 -7.3 -56.2 -7.3 -56.2 -7.35" fill="url(#gradient3)" fill-rule="evenodd" stroke="none"/>
    <path d="M-34.85 58.25 L-34.9 58.25 -34.8 58.2 -34.85 58.25" fill="url(#gradient4)" fill-rule="evenodd" stroke="none"/>
    <path d="M-34.2 58.0 L-34.85 58.25 -34.8 58.2 -34.2 58.0" fill="url(#gradient5)" fill-rule="evenodd" stroke="none"/>
    <path d="M34.05 58.3 L15.3 55.5 -6.1 47.65 -0.45 45.6 34.05 58.25 34.05 58.3" fill="url(#gradient6)" fill-rule="evenodd" stroke="none"/>
    <path d="M-55.8 -6.8 L-55.75 -6.75 -55.7 -6.7 -32.4 22.35 -41.25 25.0 -61.5 -0.3 -56.15 -7.25 -55.8 -6.8" fill="url(#gradient7)" fill-rule="evenodd" stroke="none"/>
    <path d="M-20.15 -15.2 L-26.75 -13.75 -14.05 -34.75 -0.75 -47.35 -20.15 -15.2" fill="url(#gradient8)" fill-rule="evenodd" stroke="none"/>
    <path d="M-34.9 58.25 L-43.35 55.5 -41.25 25.0 -32.4 22.35 -34.9 58.25" fill="url(#gradient9)" fill-rule="evenodd" stroke="none"/>
    <path d="M-0.45 8.45 L14.45 -9.3 14.55 -9.45 14.9 -9.85 19.4 -15.2 55.3 -7.35 55.25 -7.3 -0.45 8.45" fill="url(#gradient10)" fill-rule="evenodd" stroke="none"/>
    <path d="M-0.45 8.45 L55.25 -7.3 54.5 -6.35 31.6 22.3 -0.45 8.45" fill="url(#gradient11)" fill-rule="evenodd" stroke="none"/>
    <path d="M31.6 22.3 L34.05 58.25 -0.45 8.45 31.6 22.3" fill="url(#gradient12)" fill-rule="evenodd" stroke="none"/>
    <path d="M-0.45 8.45 L-56.05 -7.25 -56.15 -7.3 -56.2 -7.35 -26.75 -13.75 -20.15 -15.2 -0.45 8.45" fill="url(#gradient13)" fill-rule="evenodd" stroke="none"/>
    <path d="M34.05 58.25 L-0.45 45.6 -0.45 8.45 34.05 58.25" fill="url(#gradient14)" fill-rule="evenodd" stroke="none"/>
    <path d="M-6.1 47.65 L-34.2 58.0 -34.8 58.2 -0.45 8.45 -0.45 45.6 -6.1 47.65" fill="url(#gradient15)" fill-rule="evenodd" stroke="none"/>
    <path d="M-32.4 22.35 L-0.45 8.45 -34.8 58.2 -34.9 58.25 -32.4 22.35" fill="url(#gradient16)" fill-rule="evenodd" stroke="none"/>
    <path d="M-56.05 -7.25 L-0.45 8.45 -32.4 22.35 -55.7 -6.7 -55.75 -6.75 -55.8 -6.8 -55.85 -6.9 -56.05 -7.15 -56.05 -7.25" fill="url(#gradient17)" fill-rule="evenodd" stroke="none"/>
    <path d="M19.4 -15.2 L14.9 -9.85 14.55 -9.45 14.45 -9.3 -0.45 8.45 -0.45 -47.85 19.4 -15.2" fill="url(#gradient18)" fill-rule="evenodd" stroke="none"/>
    <path d="M-0.45 -47.85 L-0.45 8.45 -20.15 -15.2 -0.75 -47.35 -0.45 -47.85" fill="url(#gradient19)" fill-rule="evenodd" stroke="none"/>
    <path d="M19.4 -15.2 L14.9 -9.85 14.55 -9.45 14.45 -9.3 -0.45 8.45 -56.05 -7.25 -56.15 -7.3 -56.05 -7.15 M55.25 -7.3 L55.3 -7.35 55.35 -7.35 55.3 -7.3 55.25 -7.3 54.5 -6.35 M-55.7 -6.7 L-32.4 22.35 -0.45 8.45 -20.15 -15.2 -26.75 -13.75 M-56.2 -7.35 L-56.15 -7.3 -56.2 -7.3 -56.25 -7.35 -56.2 -7.35 M-34.85 58.25 L-34.9 58.25 -32.4 22.35 M34.05 58.25 L34.05 58.3 M34.05 58.25 L-0.45 45.6 -6.1 47.65 M31.6 22.3 L-0.45 8.45 -0.45 45.6 M-0.75 -47.35 L-0.45 -47.85 M-0.75 -47.35 L-20.15 -15.2 M-34.8 58.2 L-34.2 58.0 M-34.8 58.2 L-34.9 58.25" fill="none" stroke="#330066" stroke-linecap="round" stroke-linejoin="round" stroke-opacity="0.2509804" stroke-width="0.05"/>
    <path d="M-0.45 8.45 L55.25 -7.3 M-0.45 -47.85 L-0.45 8.45 34.05 58.25 M-32.4 22.35 L-41.25 25.0 M-34.85 58.25 L-34.8 58.2 -0.45 8.45" fill="none" stroke="#330066" stroke-linecap="round" stroke-linejoin="round" stroke-opacity="0.2509804" stroke-width="0.05"/>
    <path d="M55.3 -7.35 L19.4 -15.2 -0.45 -47.85 M-26.75 -13.75 L-56.2 -7.35 M34.05 58.3 L15.3 55.5 -6.1 47.65 -34.2 58.0 M-34.9 58.25 L-43.35 55.5 -41.25 25.0 -61.5 -0.3 -56.15 -7.25 M31.6 22.3 L34.05 58.25 M54.5 -6.35 L31.6 22.3 M-26.75 -13.75 L-14.05 -34.75 -0.75 -47.35" fill="none" stroke="#462060" stroke-linecap="round" stroke-linejoin="round" stroke-width="0.05"/>
    <path d="M-0.45 45.55 L-0.45 8.45 -32.4 22.35 M31.55 22.3 L-0.45 8.45 -20.2 -15.25 M-0.45 8.45 L19.4 -15.2" fill="none" stroke="#330066" stroke-linecap="round" stroke-linejoin="round" stroke-opacity="0.2509804" stroke-width="0.05"/>
  </g>
  <defs>
    <linearGradient gradientTransform="matrix(0.0096, 0.0485, -0.0142, 0.0028, 20.55, -15.2)" gradientUnits="userSpaceOnUse" id="gradient0" spreadMethod="pad" x1="-819.2" x2="819.2">
      <stop offset="0.0" stop-color="#a974ca"/>
      <stop offset="0.0392156862745098" stop-color="#80f2ff"/>
      <stop offset="0.792156862745098" stop-color="#ffffff"/>
      <stop offset="0.8313725490196079" stop-color="#a672c9"/>
      <stop offset="1.0" stop-color="#eaa6dd"/>
    </linearGradient>
    <linearGradient gradientTransform="matrix(0.0055, 0.0205, -0.0147, 0.004, 24.35, -0.65)" gradientUnits="userSpaceOnUse" id="gradient1" spreadMethod="pad" x1="-819.2" x2="819.2">
      <stop offset="0.0" stop-color="#80f2ff"/>
      <stop offset="0.47843137254901963" stop-color="#ffffff"/>
      <stop offset="0.5647058823529412" stop-color="#a672c9"/>
      <stop offset="1.0" stop-color="#eaa6dd"/>
    </linearGradient>
    <linearGradient gradientTransform="matrix(-0.0063, 0.0235, -0.0148, -0.004, -25.25, -2.0)" gradientUnits="userSpaceOnUse" id="gradient2" spreadMethod="pad" x1="-819.2" x2="819.2">
      <stop offset="0.0" stop-color="#80f2ff"/>
      <stop offset="0.47843137254901963" stop-color="#ffffff"/>
      <stop offset="0.5647058823529412" stop-color="#a672c9"/>
      <stop offset="1.0" stop-color="#eaa6dd"/>
    </linearGradient>
    <linearGradient gradientTransform="matrix(-0.0056, 0.0274, -0.0094, -0.0019, -32.3, 6.2)" gradientUnits="userSpaceOnUse" id="gradient3" spreadMethod="pad" x1="-819.2" x2="819.2">
      <stop offset="0.0" stop-color="#80f2ff"/>
      <stop offset="0.47843137254901963" stop-color="#ffffff"/>
      <stop offset="0.5647058823529412" stop-color="#a672c9"/>
      <stop offset="1.0" stop-color="#eaa6dd"/>
    </linearGradient>
    <linearGradient gradientTransform="matrix(0.0105, 0.0182, -0.0263, 0.0152, -11.1, 42.9)" gradientUnits="userSpaceOnUse" id="gradient4" spreadMethod="pad" x1="-819.2" x2="819.2">
      <stop offset="0.0" stop-color="#80f2ff"/>
      <stop offset="0.47843137254901963" stop-color="#ffffff"/>
      <stop offset="0.5647058823529412" stop-color="#a672c9"/>
      <stop offset="1.0" stop-color="#eaa6dd"/>
    </linearGradient>
    <linearGradient gradientTransform="matrix(0.0172, 0.0384, -0.0277, 0.0124, -5.95, 8.7)" gradientUnits="userSpaceOnUse" id="gradient5" spreadMethod="pad" x1="-819.2" x2="819.2">
      <stop offset="0.0" stop-color="#80f2ff"/>
      <stop offset="0.47843137254901963" stop-color="#ffffff"/>
      <stop offset="0.5647058823529412" stop-color="#a672c9"/>
      <stop offset="1.0" stop-color="#eaa6dd"/>
    </linearGradient>
    <linearGradient gradientTransform="matrix(0.0, 0.0245, -0.0078, 0.0, -10.15, 32.8)" gradientUnits="userSpaceOnUse" id="gradient6" spreadMethod="pad" x1="-819.2" x2="819.2">
      <stop offset="0.0" stop-color="#3294bc"/>
      <stop offset="0.788235294117647" stop-color="#85a7d8"/>
      <stop offset="0.8313725490196079" stop-color="#6243ab"/>
      <stop offset="1.0" stop-color="#865cc5"/>
    </linearGradient>
    <linearGradient gradientTransform="matrix(0.0126, 0.0473, -0.019, 0.0051, -74.6, -30.2)" gradientUnits="userSpaceOnUse" id="gradient7" spreadMethod="pad" x1="-819.2" x2="819.2">
      <stop offset="0.0" stop-color="#3294bc"/>
      <stop offset="0.788235294117647" stop-color="#85a7d8"/>
      <stop offset="0.8313725490196079" stop-color="#6243ab"/>
      <stop offset="1.0" stop-color="#865cc5"/>
    </linearGradient>
    <linearGradient gradientTransform="matrix(0.0078, 0.0289, -0.0198, 0.0053, -13.75, -30.55)" gradientUnits="userSpaceOnUse" id="gradient8" spreadMethod="pad" x1="-819.2" x2="819.2">
      <stop offset="0.0" stop-color="#3294bc"/>
      <stop offset="0.788235294117647" stop-color="#85a7d8"/>
      <stop offset="0.8313725490196079" stop-color="#6243ab"/>
      <stop offset="1.0" stop-color="#865cc5"/>
    </linearGradient>
    <linearGradient gradientTransform="matrix(-0.0151, 0.1031, -0.0217, -0.0031, -35.15, -24.5)" gradientUnits="userSpaceOnUse" id="gradient9" spreadMethod="pad" x1="-819.2" x2="819.2">
      <stop offset="0.1450980392156863" stop-color="#4270d7"/>
      <stop offset="0.6313725490196078" stop-color="#a0afe7"/>
      <stop offset="0.9333333333333333" stop-color="#525aa5"/>
      <stop offset="1.0" stop-color="#a268db"/>
    </linearGradient>
    <linearGradient gradientTransform="matrix(0.0166, 0.0837, -0.0142, 0.0028, 16.85, 2.95)" gradientUnits="userSpaceOnUse" id="gradient10" spreadMethod="pad" x1="-819.2" x2="819.2">
      <stop offset="0.0" stop-color="#8bb9fc"/>
      <stop offset="0.3607843137254902" stop-color="#c9defd"/>
      <stop offset="0.47843137254901963" stop-color="#ffffff"/>
      <stop offset="0.6274509803921569" stop-color="#556bc4"/>
      <stop offset="1.0" stop-color="#ad9afe"/>
    </linearGradient>
    <linearGradient gradientTransform="matrix(0.0055, 0.0205, -0.0147, 0.004, 23.95, -2.55)" gradientUnits="userSpaceOnUse" id="gradient11" spreadMethod="pad" x1="-819.2" x2="819.2">
      <stop offset="0.0" stop-color="#8bb9fc"/>
      <stop offset="0.3607843137254902" stop-color="#c9defd"/>
      <stop offset="0.47843137254901963" stop-color="#ffffff"/>
      <stop offset="0.6274509803921569" stop-color="#8d95d8"/>
      <stop offset="1.0" stop-color="#9a82fd"/>
    </linearGradient>
    <linearGradient gradientTransform="matrix(-0.0105, 0.039, -0.0294, -0.0079, 19.3, 56.85)" gradientUnits="userSpaceOnUse" id="gradient12" spreadMethod="pad" x1="-819.2" x2="819.2">
      <stop offset="0.0" stop-color="#8bb9fc"/>
      <stop offset="0.3607843137254902" stop-color="#c9defd"/>
      <stop offset="0.47843137254901963" stop-color="#ffffff"/>
      <stop offset="0.6274509803921569" stop-color="#556bc4"/>
      <stop offset="1.0" stop-color="#ad9afe"/>
    </linearGradient>
    <linearGradient gradientTransform="matrix(-0.0056, 0.0274, -0.0094, -0.0019, -32.3, 6.2)" gradientUnits="userSpaceOnUse" id="gradient13" spreadMethod="pad" x1="-819.2" x2="819.2">
      <stop offset="0.0" stop-color="#8bb9fc"/>
      <stop offset="0.3607843137254902" stop-color="#c9defd"/>
      <stop offset="0.47843137254901963" stop-color="#ffffff"/>
      <stop offset="0.6274509803921569" stop-color="#556bc4"/>
      <stop offset="1.0" stop-color="#ad9afe"/>
    </linearGradient>
    <linearGradient gradientTransform="matrix(-0.0104, 0.039, -0.0294, -0.0079, -61.5, -13.05)" gradientUnits="userSpaceOnUse" id="gradient14" spreadMethod="pad" x1="-819.2" x2="819.2">
      <stop offset="0.0" stop-color="#8bb9fc"/>
      <stop offset="0.3607843137254902" stop-color="#c9defd"/>
      <stop offset="0.47843137254901963" stop-color="#ffffff"/>
      <stop offset="0.6274509803921569" stop-color="#8d95d8"/>
      <stop offset="1.0" stop-color="#9a82fd"/>
    </linearGradient>
    <linearGradient gradientTransform="matrix(-0.0081, 0.0803, -0.0302, -0.0031, 3.35, -34.7)" gradientUnits="userSpaceOnUse" id="gradient15" spreadMethod="pad" x1="-819.2" x2="819.2">
      <stop offset="0.0" stop-color="#8bb9fc"/>
      <stop offset="0.3607843137254902" stop-color="#c9defd"/>
      <stop offset="0.47843137254901963" stop-color="#ffffff"/>
      <stop offset="0.6274509803921569" stop-color="#8d95d8"/>
      <stop offset="1.0" stop-color="#9a82fd"/>
    </linearGradient>
    <linearGradient gradientTransform="matrix(0.0105, 0.0182, -0.0263, 0.0152, -11.1, 42.9)" gradientUnits="userSpaceOnUse" id="gradient16" spreadMethod="pad" x1="-819.2" x2="819.2">
      <stop offset="0.0" stop-color="#8bb9fc"/>
      <stop offset="0.3607843137254902" stop-color="#c9defd"/>
      <stop offset="0.47843137254901963" stop-color="#ffffff"/>
      <stop offset="0.6274509803921569" stop-color="#556bc4"/>
      <stop offset="1.0" stop-color="#ad9afe"/>
    </linearGradient>
    <linearGradient gradientTransform="matrix(-0.0106, 0.0401, -0.0175, -0.0046, -22.65, -5.3)" gradientUnits="userSpaceOnUse" id="gradient17" spreadMethod="pad" x1="-819.2" x2="819.2">
      <stop offset="0.0" stop-color="#8bb9fc"/>
      <stop offset="0.3607843137254902" stop-color="#c9defd"/>
      <stop offset="0.47843137254901963" stop-color="#ffffff"/>
      <stop offset="0.6274509803921569" stop-color="#8d95d8"/>
      <stop offset="1.0" stop-color="#9a82fd"/>
    </linearGradient>
    <linearGradient gradientTransform="matrix(0.0287, 0.1001, -0.033, 0.0095, 11.45, -3.1)" gradientUnits="userSpaceOnUse" id="gradient18" spreadMethod="pad" x1="-819.2" x2="819.2">
      <stop offset="0.0" stop-color="#8bb9fc"/>
      <stop offset="0.2901960784313726" stop-color="#c9defd"/>
      <stop offset="0.5568627450980392" stop-color="#ffffff"/>
      <stop offset="0.7098039215686275" stop-color="#556bc4"/>
      <stop offset="1.0" stop-color="#ad9afe"/>
    </linearGradient>
    <linearGradient gradientTransform="matrix(-0.0036, 0.0472, -0.0343, -0.0026, -1.75, 10.0)" gradientUnits="userSpaceOnUse" id="gradient19" spreadMethod="pad" x1="-819.2" x2="819.2">
      <stop offset="0.0" stop-color="#8bb9fc"/>
      <stop offset="0.3215686274509804" stop-color="#c9defd"/>
      <stop offset="0.47843137254901963" stop-color="#ffffff"/>
      <stop offset="0.6274509803921569" stop-color="#556bc4"/>
      <stop offset="1.0" stop-color="#ad9afe"/>
    </linearGradient>
  </defs>
</svg>
