<?xml version="1.0" encoding="UTF-8" standalone="no"?>
<svg xmlns:ffdec="https://www.free-decompiler.com/flash" xmlns:xlink="http://www.w3.org/1999/xlink" ffdec:objectType="shape" height="208.55px" width="1334.85px" xmlns="http://www.w3.org/2000/svg">
  <g transform="matrix(1.0, 0.0, 0.0, 1.0, 661.55, 273.0)">
    <path d="M661.2 -273.0 Q673.9 -267.65 670.95 -256.8 L672.25 -245.65 Q673.05 -236.95 673.3 -228.25 L666.65 -211.8 Q663.6 -204.4 658.7 -202.45 L657.95 -202.1 657.5 -201.85 657.0 -201.6 656.6 -201.35 656.5 -201.25 655.85 -200.8 655.75 -200.7 655.25 -200.25 654.5 -199.45 Q653.0 -197.65 652.25 -195.05 650.75 -189.6 635.0 -176.9 619.25 -164.25 614.1 -178.3 608.9 -192.4 606.1 -190.65 601.7 -184.55 591.7 -176.15 580.5 -166.8 571.65 -162.95 537.5 -147.9 480.35 -133.75 425.3 -120.1 402.45 -120.1 390.8 -120.1 382.75 -125.8 377.5 -129.5 371.4 -138.25 364.65 -147.9 361.5 -150.75 355.15 -156.45 346.25 -156.45 344.2 -156.45 336.6 -149.5 326.15 -139.9 317.85 -134.25 284.95 -112.1 237.5 -112.1 230.45 -112.1 226.2 -115.7 223.3 -118.05 219.2 -125.05 214.0 -133.85 210.45 -138.3 203.75 -146.65 193.9 -153.4 133.9 -194.75 -72.0 -194.75 -128.05 -194.75 -189.25 -189.45 -278.1 -181.8 -310.7 -166.3 -328.05 -158.1 -361.6 -150.0 L-387.4 -144.1 -408.2 -139.1 Q-437.9 -130.8 -454.3 -105.2 -460.0 -96.35 -465.25 -83.65 -470.45 -70.0 -472.8 -64.45 -497.3 -71.75 -514.25 -90.7 -525.15 -102.9 -537.6 -127.1 L-546.85 -144.65 Q-552.0 -153.8 -556.65 -159.35 -568.4 -173.3 -585.2 -173.3 -602.15 -173.3 -610.8 -169.55 -613.2 -168.25 -615.65 -167.0 -617.75 -165.85 -619.45 -165.85 -637.95 -165.85 -651.45 -189.15 L-654.25 -194.35 -657.25 -200.9 -660.6 -210.65 -660.7 -210.9 -661.4 -210.9 -661.55 -221.2 Q-661.6 -236.65 -650.15 -245.65 -636.8 -256.2 -607.75 -257.9 -553.9 -261.05 -457.4 -259.25 -360.8 -257.5 -250.65 -261.35 -5.8 -272.05 213.5 -269.25 432.8 -266.45 552.55 -270.4 606.85 -272.25 661.2 -273.0" fill="#462060" fill-rule="evenodd" stroke="none"/>
  </g>
</svg>
