<?xml version="1.0" encoding="UTF-8" standalone="no"?>
<svg xmlns:ffdec="https://www.free-decompiler.com/flash" xmlns:xlink="http://www.w3.org/1999/xlink" ffdec:objectType="shape" height="1341.35px" width="767.9px" xmlns="http://www.w3.org/2000/svg">
  <g transform="matrix(1.0, 0.0, 0.0, 1.0, 352.05, 1156.35)">
    <path d="M138.0 -1106.45 L139.3 -1106.7 137.45 -1106.45 138.0 -1106.45 M-201.0 -1076.45 L-201.1 -1076.45 -201.0 -1075.55 -201.0 -1076.45 M-20.0 -1099.45 L-21.5 -1094.9 -21.6 -1094.5 Q-19.55 -1096.35 -19.0 -1097.45 L-19.5 -1098.05 Q-20.0 -1098.8 -20.0 -1099.45 M-345.05 -1069.6 L-346.1 -1072.75 Q-358.5 -1112.1 -345.05 -1145.8 -145.35 -1124.95 29.1 -1131.45 204.6 -1137.95 352.8 -1155.8 367.35 -1157.15 376.9 -1155.05 386.35 -1152.9 392.6 -1149.35 398.8 -1145.85 402.25 -1140.8 L404.1 -1137.95 404.1 -1119.05 Q400.65 -1073.95 389.5 -1062.85 378.25 -1051.8 342.4 -1064.85 282.7 -1060.3 235.8 -994.85 127.35 -843.4 74.4 -617.45 62.5 -566.7 42.45 -524.0 37.1 -512.55 30.15 -503.8 23.95 -496.05 17.1 -490.15 9.9 -484.05 2.25 -480.0 -10.55 -544.1 -28.0 -605.15 -51.2 -686.25 -72.95 -768.95 -81.8 -802.5 -102.45 -820.0 -117.45 -832.65 -133.9 -838.65 -141.3 -841.5 -148.95 -841.8 -156.7 -842.1 -163.65 -836.7 -168.05 -833.45 -171.5 -827.7 -175.25 -821.5 -177.7 -813.9 L-180.1 -805.3 Q-181.75 -798.75 -182.8 -792.05 -220.45 -823.5 -228.3 -891.95 -240.0 -993.35 -300.55 -1039.85 -322.35 -1056.55 -345.05 -1069.6 M66.95 -1106.4 L62.1 -1105.45 70.0 -1105.45 70.0 -1105.55 Q69.9 -1106.95 66.95 -1106.4 M379.5 -1112.4 Q378.0 -1108.4 378.0 -1107.45 380.35 -1110.05 379.9 -1113.45 L379.5 -1112.4 M287.45 -159.85 L287.5 -159.95 287.45 -159.85 286.5 -158.3 286.5 -157.25 Q286.7 -158.55 287.45 -159.85 M233.1 -73.7 Q220.85 -57.2 210.15 -38.25 178.5 -42.7 155.45 -6.2 133.9 36.95 130.0 52.4 126.1 67.85 126.4 102.75 126.65 137.65 134.0 163.1 141.35 188.55 133.8 184.45 93.7 162.75 51.75 154.75 47.35 153.85 45.0 147.65 32.15 113.15 18.45 81.1 -11.65 10.8 -62.9 -24.1 -73.05 -31.0 -81.5 -42.6 -70.0 -55.8 -72.1 -74.35 -76.6 -113.95 -101.05 -134.55 -163.1 -186.95 -232.7 -173.45 -228.95 -156.45 -237.2 -157.85 -310.45 -158.25 -333.45 -187.4 -342.75 -199.1 -346.9 -214.3 -353.05 -236.85 -347.95 -266.95 -312.65 -287.4 -226.95 -287.7 19.0 -234.1 174.55 -235.95 330.05 -237.8 392.25 -236.75 400.25 -236.65 406.55 -228.2 411.0 -222.25 414.2 -214.55 420.85 -163.45 400.45 -133.4 L394.9 -126.0 Q377.4 -104.9 360.8 -114.7 341.55 -126.0 335.65 -128.55 306.9 -140.7 280.4 -121.6 254.65 -103.0 233.1 -73.7" fill="#462060" fill-rule="evenodd" stroke="none"/>
  </g>
</svg>
