<?xml version="1.0" encoding="UTF-8" standalone="no"?>
<svg xmlns:ffdec="https://www.free-decompiler.com/flash" xmlns:xlink="http://www.w3.org/1999/xlink" ffdec:objectType="shape" height="1672.75px" width="1332.5px" xmlns="http://www.w3.org/2000/svg">
  <g transform="matrix(1.0, 0.0, 0.0, 1.0, 598.25, 1343.15)">
    <path d="M403.55 -1246.1 Q446.35 -1264.7 480.7 -1276.85 571.9 -1309.05 669.55 -1318.35 669.55 -1319.35 680.15 -1319.35 L691.65 -1318.6 Q693.3 -1319.35 695.7 -1319.35 702.25 -1319.35 709.4 -1284.3 715.7 -1253.15 722.45 -1194.2 729.6 -1131.6 734.25 -1068.55 734.2 -1035.75 721.25 -1005.45 715.9 -992.9 705.95 -974.7 L685.45 -938.3 Q672.45 -914.95 655.9 -860.55 647.7 -833.55 641.55 -811.35 618.1 -811.35 592.7 -820.8 566.8 -830.5 561.95 -841.7 557.0 -855.15 553.75 -861.9 548.05 -873.4 538.7 -881.95 535.05 -885.2 527.05 -889.25 517.35 -893.9 512.45 -896.45 494.1 -906.1 490.45 -917.35 489.3 -921.0 486.45 -935.9 484.0 -948.7 480.85 -956.1 479.7 -958.7 473.3 -976.3 468.75 -988.8 463.85 -996.75 449.4 -1020.25 414.25 -1034.85 403.0 -1039.5 396.8 -1044.05 391.2 -1048.1 387.25 -1049.5 379.8 -1052.15 358.3 -1056.05 336.15 -1060.0 282.7 -1068.35 277.7 -1069.1 278.7 -1074.8 L279.85 -1080.3 Q280.4 -1083.85 278.45 -1092.6 276.45 -1101.35 193.45 -1098.55 110.45 -1095.7 47.4 -1073.6 -15.65 -1051.5 -41.95 -1034.05 -64.35 -1019.15 -73.6 -1006.95 -76.7 -1002.75 -82.7 -992.6 -87.75 -984.05 -91.9 -979.3 -104.75 -964.95 -136.1 -955.15 -168.25 -945.35 -194.35 -932.35 -222.2 -918.5 -231.9 -906.5 -331.75 -781.5 -331.75 -673.85 -331.75 -666.45 -328.15 -642.15 -324.6 -617.8 -324.6 -614.8 -324.6 -608.65 -329.55 -604.45 -333.6 -601.0 -342.15 -598.0 L-358.9 -592.8 Q-369.8 -589.45 -376.5 -586.15 L-406.2 -571.0 Q-433.35 -557.45 -438.4 -557.45 -458.3 -557.45 -489.95 -635.1 -512.7 -690.85 -532.9 -762.25 -546.2 -809.2 -551.65 -832.95 -557.15 -857.2 -558.55 -874.7 -559.55 -887.7 -558.85 -911.3 -557.85 -947.05 -557.8 -966.75 -557.85 -994.75 -578.05 -1030.5 -583.05 -1039.4 -591.95 -1053.75 -598.3 -1064.5 -598.25 -1068.55 -598.25 -1074.6 -592.3 -1116.0 -586.4 -1157.45 -586.4 -1168.55 -586.4 -1182.05 -591.3 -1205.25 L-593.5 -1215.0 -597.35 -1230.35 Q-598.65 -1238.3 -595.65 -1243.8 -592.7 -1249.35 -585.35 -1251.4 -542.15 -1269.25 -493.75 -1269.25 -431.0 -1269.25 -399.55 -1254.35 -388.95 -1249.35 -383.35 -1243.2 -379.35 -1238.85 -379.3 -1236.2 -379.35 -1227.75 -385.35 -1220.6 L-386.55 -1219.15 Q-388.8 -1216.5 -389.55 -1215.05 -391.45 -1211.6 -391.45 -1207.3 -391.45 -1195.65 -384.75 -1186.6 -382.3 -1183.35 -379.0 -1180.25 -367.35 -1169.45 -344.85 -1160.8 -263.15 -1129.5 -47.8 -1129.5 70.35 -1129.5 169.75 -1155.0 210.95 -1165.6 254.05 -1181.75 286.2 -1193.85 330.05 -1213.25 L403.55 -1246.1 M571.85 -1275.8 L571.35 -1276.0 Q571.0 -1275.9 570.9 -1275.05 L571.85 -1275.8 M98.95 -1343.15 Q134.85 -1343.15 149.65 -1337.35 152.95 -1335.45 153.15 -1333.7 L153.1 -1329.9 152.9 -1327.75 151.3 -1316.95 149.3 -1302.05 146.15 -1276.4 Q144.1 -1258.4 139.9 -1248.65 96.75 -1225.3 53.7 -1220.8 22.8 -1223.35 -8.0 -1239.9 -17.1 -1250.55 -24.05 -1267.1 L-25.45 -1270.6 Q-30.95 -1284.4 -34.25 -1300.6 -36.9 -1313.65 -36.9 -1319.35 L-36.65 -1330.3 -35.45 -1330.8 Q-32.4 -1332.1 -29.95 -1332.7 -26.55 -1333.7 -20.05 -1334.45 L60.6 -1341.7 81.3 -1342.85 98.95 -1343.15 M-203.6 -197.85 L-204.55 -197.65 -203.75 -197.65 -203.6 -197.85 M-107.3 -200.0 L-107.05 -199.75 -106.3 -200.6 Q-107.85 -200.6 -107.3 -200.0 M-542.15 -1228.05 L-540.7 -1228.75 Q-540.05 -1229.1 -539.7 -1230.25 L-542.15 -1228.05 -542.6 -1227.9 -545.35 -1225.8 -545.35 -1224.8 -542.15 -1228.05 M585.15 -264.25 L584.25 -264.25 584.25 -259.35 585.35 -259.35 585.15 -264.25 M264.4 -196.9 Q262.6 -184.35 270.9 -173.0 274.25 -168.55 272.65 -163.7 244.75 -165.8 217.7 -161.25 116.75 -144.7 37.0 -93.75 -44.15 -41.85 -129.0 -55.4 L-168.45 -61.8 Q-188.4 -65.3 -208.5 -62.55 -225.05 -60.15 -236.2 -50.6 -271.5 -20.4 -259.7 20.2 -249.85 54.1 -250.2 86.1 -250.45 104.7 -261.85 124.15 -285.1 163.7 -275.55 206.0 -262.7 263.6 -241.1 319.2 -239.15 324.4 -242.8 329.6 -266.6 315.4 -284.35 297.1 -322.7 257.6 -365.3 221.45 -477.5 126.3 -525.05 -0.55 -554.2 -78.45 -578.1 -157.55 -580.8 -166.4 -582.55 -175.3 -587.25 -198.8 -585.65 -222.75 -584.55 -239.2 -566.75 -247.55 -520.35 -269.25 -461.8 -266.4 -222.65 -254.65 13.2 -287.1 116.25 -301.4 216.35 -324.6 288.05 -341.1 359.45 -358.4 410.25 -370.35 463.55 -372.85 517.6 -375.15 566.35 -357.6 623.35 -337.05 605.85 -293.9 597.45 -273.25 587.55 -252.95 580.7 -238.9 573.1 -225.05 553.25 -188.85 551.85 -153.05 550.4 -117.3 552.5 -78.25 554.55 -39.2 573.35 -3.8 551.95 -2.9 531.4 -7.85 491.2 -17.45 458.8 -38.15 383.75 -86.05 357.15 -157.9 371.3 -174.6 378.2 -193.5 385.25 -212.8 360.7 -224.55 312.8 -247.5 273.3 -212.55 265.55 -205.7 264.4 -196.9 M45.95 -237.15 Q45.6 -236.25 45.6 -235.4 L46.1 -236.8 45.95 -237.15 M99.2 -1115.7 L98.75 -1114.8 99.75 -1114.8 99.2 -1115.7 M-263.25 -194.7 L-263.0 -194.9 -263.25 -195.65 -263.25 -194.7" fill="#462060" fill-rule="evenodd" stroke="none"/>
  </g>
</svg>
