<?xml version="1.0" encoding="UTF-8" standalone="no"?>
<svg xmlns:ffdec="https://www.free-decompiler.com/flash" xmlns:xlink="http://www.w3.org/1999/xlink" ffdec:objectType="shape" height="873.3px" width="1336.0px" xmlns="http://www.w3.org/2000/svg">
  <g transform="matrix(1.0, 0.0, 0.0, 1.0, 667.85, 483.85)">
    <path d="M-250.4 -189.25 L-249.95 -187.3 -249.95 -188.35 -250.4 -189.25 M-78.5 -259.9 L-79.9 -259.9 Q-79.9 -258.55 -78.9 -259.0 -77.05 -259.85 -76.1 -259.9 L-78.5 -259.9 M316.0 -240.0 L317.05 -239.7 316.9 -240.0 316.0 -240.0 M46.85 -472.1 Q102.15 -481.9 138.7 -483.8 156.55 -483.95 174.4 -483.3 210.4 -482.1 245.7 -474.6 248.2 -474.2 250.6 -472.8 252.7 -471.6 254.65 -469.6 264.35 -459.4 261.8 -439.65 L260.75 -433.1 259.1 -425.9 Q239.35 -394.75 214.25 -398.55 189.1 -402.4 168.6 -394.85 148.05 -387.3 112.7 -369.8 L69.6 -342.45 Q41.4 -354.5 22.25 -368.8 3.05 -383.15 -17.35 -373.85 -44.35 -389.75 -75.3 -382.3 -92.4 -378.2 -98.15 -380.5 -102.85 -382.4 -100.05 -388.55 -93.8 -402.2 -81.0 -413.85 -8.35 -462.35 46.85 -472.1 M668.15 -263.55 Q661.35 -245.95 657.45 -228.0 652.6 -205.65 652.25 -182.7 651.6 -142.85 660.1 -103.55 668.55 -64.25 642.2 -31.3 617.55 -0.4 600.55 34.85 583.1 71.15 573.4 109.9 L571.2 118.65 Q498.7 103.8 445.3 54.95 440.0 50.1 438.4 43.55 431.25 13.75 415.9 -13.15 410.5 -22.5 402.8 -30.5 392.6 -41.05 380.1 -49.4 L377.2 -51.3 Q385.75 -63.95 399.65 -71.55 389.85 -106.45 346.85 -116.15 337.85 -118.1 329.05 -120.45 312.5 -124.6 316.1 -143.2 317.75 -152.0 313.85 -160.4 308.9 -170.95 299.25 -178.25 278.1 -194.2 251.4 -201.1 160.5 -225.0 68.2 -208.2 -94.75 -178.75 -238.6 -100.25 -266.0 -85.35 -299.85 -94.5 -374.3 -114.4 -392.2 -47.45 -401.95 -10.8 -381.85 25.95 -370.25 47.1 -377.0 70.45 -382.9 90.7 -384.45 111.3 -387.8 155.3 -386.8 199.6 -385.8 241.25 -393.2 282.1 -396.1 298.1 -402.45 313.2 -408.45 327.5 -417.45 340.1 -440.15 372.05 -477.1 389.45 -487.9 290.9 -514.8 194.1 -524.8 158.2 -540.6 124.0 -587.45 22.45 -625.9 -81.3 -628.55 -88.55 -634.5 -93.85 -644.55 -102.7 -649.5 -114.2 -658.0 -134.05 -662.55 -154.75 L-662.9 -156.4 Q-667.05 -175.8 -667.75 -195.9 -668.95 -230.5 -657.7 -263.7 -351.45 -284.95 -43.35 -279.3 L114.9 -276.35 Q321.2 -272.35 527.5 -273.9 558.75 -274.1 590.05 -272.35 629.45 -270.3 668.15 -263.55" fill="#462060" fill-rule="evenodd" stroke="none"/>
  </g>
</svg>
