<?xml version="1.0" encoding="UTF-8" standalone="no"?>
<svg xmlns:ffdec="https://www.free-decompiler.com/flash" xmlns:xlink="http://www.w3.org/1999/xlink" ffdec:objectType="shape" height="1375.3px" width="946.35px" xmlns="http://www.w3.org/2000/svg">
  <g transform="matrix(1.0, 0.0, 0.0, 1.0, 469.6, 1218.4)">
    <path d="M93.95 -1168.5 L95.25 -1168.75 93.4 -1168.5 93.95 -1168.5 M-245.05 -1138.5 L-245.15 -1138.5 -245.05 -1137.6 -245.05 -1138.5 M-64.05 -1161.5 L-65.55 -1156.95 -65.65 -1156.55 Q-63.6 -1158.4 -63.05 -1159.5 L-63.55 -1160.1 Q-64.05 -1160.85 -64.05 -1161.5 M-389.1 -1131.65 L-390.15 -1134.8 Q-402.55 -1174.15 -389.1 -1207.85 -189.4 -1187.0 -14.95 -1193.5 160.55 -1200.0 308.75 -1217.85 323.3 -1219.2 332.85 -1217.1 342.3 -1214.95 348.55 -1211.4 354.75 -1207.9 358.2 -1202.85 L360.05 -1200.0 360.05 -1181.1 Q356.6 -1136.0 345.45 -1124.9 334.2 -1113.85 298.35 -1126.9 238.65 -1122.35 191.75 -1056.9 83.3 -905.45 30.35 -679.5 18.45 -628.75 -1.6 -586.05 -6.95 -574.6 -13.9 -565.85 -20.1 -558.1 -26.95 -552.2 -34.15 -546.1 -41.8 -542.05 -54.6 -606.15 -72.05 -667.2 -95.25 -748.3 -117.0 -831.0 -125.85 -864.55 -146.5 -882.05 -161.5 -894.7 -177.95 -900.7 -185.35 -903.55 -193.0 -903.85 -200.75 -904.15 -207.7 -898.75 -212.1 -895.5 -215.55 -889.75 -219.3 -883.55 -221.75 -875.95 L-224.15 -867.35 Q-225.8 -860.8 -226.85 -854.1 -264.5 -885.55 -272.35 -954.0 -284.05 -1055.4 -344.6 -1101.9 -366.4 -1118.6 -389.1 -1131.65 M22.9 -1168.45 L18.05 -1167.5 25.95 -1167.5 25.95 -1167.6 Q25.85 -1169.0 22.9 -1168.45 M-461.8 -204.15 L-461.55 -202.15 -461.55 -204.0 -461.8 -204.15 M200.4 -172.2 L201.0 -171.65 204.3 -172.2 200.4 -172.2 M23.25 -202.6 Q75.65 -202.6 148.05 -214.7 203.2 -223.9 275.85 -241.25 316.25 -250.95 382.5 -267.85 431.4 -279.95 443.8 -279.95 461.95 -279.95 469.8 -273.7 472.5 -271.5 473.7 -268.95 477.55 -268.75 476.55 -264.35 476.55 -261.8 469.15 -249.9 L468.6 -248.9 Q467.45 -238.9 450.4 -219.6 441.95 -210.1 429.75 -198.4 417.4 -186.55 402.95 -174.25 391.0 -164.05 390.6 -164.05 388.15 -164.05 386.35 -165.1 L385.9 -169.05 Q385.65 -171.75 385.1 -173.45 383.7 -177.95 379.65 -178.45 L378.05 -176.7 Q368.3 -165.9 364.9 -161.75 344.3 -136.65 336.6 -110.2 334.55 -103.2 333.45 -92.4 L331.4 -74.75 Q327.75 -53.65 312.05 -37.1 301.2 -25.7 285.3 -0.85 268.85 24.7 258.05 36.55 248.65 46.8 212.0 75.15 211.4 76.65 210.55 77.35 209.45 78.25 206.5 79.4 173.0 105.15 170.3 105.15 167.25 105.15 166.35 103.35 166.05 102.75 166.05 101.25 166.05 95.05 171.05 78.65 L172.15 75.1 Q172.25 62.15 172.7 47.45 172.15 44.55 172.1 40.3 172.5 21.7 172.1 11.15 171.35 -8.05 166.05 -18.05 159.1 -31.3 143.3 -31.3 119.2 -31.3 106.6 0.3 100.2 16.15 98.65 33.1 98.65 43.95 104.65 64.85 110.1 83.6 115.05 93.45 119.35 101.9 135.0 129.4 147.5 151.3 147.5 153.1 L147.5 155.9 Q147.25 156.9 145.6 156.9 107.8 156.9 63.7 136.25 51.8 130.7 34.85 121.25 21.05 113.5 18.0 112.55 3.45 107.95 -3.45 101.75 -9.05 96.75 -10.5 89.6 -10.95 87.45 -11.35 76.6 -11.65 68.4 -14.3 63.2 -22.0 45.5 -26.7 36.4 -35.0 20.35 -47.05 9.55 -54.4 2.85 -91.2 -19.75 -123.8 -39.85 -123.8 -42.5 -123.8 -45.25 -120.8 -47.2 L-114.3 -50.55 Q-109.85 -52.7 -107.75 -55.1 -104.75 -58.45 -104.75 -63.5 -104.75 -82.6 -128.45 -98.9 -147.5 -111.95 -180.9 -122.55 -205.5 -130.35 -234.55 -135.85 -256.5 -140.0 -261.6 -140.0 -335.15 -140.0 -355.2 -117.8 -360.7 -111.75 -362.7 -102.6 L-363.9 -97.55 Q-364.6 -95.7 -366.1 -95.7 -368.9 -95.7 -387.7 -109.8 -406.35 -123.85 -413.85 -131.5 -434.85 -153.1 -447.65 -169.6 -456.55 -181.1 -462.75 -205.1 L-462.95 -205.7 Q-468.6 -227.75 -468.6 -244.9 L-468.65 -255.2 Q-468.5 -257.7 -468.0 -259.7 -469.6 -260.55 -469.6 -262.6 -469.6 -264.55 -463.8 -267.8 -457.95 -271.1 -448.75 -274.25 -425.95 -282.0 -404.65 -282.15 -404.65 -282.65 -385.2 -282.65 -337.45 -282.65 -292.15 -270.15 -274.95 -265.35 -252.45 -257.3 L-212.45 -242.6 Q-160.45 -223.75 -117.0 -215.1 -54.2 -202.6 23.25 -202.6 M335.45 -1174.45 Q333.95 -1170.45 333.95 -1169.5 336.3 -1172.1 335.85 -1175.5 L335.45 -1174.45" fill="#462060" fill-rule="evenodd" stroke="none"/>
  </g>
</svg>
