<?xml version="1.0" encoding="UTF-8" standalone="no"?>
<svg xmlns:ffdec="https://www.free-decompiler.com/flash" xmlns:xlink="http://www.w3.org/1999/xlink" ffdec:objectType="shape" height="619.9px" width="1346.55px" xmlns="http://www.w3.org/2000/svg">
  <g transform="matrix(1.0, 0.0, 0.0, 1.0, 671.9, 298.9)">
    <path d="M-282.2 -229.05 Q-282.0 -229.95 -280.6 -230.0 L-282.0 -230.0 -282.2 -229.05 M-567.5 -207.65 L-567.1 -206.0 -567.1 -207.0 -567.5 -207.65 M-627.15 -231.0 L-627.1 -230.0 -627.1 -231.0 -627.15 -231.0 M-450.0 -252.95 L-450.1 -252.95 Q-451.15 -252.8 -450.7 -252.05 -450.0 -250.9 -450.0 -252.95 M341.15 -115.55 L340.0 -115.0 341.0 -115.0 341.15 -115.55 M674.15 -86.55 L673.05 -75.05 Q669.0 -39.4 657.2 -5.25 647.0 24.35 623.8 52.35 597.45 84.1 597.1 123.3 596.9 154.7 582.0 185.2 564.25 221.5 559.35 260.9 555.55 291.4 549.95 321.0 495.9 310.15 447.8 288.0 432.95 281.15 424.35 267.85 311.75 92.75 142.35 -40.7 38.7 -122.45 -93.05 -152.65 -115.75 -157.95 -139.2 -157.8 -168.85 -157.55 -194.45 -145.1 -200.7 -142.05 -201.6 -133.75 L-201.9 -133.2 Q-235.7 -141.05 -271.85 -150.95 -301.8 -159.15 -324.0 -141.25 -350.65 -119.75 -307.5 -95.25 -350.4 -61.7 -366.65 -13.4 -376.25 14.95 -366.45 43.1 -334.9 133.85 -344.7 227.4 L-349.35 228.65 Q-396.75 156.7 -480.8 121.0 -500.15 112.8 -511.0 97.9 -525.95 77.45 -527.6 49.15 -533.3 -46.9 -597.0 -122.1 -628.6 -159.4 -650.8 -200.85 -658.95 -216.05 -665.8 -231.8 -671.2 -244.3 -671.9 -257.75 -592.3 -292.85 -501.9 -297.6 -412.7 -302.15 -324.45 -291.05 -36.9 -255.6 244.3 -184.45 418.25 -140.45 597.1 -158.55 L657.1 -165.4 Q677.55 -130.9 674.15 -86.55" fill="#462060" fill-rule="evenodd" stroke="none"/>
  </g>
</svg>
