<?xml version="1.0" encoding="UTF-8" standalone="no"?>
<svg xmlns:ffdec="https://www.free-decompiler.com/flash" xmlns:xlink="http://www.w3.org/1999/xlink" ffdec:objectType="shape" height="1569.25px" width="1350.3px" xmlns="http://www.w3.org/2000/svg">
  <g transform="matrix(1.0, 0.0, 0.0, 1.0, 669.9, 1302.45)">
    <path d="M449.35 -226.25 L449.0 -222.0 Q450.0 -223.0 450.0 -224.0 L449.35 -226.25 M365.0 -264.0 L364.5 -264.1 Q364.0 -264.35 364.0 -265.0 L363.15 -263.95 365.0 -264.0 M621.0 -238.5 L620.1 -236.0 621.1 -237.0 621.0 -238.5 M538.25 -267.9 L538.1 -269.0 537.1 -269.0 538.25 -267.9 M224.2 -481.95 L223.65 -481.75 220.55 -481.0 226.0 -481.0 Q226.0 -482.45 224.2 -481.95 M35.0 -425.0 L34.75 -425.95 34.7 -425.95 Q33.8 -425.05 32.6 -425.0 L35.0 -425.0 M571.15 -480.95 Q604.35 -473.3 615.9 -446.9 L617.45 -443.2 Q630.1 -410.25 604.5 -391.9 577.5 -372.6 516.35 -397.45 488.6 -416.15 455.45 -396.1 422.35 -376.05 372.75 -425.6 348.0 -427.5 285.95 -396.0 199.8 -428.9 105.15 -412.95 10.45 -397.05 -5.95 -395.9 -22.4 -394.75 -27.2 -397.9 L-30.25 -400.35 Q-32.55 -402.65 -33.5 -405.5 51.4 -464.8 214.95 -502.65 368.35 -527.75 571.15 -480.95 M669.7 -240.05 Q666.9 -229.5 663.55 -219.0 L638.7 -140.55 Q628.65 -108.9 598.85 -94.0 L589.05 -115.05 Q585.2 -123.0 577.3 -127.5 510.05 -166.4 439.1 -107.9 391.65 -68.85 351.55 -23.65 305.35 28.45 272.2 88.95 261.65 108.2 252.1 128.0 244.95 142.8 230.35 152.1 212.75 163.3 193.85 172.65 122.05 207.9 48.3 240.25 16.65 254.15 -15.4 266.8 -14.2 236.9 -5.65 207.2 -0.85 190.35 -2.75 173.0 -12.6 83.35 -87.8 18.2 -83.35 10.55 -74.65 6.15 -65.8 1.8 -59.35 -5.35 -23.5 -44.75 -33.75 -97.3 -42.4 -141.55 -94.8 -138.05 -147.9 -135.0 -198.35 -119.05 -241.85 -105.25 -282.7 -85.9 -336.25 -60.55 -368.55 -14.85 -384.8 8.05 -389.7 34.8 -398.45 81.95 -419.0 121.4 -426.1 134.9 -443.75 142.3 -462.35 150.15 -479.75 159.95 -500.9 171.95 -522.75 182.65 -544.75 128.0 -562.9 71.75 -567.8 56.7 -576.55 43.35 -615.85 -16.6 -669.4 -66.2 -663.4 -104.5 -661.85 -143.25 -661.05 -163.65 -665.35 -183.65 -675.85 -232.1 -662.1 -271.5 L-660.75 -275.2 -660.75 -283.15 Q-614.15 -300.65 -563.75 -303.7 -501.3 -307.15 -439.4 -299.25 -101.2 -255.25 239.6 -282.05 424.65 -296.4 610.4 -306.5 647.2 -308.75 680.4 -293.65 676.8 -266.75 669.7 -240.05" fill="#462060" fill-rule="evenodd" stroke="none"/>
    <path d="M377.45 -1258.5 Q375.95 -1254.5 375.95 -1253.55 378.3 -1256.15 377.85 -1259.55 L377.45 -1258.5 M-347.1 -1215.7 L-348.15 -1218.85 Q-360.55 -1258.2 -347.1 -1291.9 -147.4 -1271.05 27.05 -1277.55 202.55 -1284.05 350.75 -1301.9 365.3 -1303.25 374.85 -1301.15 384.3 -1299.0 390.55 -1295.45 396.75 -1291.95 400.2 -1286.9 L402.05 -1284.05 402.05 -1265.15 Q398.6 -1220.05 387.45 -1208.95 376.2 -1197.9 340.35 -1210.95 280.65 -1206.4 233.75 -1140.95 125.3 -989.5 72.35 -763.55 60.45 -712.8 40.4 -670.1 35.05 -658.65 28.1 -649.9 21.9 -642.15 15.05 -636.25 7.85 -630.15 0.2 -626.1 -12.6 -690.2 -30.05 -751.25 -53.25 -832.35 -75.0 -915.05 -83.85 -948.6 -104.5 -966.1 -119.5 -978.75 -135.95 -984.75 -143.35 -987.6 -151.0 -987.9 -158.75 -988.2 -165.7 -982.8 -170.1 -979.55 -173.55 -973.8 -177.3 -967.6 -179.75 -960.0 L-182.15 -951.4 Q-183.8 -944.85 -184.85 -938.15 -222.5 -969.6 -230.35 -1038.05 -242.05 -1139.45 -302.6 -1185.95 -324.4 -1202.65 -347.1 -1215.7 M-22.05 -1245.55 L-23.55 -1241.0 -23.65 -1240.6 Q-21.6 -1242.45 -21.05 -1243.55 L-21.55 -1244.15 Q-22.05 -1244.9 -22.05 -1245.55 M-203.05 -1222.55 L-203.15 -1222.55 -203.05 -1221.6 -203.05 -1222.55 M64.9 -1252.5 L60.05 -1251.55 67.95 -1251.55 67.95 -1251.65 Q67.85 -1253.05 64.9 -1252.5 M135.95 -1252.55 L137.25 -1252.8 135.3 -1252.55 135.95 -1252.55" fill="#462060" fill-rule="evenodd" stroke="none"/>
  </g>
</svg>
