<?xml version="1.0" encoding="UTF-8" standalone="no"?>
<svg xmlns:ffdec="https://www.free-decompiler.com/flash" xmlns:xlink="http://www.w3.org/1999/xlink" ffdec:objectType="shape" height="390.15px" width="1495.0px" xmlns="http://www.w3.org/2000/svg">
  <g transform="matrix(1.0, 0.0, 0.0, 1.0, 696.7, 352.45)">
    <path d="M88.25 -335.15 L88.25 -335.25 Q88.25 -335.95 87.75 -336.55 87.7 -336.25 88.25 -335.15 M236.0 -256.05 L235.2 -256.0 236.0 -256.0 236.0 -256.05 M798.0 -233.75 L797.15 -233.75 Q795.1 -227.8 791.95 -221.95 L791.9 -221.9 Q789.15 -216.9 785.6 -212.0 768.7 -188.7 745.45 -188.7 743.3 -188.7 740.75 -189.85 L734.6 -192.4 Q723.75 -196.15 702.5 -196.15 681.45 -196.15 666.75 -182.2 660.85 -176.65 654.4 -167.5 L642.9 -149.95 Q627.2 -125.75 613.55 -113.55 592.3 -94.6 561.6 -87.3 558.6 -92.85 552.15 -106.5 545.55 -119.2 538.45 -128.05 517.85 -153.65 480.65 -161.95 L454.5 -166.95 422.2 -172.85 Q380.15 -180.95 358.4 -189.15 317.5 -204.65 206.05 -212.3 L205.25 -212.35 Q144.4 -217.6 88.7 -217.6 15.85 -217.6 -38.7 -212.4 L-38.75 -212.4 Q-115.45 -205.55 -158.25 -189.75 -190.3 -167.85 -204.7 -128.7 -211.75 -110.05 -221.95 -89.05 L-237.65 -57.4 Q-245.45 -40.7 -249.05 -27.45 -253.45 -11.05 -253.45 6.9 -253.45 9.25 -251.2 19.15 -249.0 29.05 -249.0 31.45 -249.0 36.25 -250.05 36.75 L-250.65 37.25 -255.35 37.7 Q-290.25 37.7 -355.85 10.1 -374.45 2.2 -402.3 -10.85 -427.0 -22.45 -432.15 -24.45 -438.5 -26.85 -469.7 -31.0 -499.15 -34.95 -501.5 -36.7 -504.4 -38.85 -510.8 -46.15 -517.45 -53.7 -522.3 -57.4 L-546.95 -77.35 Q-564.35 -91.45 -572.15 -96.2 -683.8 -164.65 -695.0 -243.15 L-695.7 -249.0 -696.6 -251.1 -696.25 -258.55 -696.3 -260.95 -696.6 -268.4 Q-696.85 -274.5 -696.4 -278.85 -695.65 -285.85 -693.0 -289.2 -690.4 -293.2 -683.7 -295.85 -625.85 -295.1 -568.0 -293.25 -440.55 -289.3 -207.0 -292.1 -124.6 -293.05 -38.75 -292.35 L-38.7 -292.35 -26.15 -292.25 Q-16.85 -291.9 -7.1 -291.95 2.45 -292.05 7.45 -293.75 L7.6 -293.85 Q12.3 -295.65 12.65 -305.25 L12.65 -306.15 12.95 -325.25 12.95 -325.95 Q12.7 -338.3 29.0 -344.5 45.35 -350.7 89.5 -352.45 116.9 -348.5 115.7 -322.95 L115.65 -322.65 Q115.1 -312.7 116.55 -305.25 118.8 -294.9 126.15 -290.25 L131.7 -289.95 205.25 -286.7 283.1 -284.2 Q421.25 -280.35 542.25 -282.1 663.3 -283.9 730.8 -280.75 798.3 -277.55 798.3 -244.05 L798.0 -233.75 M62.0 -300.45 L62.25 -300.55 62.0 -300.55 62.0 -300.45 M-515.95 -266.4 L-513.1 -267.0 -512.1 -268.0 Q-514.05 -267.4 -515.95 -266.4 M-574.8 -240.9 L-576.1 -240.0 -575.1 -240.0 -574.8 -240.9 M-642.1 -264.1 Q-632.8 -267.15 -631.1 -268.0 -632.25 -268.0 -637.05 -266.5 L-642.1 -265.0 -642.1 -264.1 M378.0 -249.0 L378.0 -248.0 384.65 -244.6 391.65 -240.6 389.15 -242.2 384.65 -244.6 383.4 -245.4 378.0 -249.0" fill="#462060" fill-rule="evenodd" stroke="none"/>
  </g>
</svg>
