<?xml version="1.0" encoding="UTF-8" standalone="no"?>
<svg xmlns:ffdec="https://www.free-decompiler.com/flash" xmlns:xlink="http://www.w3.org/1999/xlink" ffdec:objectType="shape" height="714.75px" width="1335.05px" xmlns="http://www.w3.org/2000/svg">
  <g transform="matrix(1.0, 0.0, 0.0, 1.0, 669.4, 329.65)">
    <path d="M661.75 -270.05 Q663.45 -257.0 664.45 -243.9 668.5 -191.35 658.8 -139.2 L658.8 267.05 -28.3 385.1 Q-60.5 284.15 -98.3 279.8 -114.55 277.85 -126.2 267.6 -175.75 223.8 -174.95 170.35 -173.35 59.1 -302.65 4.1 -302.4 -4.45 -298.8 -12.65 -283.15 -48.15 -333.75 -64.0 -449.4 -100.3 -454.75 -11.8 L-469.75 -12.4 Q-531.95 -21.0 -574.5 -53.15 -616.65 -85.0 -640.75 -123.55 -662.75 -158.7 -668.15 -195.8 L-669.2 -204.7 Q-671.95 -233.85 -635.55 -242.9 -578.6 -257.1 -514.15 -254.15 L-388.5 -246.2 Q-326.0 -241.7 -263.3 -239.55 -200.5 -237.9 -137.55 -239.7 -78.3 -240.45 -64.95 -239.35 L-17.3 -237.4 Q2.0 -236.9 12.2 -238.15 17.4 -238.8 20.25 -239.9 21.7 -240.5 22.55 -241.2 24.9 -256.2 27.55 -267.0 31.7 -284.3 36.55 -290.8 42.2 -298.35 108.6 -302.15 175.55 -308.15 207.5 -314.15 239.45 -320.2 349.25 -327.6 459.05 -335.05 644.0 -315.7 652.5 -309.5 654.65 -301.6 L657.95 -288.85 Q660.15 -279.45 661.75 -270.05 M46.25 -268.5 L45.0 -268.0 46.0 -268.0 46.25 -268.5 M228.0 -279.0 L229.0 -279.0 229.15 -279.3 228.0 -279.0 M423.1 -305.0 L424.6 -304.4 424.1 -305.0 423.1 -305.0 M-453.0 -227.1 Q-453.1 -228.5 -456.3 -227.95 L-461.5 -227.0 -453.0 -227.0 -453.0 -227.1 M-163.9 -213.8 L-164.0 -214.0 -164.95 -214.0 -163.9 -213.8 M-377.0 -226.0 Q-377.0 -227.5 -382.05 -226.95 L-389.0 -226.0 -377.0 -226.0" fill="#462060" fill-rule="evenodd" stroke="none"/>
  </g>
</svg>
