<?xml version="1.0" encoding="UTF-8" standalone="no"?>
<svg xmlns:ffdec="https://www.free-decompiler.com/flash" xmlns:xlink="http://www.w3.org/1999/xlink" ffdec:objectType="shape" height="676.35px" width="756.15px" xmlns="http://www.w3.org/2000/svg">
  <g transform="matrix(1.0, 0.0, 0.0, 1.0, 348.05, 228.9)">
    <path d="M142.0 -179.0 L143.3 -179.25 141.15 -179.0 142.0 -179.0 M74.0 -178.0 L74.0 -178.1 Q73.9 -179.5 70.95 -178.95 L66.1 -178.0 74.0 -178.0 M-17.6 -167.05 Q-15.55 -168.9 -15.0 -170.0 L-15.5 -170.6 Q-16.0 -171.35 -16.0 -172.0 L-17.5 -167.45 -17.6 -167.05 M-197.0 -149.0 L-197.1 -149.0 -197.0 -148.0 -197.0 -149.0 M383.9 -186.0 L383.5 -184.95 Q382.0 -180.95 382.0 -180.0 384.35 -182.6 383.9 -186.0 M380.9 -227.6 Q390.35 -225.45 396.6 -221.9 402.8 -218.4 406.25 -213.35 L408.1 -210.5 408.1 -191.6 Q404.65 -146.5 393.5 -135.4 382.25 -124.35 346.4 -137.4 286.7 -132.85 239.8 -67.4 131.35 84.05 78.4 310.0 66.5 360.75 46.45 403.45 41.1 414.9 34.15 423.65 27.95 431.4 21.1 437.3 13.9 443.4 6.25 447.45 -6.55 383.35 -24.0 322.3 -47.2 241.2 -68.95 158.5 -77.8 124.95 -98.45 107.45 -113.45 94.8 -129.9 88.8 -137.3 85.95 -144.95 85.65 -152.7 85.35 -159.65 90.75 -164.05 94.0 -167.5 99.75 -171.25 105.95 -173.7 113.55 -175.05 117.7 -176.1 122.15 -177.75 128.7 -178.8 135.4 -216.45 103.95 -224.3 35.5 -236.0 -65.9 -296.55 -112.4 -318.35 -129.1 -341.05 -142.15 L-342.1 -145.3 Q-354.5 -184.65 -341.05 -218.35 -141.35 -197.5 33.1 -204.0 208.6 -210.5 356.8 -228.35 371.35 -229.7 380.9 -227.6" fill="#462060" fill-rule="evenodd" stroke="none"/>
  </g>
</svg>
