<?xml version="1.0" encoding="UTF-8" standalone="no"?>
<svg xmlns:ffdec="https://www.free-decompiler.com/flash" xmlns:xlink="http://www.w3.org/1999/xlink" ffdec:objectType="shape" height="878.3px" width="1247.8px" xmlns="http://www.w3.org/2000/svg">
  <g transform="matrix(1.0, 0.0, 0.0, 1.0, 612.65, 735.8)">
    <path d="M489.95 -687.3 Q510.95 -682.85 531.3 -676.3 555.1 -668.65 576.9 -657.5 592.2 -649.65 605.8 -639.85 620.75 -629.05 629.7 -614.4 642.65 -593.3 624.8 -571.75 L620.4 -566.6 Q604.8 -549.05 584.6 -535.6 552.4 -514.1 519.1 -506.5 485.75 -498.85 471.95 -492.5 458.0 -486.15 448.05 -476.4 438.0 -466.65 438.7 -450.35 439.35 -433.95 444.0 -415.95 448.65 -398.0 463.4 -357.3 478.05 -316.65 515.65 -280.4 401.55 -283.75 362.6 -288.3 325.25 -292.7 288.4 -300.25 252.25 -307.6 216.9 -317.35 179.9 -327.7 144.1 -340.35 108.65 -352.95 76.55 -370.85 44.35 -388.85 13.55 -408.65 -17.45 -428.5 -45.65 -451.0 -74.15 -473.75 -99.2 -499.4 -124.35 -525.1 -153.9 -547.35 -182.75 -569.15 -212.0 -590.4 -241.65 -612.05 -274.75 -629.65 -309.25 -648.15 -346.4 -662.7 -381.5 -676.5 -419.8 -677.85 -449.15 -678.35 -466.75 -681.85 -498.35 -688.2 -492.5 -704.3 -492.45 -705.85 -491.3 -706.9 -469.95 -725.55 -439.1 -730.05 -357.15 -742.2 -274.5 -728.65 -119.65 -703.2 37.85 -703.5 111.65 -703.6 185.05 -705.95 312.9 -709.35 440.0 -695.2 465.2 -692.55 489.95 -687.3 M23.7 -120.75 Q-1.4 -135.1 -30.2 -146.45 -47.7 -153.35 -65.3 -158.7 -77.4 -152.65 -85.4 -147.2 -89.35 -144.6 -92.8 -142.0 -109.85 -150.5 -134.05 -159.0 -164.0 -169.45 -192.8 -175.65 -223.6 -182.35 -241.95 -181.55 -290.8 -179.6 -326.75 -168.0 -356.75 -158.35 -376.4 -142.45 -392.0 -129.9 -399.6 -114.85 -405.4 -103.4 -404.95 -95.05 -404.5 -87.05 -399.0 -68.75 -393.55 -50.45 -393.2 -44.7 L-399.35 -39.9 Q-406.85 -33.85 -412.9 -27.85 -432.6 -8.15 -432.85 8.1 -441.05 -0.85 -476.05 -34.3 -515.0 -71.5 -536.75 -93.95 L-553.65 -111.9 Q-557.2 -118.2 -561.7 -124.75 -566.6 -131.9 -575.2 -143.3 -581.3 -151.85 -581.5 -155.2 -581.8 -160.15 -578.4 -194.3 -576.6 -213.1 -575.9 -224.3 -580.7 -234.05 -596.85 -259.8 L-605.25 -273.35 Q-612.6 -285.55 -612.65 -287.0 -613.05 -293.4 -594.7 -305.7 -587.75 -310.35 -580.9 -313.85 L-576.8 -315.85 Q-569.35 -321.1 -558.25 -325.9 -521.2 -341.8 -465.7 -343.85 L-459.05 -344.65 -449.0 -345.3 Q-350.5 -349.35 -220.85 -319.5 -177.65 -309.6 -126.65 -294.75 L-56.65 -279.25 -0.8 -266.75 Q38.35 -258.1 113.85 -239.65 189.35 -221.35 312.8 -206.6 450.65 -190.05 603.05 -194.35 602.7 -177.65 597.8 -161.55 596.25 -156.6 594.3 -151.7 590.05 -141.2 582.1 -125.9 L572.4 -108.0 564.55 -75.3 Q547.85 -8.25 546.55 0.55 542.95 24.25 537.9 86.35 L533.25 142.25 Q468.35 144.9 397.9 120.9 368.05 110.75 340.7 96.9 315.65 84.2 296.2 70.35 259.75 44.1 225.5 24.25 177.2 -3.75 139.45 -15.4 110.0 -24.4 100.15 -35.9 96.5 -40.3 94.45 -46.3 L91.45 -56.7 Q86.75 -72.7 49.65 -103.9 41.35 -110.7 23.7 -120.75 M-93.3 -657.7 L-93.3 -657.75 Q-93.75 -658.55 -94.85 -658.55 L-93.3 -657.7 M529.55 -134.3 L528.15 -132.15 529.9 -132.15 529.55 -134.3 M547.7 -166.55 L547.7 -166.3 Q546.75 -165.95 546.95 -165.0 547.05 -164.5 547.35 -164.85 547.65 -165.15 547.7 -166.3 L549.05 -166.55 547.7 -166.55 M-418.65 -689.95 L-418.7 -689.95 -418.65 -689.95 -417.05 -689.95 -416.45 -690.5 -418.65 -689.95 M-144.5 -267.6 L-144.7 -268.25 -146.35 -268.25 -144.5 -267.6 M-571.9 -279.75 L-569.35 -288.4 Q-571.4 -285.0 -571.9 -281.3 -572.2 -278.95 -571.9 -276.45 L-571.9 -279.75 M-564.65 -310.8 L-565.2 -311.9 -565.3 -310.6 -564.65 -310.8 M-408.15 -320.75 L-411.7 -321.1 Q-411.85 -323.0 -413.6 -322.25 -417.05 -320.8 -418.65 -320.75 L-408.15 -320.75 M-458.75 -322.35 L-452.65 -322.35 Q-452.65 -324.65 -454.05 -323.9 -457.0 -322.4 -458.75 -322.35 M-385.2 -313.85 Q-393.7 -306.85 -395.7 -305.95 L-393.9 -305.95 -390.55 -308.35 -387.05 -310.55 Q-384.65 -312.4 -383.75 -314.95 L-385.2 -313.85" fill="#462060" fill-rule="evenodd" stroke="none"/>
  </g>
</svg>
