<?xml version="1.0" encoding="UTF-8" standalone="no"?>
<svg xmlns:ffdec="https://www.free-decompiler.com/flash" xmlns:xlink="http://www.w3.org/1999/xlink" ffdec:objectType="shape" height="988.9px" width="1652.3px" xmlns="http://www.w3.org/2000/svg">
  <g transform="matrix(1.0, 0.0, 0.0, 1.0, 730.5, 908.25)">
    <path d="M376.55 -877.05 L372.0 -876.25 374.0 -876.25 Q375.25 -876.25 376.55 -877.05 M248.1 -868.3 L246.5 -868.25 248.0 -868.25 248.1 -868.3 M530.0 -810.5 Q513.9 -812.25 501.35 -811.1 375.35 -799.8 278.5 -786.7 196.6 -775.7 152.3 -765.85 120.55 -758.7 59.45 -740.75 27.4 -731.3 -53.2 -706.65 -123.55 -685.1 -153.5 -676.65 -199.05 -663.75 -209.45 -663.75 -215.65 -663.75 -219.9 -665.45 L-219.75 -672.85 Q-219.85 -678.15 -221.0 -681.75 -224.4 -692.4 -237.95 -692.4 -265.6 -692.4 -294.05 -679.85 -318.3 -669.2 -340.5 -650.8 -359.55 -635.0 -372.15 -618.0 -383.85 -602.2 -383.85 -594.2 -383.85 -589.1 -380.85 -577.45 -377.8 -565.85 -377.8 -562.75 -377.8 -558.45 -432.55 -526.05 -450.8 -515.2 -470.35 -504.1 L-487.9 -494.4 Q-505.65 -494.4 -539.2 -524.6 -552.4 -536.5 -564.55 -550.05 -575.85 -562.7 -581.5 -571.5 -587.2 -580.4 -599.7 -612.5 -612.05 -644.2 -612.05 -649.35 -612.05 -651.45 -610.45 -653.8 L-606.95 -657.9 Q-601.85 -663.55 -601.85 -668.4 -601.85 -685.1 -611.35 -698.95 -619.15 -710.45 -634.6 -721.45 -643.65 -727.85 -664.1 -739.55 -683.65 -750.75 -692.05 -756.95 -696.85 -760.45 -699.0 -766.35 -700.35 -769.95 -700.9 -775.4 L-701.15 -778.2 -701.7 -791.2 Q-702.25 -798.85 -704.1 -803.9 -708.7 -817.15 -730.5 -849.75 L-728.8 -851.85 Q-727.55 -852.9 -725.0 -853.1 -715.1 -859.3 -658.05 -867.0 -581.75 -877.35 -449.9 -886.0 -297.6 -896.05 -101.1 -901.7 125.65 -908.25 390.0 -908.25 568.7 -908.25 635.2 -900.65 656.4 -898.25 667.85 -894.8 L674.95 -892.3 Q678.4 -891.1 680.95 -890.65 696.05 -887.85 712.8 -882.45 731.95 -876.3 731.95 -872.9 731.95 -872.0 727.15 -870.2 722.05 -868.4 714.45 -866.6 704.95 -864.4 695.8 -863.25 691.25 -861.4 684.3 -859.1 676.25 -856.4 665.0 -853.15 L636.15 -844.95 Q621.75 -840.95 619.25 -839.8 616.95 -838.75 609.45 -832.5 602.8 -826.85 598.9 -822.95 588.95 -812.9 577.45 -809.45 568.15 -806.65 554.9 -807.6 L542.85 -808.9 530.0 -810.5 M-163.85 -148.75 L-164.0 -146.0 -161.25 -149.0 -160.6 -150.0 Q-163.3 -149.9 -163.85 -148.75 M-187.15 -143.2 Q-189.5 -142.0 -188.0 -142.0 -186.05 -142.0 -187.15 -143.2 M-71.25 -873.75 L-72.0 -874.25 -74.0 -874.25 -71.25 -873.75 M522.1 -286.05 L520.5 -286.0 522.0 -286.0 522.1 -286.05 M36.15 -58.3 L36.0 -58.0 38.0 -58.0 36.15 -58.3 M254.0 -266.0 Q254.0 -267.05 253.5 -267.8 L251.4 -267.85 Q246.6 -266.05 245.05 -266.0 L254.0 -266.0 M246.15 -262.1 L244.25 -262.0 246.0 -262.0 246.15 -262.1 M763.15 -267.55 L764.25 -266.95 Q764.45 -266.5 765.0 -266.25 L766.0 -266.0 Q765.1 -266.5 764.25 -266.95 764.0 -267.4 764.0 -268.0 L763.15 -267.55 M794.2 -277.15 Q794.4 -277.6 794.9 -277.85 L794.55 -277.95 794.2 -277.15 M866.0 -240.65 L866.0 -240.0 867.4 -239.7 870.0 -238.0 868.75 -239.0 867.4 -239.7 866.0 -240.65 M810.35 -289.3 L838.7 -280.0 Q846.9 -279.2 852.15 -277.7 890.2 -266.6 906.05 -258.7 925.55 -249.05 920.9 -240.1 917.75 -234.2 900.45 -224.15 891.25 -218.8 878.1 -212.3 863.05 -204.85 848.95 -199.05 834.85 -193.3 829.1 -192.15 794.05 -185.7 735.6 -177.35 683.45 -169.95 682.25 -170.3 678.15 -171.5 676.6 -172.35 L673.5 -174.9 Q674.3 -177.75 683.05 -188.0 689.55 -197.4 681.35 -199.75 638.5 -212.2 570.25 -210.35 508.95 -208.6 441.6 -195.95 377.15 -183.85 330.95 -166.4 282.95 -148.3 274.1 -131.55 271.8 -127.25 274.9 -117.7 278.25 -107.65 283.9 -105.95 289.5 -104.35 299.95 -103.55 L320.6 -102.5 Q349.9 -101.25 364.25 -97.05 L374.05 -93.1 Q373.95 -92.85 374.0 -91.7 374.0 -90.55 372.65 -87.85 367.4 -77.95 269.4 -36.75 229.95 -20.2 194.0 -6.6 157.15 7.4 142.9 11.05 31.5 40.1 -153.25 80.65 -163.25 77.75 -180.35 57.2 -202.45 29.0 -215.9 12.55 -240.5 -17.25 -262.75 -35.4 -292.5 -59.6 -323.85 -68.7 -391.9 -88.55 -417.1 -89.8 -423.7 -90.1 -428.8 -89.0 -432.6 -88.25 -435.15 -88.95 -441.7 -90.85 -451.1 -91.15 L-454.0 -91.2 Q-465.4 -91.25 -461.45 -98.95 -457.7 -106.7 -448.5 -117.9 -439.45 -129.2 -434.95 -132.6 -430.55 -136.0 -430.5 -136.8 -415.05 -148.2 -403.35 -155.4 -392.15 -162.45 -363.0 -172.15 -354.75 -174.9 -336.1 -177.25 -319.9 -179.25 -252.65 -193.5 -185.45 -207.75 -131.3 -215.75 -77.2 -223.75 -49.75 -233.3 -22.3 -242.85 22.5 -257.6 67.35 -272.4 121.65 -285.35 176.1 -298.3 247.55 -308.5 323.05 -319.2 389.7 -321.1 419.75 -321.9 458.5 -326.15 497.9 -330.45 518.25 -331.1 554.8 -332.2 603.35 -327.4 660.75 -321.65 747.85 -306.45 748.1 -306.95 810.35 -289.3" fill="#462060" fill-rule="evenodd" stroke="none"/>
  </g>
</svg>
