<?xml version="1.0" encoding="UTF-8" standalone="no"?>
<svg xmlns:ffdec="https://www.free-decompiler.com/flash" xmlns:xlink="http://www.w3.org/1999/xlink" ffdec:objectType="shape" height="369.35px" width="1287.45px" xmlns="http://www.w3.org/2000/svg">
  <g transform="matrix(1.0, 0.0, 0.0, 1.0, 664.55, 340.3)">
    <path d="M-549.25 -150.15 L-557.85 -167.7 Q-562.65 -176.85 -566.95 -182.4 -577.9 -196.35 -593.5 -196.35 -609.3 -196.35 -617.3 -192.6 L-621.85 -190.05 Q-623.8 -188.9 -625.35 -188.9 -642.6 -188.9 -655.1 -212.2 -658.3 -218.1 -660.6 -224.15 -662.45 -229.0 -663.7 -233.95 L-664.35 -233.95 -664.55 -244.25 Q-664.6 -277.75 -614.5 -280.95 -564.4 -284.1 -474.65 -282.3 -384.9 -280.55 -282.45 -284.4 L-176.65 -288.7 Q-163.25 -289.15 -143.6 -288.95 -123.95 -288.8 -117.95 -279.85 -114.4 -274.5 -112.05 -269.9 L-109.45 -264.15 Q-107.55 -259.1 -107.55 -256.35 -107.55 -251.95 -111.45 -245.4 -115.75 -238.35 -122.65 -232.2 -140.45 -216.35 -163.0 -216.35 L-169.25 -216.5 -225.35 -212.5 Q-307.95 -204.85 -338.25 -189.35 -354.45 -181.15 -385.6 -173.05 L-409.55 -167.15 Q-423.05 -163.9 -428.9 -162.15 -456.55 -153.85 -471.8 -128.25 -477.1 -119.4 -481.95 -106.7 -486.8 -93.05 -489.0 -87.5 -511.8 -94.8 -527.55 -113.75 -537.7 -125.95 -549.25 -150.15 M411.7 -316.4 L410.0 -318.0 408.0 -318.0 Q409.65 -317.15 411.7 -316.4 M607.45 -314.0 L612.0 -316.0 Q609.55 -315.65 607.45 -314.0 M259.25 -208.05 Q252.5 -216.45 242.65 -223.2 210.65 -245.25 137.0 -255.55 L137.0 -259.25 136.25 -259.65 Q123.95 -265.3 112.65 -283.2 109.5 -288.15 106.95 -293.3 104.45 -298.25 102.45 -303.4 98.8 -312.85 98.8 -317.3 98.8 -324.05 106.3 -328.55 113.15 -332.55 125.6 -334.3 133.8 -339.1 142.2 -339.6 L158.15 -340.15 158.35 -339.6 Q211.0 -339.7 262.25 -339.0 481.55 -336.25 601.3 -340.15 L605.05 -340.3 Q625.35 -332.2 622.55 -296.4 620.4 -269.4 605.05 -226.5 581.25 -217.4 549.0 -208.65 545.1 -205.25 541.4 -201.65 496.75 -158.5 485.75 -100.0 482.15 -80.6 472.6 -66.55 460.7 -49.05 437.9 -36.7 411.35 -22.4 391.85 -3.75 379.4 8.1 363.35 29.05 357.25 20.85 355.25 10.45 353.9 3.4 354.1 -8.55 354.3 -22.9 353.9 -27.7 352.95 -38.4 348.7 -46.55 346.35 -51.15 342.1 -64.65 337.95 -77.65 333.85 -85.05 328.0 -95.35 312.6 -102.3 304.35 -105.8 300.5 -107.65 293.95 -110.85 290.15 -114.45 283.4 -121.05 281.05 -130.6 279.3 -137.7 279.55 -149.45 L280.1 -169.8 Q279.95 -177.05 278.8 -183.2 276.65 -184.05 274.95 -185.5 272.05 -187.85 267.95 -194.85 262.75 -203.65 259.25 -208.05 M318.0 -286.05 L316.5 -286.0 318.0 -286.0 318.0 -286.05" fill="#462060" fill-rule="evenodd" stroke="none"/>
  </g>
</svg>
