<?xml version="1.0" encoding="UTF-8" standalone="no"?>
<svg xmlns:ffdec="https://www.free-decompiler.com/flash" xmlns:xlink="http://www.w3.org/1999/xlink" ffdec:objectType="shape" height="1974.1px" width="679.9px" xmlns="http://www.w3.org/2000/svg">
  <g transform="matrix(1.0, 0.0, 0.0, 1.0, 264.55, 1286.75)">
    <path d="M-125.7 -1286.6 Q-35.45 -1283.6 111.35 -1284.5 L388.45 -1279.8 400.0 -1277.45 Q408.6 -1275.6 411.7 -1273.7 415.35 -1271.5 415.35 -1267.35 415.35 -1266.5 411.85 -1262.55 L403.6 -1253.05 Q393.85 -1241.45 388.7 -1231.7 387.0 -1228.45 385.8 -1225.4 385.2 -1223.9 383.65 -1215.6 382.05 -1207.15 380.15 -1202.0 373.9 -1184.7 358.85 -1184.7 328.35 -1184.7 305.7 -1161.9 287.35 -1143.3 275.0 -1110.6 265.8 -1086.1 260.85 -1056.55 257.45 -1036.05 257.45 -1025.5 257.45 -1022.1 266.3 -1014.05 275.2 -1005.95 275.2 -1004.05 275.2 -999.2 261.15 -968.85 247.65 -939.7 227.85 -901.3 179.1 -806.65 156.8 -778.15 154.3 -774.95 145.4 -769.05 L127.75 -757.2 Q103.5 -740.0 97.75 -723.5 93.6 -712.1 87.85 -694.1 L79.15 -666.85 Q73.15 -648.5 68.3 -610.95 63.75 -575.4 63.75 -552.0 63.75 -526.5 66.6 -512.45 L68.6 -502.0 Q69.45 -495.4 69.45 -485.7 18.25 -425.75 15.35 -425.75 9.55 -425.75 -27.5 -516.4 -42.25 -552.55 -54.3 -584.8 -66.75 -618.05 -69.3 -628.55 -76.6 -657.8 -87.75 -723.25 -101.5 -803.55 -101.5 -835.25 -101.5 -837.55 -96.2 -853.5 -89.1 -874.8 -84.5 -892.5 -67.5 -958.25 -67.5 -1031.75 -67.5 -1044.15 -71.0 -1071.7 -74.55 -1099.1 -76.95 -1105.45 -83.7 -1123.75 -101.25 -1153.15 L-108.9 -1165.6 Q-119.85 -1169.25 -129.45 -1172.9 -147.8 -1224.05 -147.3 -1252.65 -146.8 -1279.8 -129.45 -1286.75 L-125.7 -1286.6 M172.75 -1242.95 L173.9 -1243.1 172.8 -1243.1 172.75 -1242.95 M-21.95 -129.85 L-22.0 -130.0 -23.75 -130.0 -21.95 -129.85 M276.5 -173.5 L280.25 -173.65 Q297.6 -166.7 298.1 -139.55 298.6 -110.95 280.25 -59.8 270.65 -56.15 259.7 -52.5 L252.05 -40.05 Q234.5 -10.65 227.75 7.65 225.35 14.0 221.8 41.4 218.3 68.95 218.3 81.35 218.3 154.85 235.3 220.6 239.9 238.3 247.0 259.6 252.3 275.55 252.3 277.85 252.3 309.55 238.55 389.85 227.4 455.3 220.1 484.55 217.55 495.05 205.1 528.3 193.05 560.55 178.3 596.7 141.25 687.35 135.45 687.35 132.55 687.35 81.35 627.4 81.35 617.7 82.2 611.1 L84.2 600.65 Q87.05 586.6 87.05 561.1 87.05 537.7 82.5 502.15 77.65 464.6 71.65 446.25 L62.95 419.0 Q57.2 401.0 53.05 389.6 47.3 373.1 23.05 355.9 L5.4 344.05 Q-3.5 338.15 -6.0 334.95 -28.3 306.45 -77.05 211.8 -96.85 173.4 -110.35 144.25 -124.4 113.9 -124.4 109.05 -124.4 107.15 -115.5 99.05 -106.65 91.0 -106.65 87.6 -106.65 77.05 -110.05 56.55 -115.0 27.0 -124.2 2.5 -136.55 -30.2 -154.9 -48.8 -177.55 -71.6 -208.05 -71.6 -223.1 -71.6 -229.35 -88.9 -231.25 -94.05 -232.85 -102.5 -234.4 -110.8 -235.0 -112.3 -236.2 -115.35 -237.9 -118.6 -243.05 -128.35 -252.8 -139.95 L-261.05 -149.45 Q-264.55 -153.4 -264.55 -154.25 -264.55 -158.4 -260.9 -160.6 -257.8 -162.5 -249.2 -164.35 L-237.65 -166.7 39.45 -171.4 Q186.25 -170.5 276.5 -173.5" fill="#462060" fill-rule="evenodd" stroke="none"/>
  </g>
</svg>
