<?xml version="1.0" encoding="UTF-8" standalone="no"?>
<svg xmlns:ffdec="https://www.free-decompiler.com/flash" xmlns:xlink="http://www.w3.org/1999/xlink" ffdec:objectType="shape" height="1306.4px" width="711.55px" xmlns="http://www.w3.org/2000/svg">
  <g transform="matrix(1.0, 0.0, 0.0, 1.0, 266.5, 818.75)">
    <path d="M445.05 -818.75 Q420.05 -807.3 378.95 -782.95 L361.55 -772.55 Q314.5 -743.1 314.1 -743.1 307.85 -743.1 303.65 -745.05 303.65 -746.4 304.3 -751.1 305.0 -755.8 305.0 -758.35 305.0 -766.95 298.15 -766.95 268.75 -766.95 242.85 -757.25 221.0 -749.1 203.35 -734.7 188.65 -722.75 179.5 -709.05 171.6 -697.05 171.6 -690.15 171.6 -674.3 182.6 -661.0 L190.15 -652.35 Q193.6 -647.95 193.6 -644.6 193.6 -637.55 144.15 -621.45 132.6 -617.7 107.9 -610.25 89.5 -604.7 86.65 -603.4 70.5 -595.85 55.8 -597.5 0.6 -595.65 -40.55 -565.7 -72.1 -554.3 -79.95 -534.95 -84.25 -519.25 -95.25 -500.0 -132.6 -485.4 -162.55 -500.0 -174.2 -517.55 -186.0 -540.5 -199.55 -566.8 -208.05 -589.95 -213.8 -605.75 -215.9 -616.5 -220.45 -620.05 -224.6 -629.1 L-229.25 -640.55 Q-231.7 -646.65 -233.05 -648.25 L-236.85 -651.65 Q-241.7 -655.6 -252.15 -663.05 -266.5 -673.4 -266.5 -675.9 -266.5 -693.0 -12.15 -756.6 33.45 -763.75 61.8 -771.9 L82.75 -778.25 Q94.7 -781.85 105.7 -784.3 136.05 -791.1 196.3 -797.6 270.1 -805.55 410.55 -815.65 L418.65 -814.65 418.65 -814.6 445.05 -818.75 M9.85 -678.1 L10.0 -678.0 Q10.0 -679.15 8.75 -681.25 L8.45 -681.75 6.0 -688.0 6.0 -686.0 8.45 -681.75 9.85 -678.1 M86.2 -305.3 Q78.05 -283.4 77.75 -277.3 77.5 -270.5 73.25 -262.45 70.25 -256.65 63.75 -247.85 L53.15 -233.35 Q47.6 -225.2 45.6 -219.05 38.15 -196.8 36.8 -188.9 35.65 -182.15 35.65 -172.0 35.65 -161.9 -28.15 -127.55 -92.0 -93.25 -148.45 -146.25 -151.25 -173.85 -162.85 -215.35 -167.3 -231.25 -171.75 -245.25 L-178.15 -264.3 Q-178.15 -269.55 -147.85 -297.3 -26.6 -354.15 94.65 -327.15 89.7 -314.75 86.2 -305.3 M64.0 -304.0 L66.0 -304.0 62.25 -307.75 Q64.0 -305.85 64.0 -304.0 M73.2 139.5 Q59.55 176.9 39.55 215.5 36.7 221.15 33.25 231.6 29.35 243.6 27.1 248.6 18.1 269.15 -3.5 282.9 -21.65 294.4 -29.6 313.95 -31.6 318.9 -35.4 331.45 -38.95 343.1 -41.95 349.85 -58.45 387.35 -65.75 416.45 -74.9 452.8 -72.5 485.75 L-75.0 486.7 Q-77.5 487.65 -80.6 487.65 -81.05 487.65 -93.05 466.25 -107.1 441.15 -121.05 414.35 -163.15 333.45 -175.55 292.8 -192.8 235.65 -201.05 196.6 L-201.55 194.1 Q-210.4 147.4 -176.7 115.25 -58.0 2.15 81.7 114.45 77.8 126.9 73.2 139.5 M-84.05 455.4 L-83.0 455.85 -83.0 455.35 -84.05 455.4 M-147.8 183.4 L-149.9 185.9 -148.0 184.0 -147.8 183.4 M-106.0 -672.1 L-107.6 -672.0 -106.0 -672.0 -106.0 -672.1" fill="#462060" fill-rule="evenodd" stroke="none"/>
  </g>
</svg>
