<?xml version="1.0" encoding="UTF-8" standalone="no"?>
<svg xmlns:ffdec="https://www.free-decompiler.com/flash" xmlns:xlink="http://www.w3.org/1999/xlink" ffdec:objectType="shape" height="1285.55px" width="1243.55px" xmlns="http://www.w3.org/2000/svg">
  <g transform="matrix(1.0, 0.0, 0.0, 1.0, 607.65, 830.6)">
    <path d="M230.1 -281.1 L228.5 -281.0 230.0 -281.0 230.1 -281.1 M166.65 -334.85 Q174.5 -337.4 198.15 -338.3 214.15 -338.9 268.15 -340.0 L393.5 -344.5 408.5 -345.15 427.5 -345.45 551.7 -341.6 Q554.25 -341.1 557.7 -337.95 L560.7 -335.95 Q566.05 -335.25 566.05 -327.6 566.05 -323.8 564.7 -320.1 563.8 -317.65 562.35 -315.25 L635.9 -161.2 635.9 454.95 -238.35 454.95 -238.35 297.9 -251.7 294.85 Q-289.5 294.8 -331.1 308.7 -351.95 315.55 -365.7 322.55 -382.4 322.55 -393.2 308.2 -398.6 301.1 -400.7 293.3 -400.7 290.95 -394.1 286.55 -386.45 281.3 -384.25 277.45 -395.0 250.45 -410.7 217.5 -432.65 171.5 -454.75 134.8 -517.8 29.9 -563.85 29.95 -574.1 29.9 -586.8 -20.0 -591.65 -39.05 -595.65 -61.0 -599.3 -80.85 -600.7 -93.9 L-605.15 -135.95 Q-607.5 -154.4 -607.65 -159.4 L-607.3 -172.55 Q-606.75 -184.4 -606.75 -199.0 L-606.85 -202.25 -607.15 -208.15 Q-607.4 -217.95 -606.75 -225.75 -605.45 -240.05 -601.25 -246.05 L-601.25 -249.6 -599.2 -250.3 Q-597.5 -251.0 -594.4 -251.0 -558.85 -249.1 -450.35 -249.1 -206.2 -248.35 -70.25 -245.75 L-18.5 -244.1 47.1 -241.15 Q127.95 -235.65 140.5 -238.0 153.0 -240.35 154.6 -246.2 156.15 -252.05 155.8 -264.8 155.4 -277.55 156.95 -287.6 158.45 -297.7 160.25 -303.8 162.0 -309.95 160.8 -317.5 159.6 -325.05 159.35 -328.75 159.1 -332.45 166.65 -334.85 M250.95 -676.65 L248.5 -676.95 250.75 -676.6 250.95 -676.65 M-280.7 -805.85 Q-291.2 -820.2 -304.7 -830.6 -149.75 -827.7 -97.5 -823.4 1.5 -815.35 59.4 -804.9 132.65 -791.7 162.15 -771.55 171.75 -764.95 179.25 -753.6 184.4 -745.8 185.3 -744.55 189.05 -739.5 193.35 -735.6 204.6 -725.5 226.7 -717.65 253.6 -708.15 301.45 -700.0 L391.9 -685.3 Q437.95 -677.8 460.75 -672.6 490.7 -665.8 504.65 -658.2 520.05 -649.8 520.05 -638.35 520.05 -633.1 515.9 -628.55 L515.7 -628.35 506.05 -619.7 Q499.6 -613.8 496.4 -607.15 492.05 -598.1 492.05 -585.35 492.05 -563.45 503.25 -548.45 510.3 -538.95 527.85 -526.55 L541.05 -517.0 Q548.1 -511.4 552.5 -506.05 563.7 -492.4 563.7 -472.85 L563.95 -470.1 Q564.05 -468.15 563.15 -466.85 560.55 -463.0 548.5 -463.0 514.55 -463.0 484.1 -464.55 L424.35 -467.9 Q328.85 -472.85 147.5 -472.85 139.85 -472.85 136.25 -477.35 133.4 -480.8 132.6 -487.95 132.1 -492.05 131.7 -500.6 131.0 -507.85 128.65 -515.4 126.35 -522.95 108.85 -541.65 91.35 -560.35 78.0 -562.7 64.7 -565.05 34.7 -581.05 -3.05 -601.2 -36.8 -606.55 -51.25 -608.9 -67.3 -613.85 -77.65 -617.0 -97.95 -624.4 -145.1 -641.6 -179.2 -650.05 -212.75 -658.45 -244.65 -684.5 -249.35 -762.9 -280.7 -805.85" fill="#462060" fill-rule="evenodd" stroke="none"/>
  </g>
</svg>
