<?xml version="1.0" encoding="UTF-8" standalone="no"?>
<svg xmlns:ffdec="https://www.free-decompiler.com/flash" xmlns:xlink="http://www.w3.org/1999/xlink" ffdec:objectType="shape" height="386.45px" width="1278.8px" xmlns="http://www.w3.org/2000/svg">
  <g transform="matrix(1.0, 0.0, 0.0, 1.0, 668.15, 394.25)">
    <path d="M312.65 -294.25 L312.75 -294.3 311.75 -294.25 312.65 -294.25 M284.0 -221.25 Q267.25 -226.4 254.65 -226.4 196.2 -226.4 174.9 -201.6 169.35 -195.2 164.95 -184.6 L162.4 -178.95 Q161.1 -176.85 159.5 -176.85 L100.0 -185.5 Q38.5 -194.2 26.35 -194.2 -62.5 -194.2 -157.1 -170.0 -171.45 -166.35 -189.85 -161.15 L-217.1 -153.4 Q-244.3 -145.85 -254.65 -145.85 -265.05 -145.85 -267.5 -148.6 -268.75 -150.05 -267.9 -151.75 -267.9 -154.1 -265.25 -157.8 -262.6 -161.5 -262.6 -163.4 -262.6 -166.4 -263.75 -175.8 -264.9 -185.3 -266.1 -192.25 L-266.1 -192.6 Q-274.2 -194.45 -288.55 -189.1 -301.25 -184.35 -315.55 -175.35 -329.1 -166.75 -338.25 -158.15 -347.75 -149.05 -347.75 -144.25 -347.75 -138.65 -345.05 -127.6 -342.4 -116.55 -342.4 -111.85 -342.4 -109.55 -350.05 -97.05 L-367.35 -69.4 Q-393.2 -27.4 -396.15 -9.75 L-397.5 -8.75 Q-399.1 -7.8 -401.95 -7.8 -405.75 -7.8 -419.2 -16.1 -431.75 -23.8 -448.15 -35.7 -464.7 -47.85 -477.75 -58.95 -492.05 -71.15 -497.15 -77.95 -519.25 -107.4 -547.4 -153.55 -549.45 -156.95 -556.5 -172.2 -562.5 -185.25 -567.85 -192.6 -573.75 -200.6 -585.45 -204.65 -593.35 -207.4 -607.8 -209.35 -624.0 -211.45 -628.65 -212.7 -638.45 -215.35 -641.35 -220.85 -654.1 -244.9 -659.3 -257.95 -664.3 -270.3 -666.45 -280.85 -668.15 -289.05 -668.15 -296.15 -668.15 -302.65 -667.65 -306.4 L-667.6 -306.4 Q-658.4 -314.2 -647.65 -314.65 -636.85 -315.15 -608.85 -314.9 L-496.35 -316.05 Q-435.65 -316.75 -406.3 -317.35 -368.45 -315.2 -355.7 -321.65 -347.5 -325.8 -349.85 -333.6 L-350.25 -334.9 Q-351.1 -339.05 -351.25 -343.55 -351.75 -353.35 -349.3 -364.5 -338.55 -373.85 -306.05 -373.25 -270.9 -372.7 -258.65 -359.05 -255.05 -355.0 -252.3 -349.75 L-251.8 -348.8 -248.85 -342.45 -245.25 -333.6 -245.2 -333.45 Q-242.85 -329.0 -238.15 -326.35 -235.8 -325.0 -229.15 -323.9 -196.1 -318.3 -56.9 -318.3 L-36.05 -319.55 -11.95 -318.95 Q4.35 -318.5 65.65 -319.75 119.3 -320.8 137.3 -326.25 L141.7 -327.85 Q147.05 -330.4 149.95 -333.6 155.0 -340.3 152.7 -349.5 151.65 -353.6 151.2 -358.0 150.15 -369.0 153.0 -381.45 L153.5 -383.65 Q250.6 -404.8 347.7 -383.65 349.15 -379.4 350.9 -375.5 352.25 -372.5 353.85 -369.75 360.65 -357.55 371.25 -348.75 382.25 -339.55 398.05 -333.6 408.1 -330.4 420.2 -328.3 443.05 -324.4 472.85 -324.4 L489.4 -325.95 504.75 -327.55 582.25 -329.3 592.3 -328.85 602.7 -329.3 Q609.15 -329.3 610.35 -323.3 610.75 -321.45 610.65 -319.05 L610.35 -316.9 Q610.35 -310.75 606.6 -302.15 599.05 -285.25 576.85 -258.65 566.05 -245.75 549.8 -228.3 L529.2 -206.05 Q521.2 -197.05 496.7 -178.45 472.4 -160.1 464.75 -151.15 461.95 -147.9 454.55 -137.75 L441.25 -119.9 Q424.15 -97.45 419.1 -97.45 418.65 -97.45 402.6 -116.55 386.8 -135.4 380.25 -143.65 374.8 -150.65 358.85 -157.25 347.5 -161.95 327.6 -167.55 L299.45 -175.55 Q287.2 -179.5 287.2 -182.15 L294.1 -196.15 Q300.95 -209.95 300.95 -212.0 300.95 -216.1 284.0 -221.25 M-556.85 -284.55 L-558.75 -284.35 -557.15 -284.35 -556.85 -284.55 M-599.25 -280.25 L-599.0 -280.35 -600.2 -280.25 -599.25 -280.25 M-29.0 -272.35 Q-29.0 -272.75 -30.65 -273.2 -32.05 -272.4 -33.7 -272.35 L-29.0 -272.35 M-169.6 -272.4 L-169.15 -272.35 -169.15 -272.6 -169.6 -272.4" fill="#462060" fill-rule="evenodd" stroke="none"/>
  </g>
</svg>
