<?xml version="1.0" encoding="UTF-8" standalone="no"?>
<svg xmlns:ffdec="https://www.free-decompiler.com/flash" xmlns:xlink="http://www.w3.org/1999/xlink" ffdec:objectType="shape" height="601.35px" width="1504.0px" xmlns="http://www.w3.org/2000/svg">
  <g transform="matrix(1.0, 0.0, 0.0, 1.0, 738.95, 441.4)">
    <path d="M675.1 -433.4 Q765.05 -421.9 765.05 -400.45 765.05 -398.1 758.5 -387.15 L757.4 -385.3 Q752.35 -377.1 749.95 -374.2 747.55 -371.15 747.25 -366.65 746.9 -361.45 746.3 -360.25 744.8 -357.2 738.95 -355.75 732.0 -353.95 716.95 -353.7 687.5 -353.05 673.2 -336.4 667.9 -330.2 665.2 -322.4 663.1 -316.2 663.1 -310.6 663.1 -301.4 676.35 -280.15 680.6 -273.3 684.85 -267.15 L687.95 -267.25 Q687.95 -266.95 688.5 -266.0 689.0 -265.0 689.0 -262.15 L689.0 -261.4 689.5 -260.75 Q689.5 -257.4 687.0 -255.55 684.9 -254.0 681.95 -254.0 L679.15 -254.4 Q673.75 -254.15 661.3 -254.25 L636.55 -254.4 Q604.6 -251.25 565.8 -254.35 523.85 -257.7 482.35 -267.6 441.15 -277.4 410.55 -291.25 378.5 -305.75 365.6 -321.45 353.75 -335.85 306.0 -340.2 L252.95 -342.05 Q266.5 -370.2 344.6 -401.95 422.65 -433.7 555.05 -441.4 L603.95 -439.65 Q643.1 -437.45 675.1 -433.4 M743.95 -150.5 Q743.95 -145.2 742.25 -139.85 736.85 -123.3 714.65 -107.05 691.0 -89.75 649.8 -73.7 619.45 -61.85 584.0 -52.3 556.0 -44.75 551.75 -44.75 542.75 -44.75 538.85 -47.45 536.95 -48.75 534.3 -53.4 531.95 -57.6 528.05 -59.4 522.3 -62.1 510.15 -62.1 459.75 -62.1 396.25 -40.65 376.65 -34.0 356.45 -25.5 339.9 -18.25 338.4 -17.75 308.9 -7.55 289.1 9.55 270.4 25.8 263.9 45.05 259.2 58.85 257.2 62.5 252.75 70.6 243.55 76.1 233.05 82.4 212.2 88.15 190.65 94.1 152.25 101.15 114.8 108.15 6.9 125.65 -118.35 146.0 -132.65 146.0 -144.6 146.0 -145.45 127.9 -145.65 123.1 -145.1 112.75 -144.55 103.5 -144.95 100.2 -146.3 90.3 -156.8 74.3 L-163.8 63.8 Q-166.9 58.95 -166.9 57.1 L-158.95 32.35 Q-150.95 7.2 -150.95 2.95 -150.95 -3.7 -153.8 -12.3 -157.6 -23.6 -164.9 -32.7 -185.45 -58.25 -226.5 -58.25 -259.4 -58.25 -293.7 -49.1 -325.5 -40.6 -355.25 -25.25 -383.5 -10.6 -405.8 8.1 -427.85 26.5 -440.1 45.55 -443.45 50.85 -444.9 59.7 -445.65 64.55 -446.25 76.2 -446.9 87.0 -447.95 92.3 -449.55 100.6 -453.45 105.25 L-478.5 137.55 Q-495.6 159.95 -496.05 159.95 -516.35 159.95 -551.4 117.35 -562.8 103.5 -576.55 84.05 L-593.05 60.45 Q-610.45 36.5 -623.8 11.15 -638.2 -16.1 -645.6 -40.65 -655.2 -71.85 -659.2 -90.4 -665.45 -119.3 -664.95 -142.3 -663.8 -187.7 -692.2 -215.7 -699.45 -222.8 -711.9 -231.3 -720.85 -237.4 -720.85 -239.4 -720.85 -241.8 -718.9 -257.35 -716.95 -272.85 -716.95 -275.25 -716.95 -299.65 -727.95 -329.55 L-729.95 -334.7 -735.5 -348.55 Q-738.95 -357.1 -738.95 -359.6 L-738.7 -363.5 Q-738.25 -365.55 -736.1 -366.85 -730.8 -369.9 -711.5 -369.9 -698.2 -369.9 -695.2 -368.8 -693.55 -368.25 -692.95 -366.95 L-692.9 -366.8 Q-592.4 -367.65 -560.15 -366.95 L-517.2 -364.4 Q-498.15 -362.15 -481.7 -357.55 -465.25 -352.9 -447.0 -344.6 -430.2 -337.0 -406.2 -323.7 -389.2 -314.3 -352.75 -293.05 L-279.85 -250.7 Q-239.9 -227.05 -222.05 -217.35 -192.6 -201.4 -165.85 -192.9 -138.0 -184.05 -125.3 -180.85 -103.95 -175.55 -70.4 -170.5 -57.5 -168.55 -16.4 -165.95 L97.7 -160.35 Q273.15 -153.65 491.1 -153.65 560.65 -153.65 620.75 -156.4 L658.2 -158.3 Q675.0 -163.05 713.3 -163.05 729.8 -163.05 738.45 -157.05 741.2 -155.1 742.8 -152.75 743.95 -151.15 743.95 -150.5 M414.6 -350.7 L415.0 -349.0 415.0 -350.0 414.6 -350.7 M486.0 -372.1 L486.0 -373.1 484.8 -373.4 486.0 -372.1 M6.1 -124.3 L5.0 -124.0 6.0 -124.0 6.1 -124.3 M711.2 -129.15 L710.1 -128.0 711.1 -129.0 711.2 -129.15 M693.15 -138.3 L692.1 -138.0 693.1 -138.0 693.15 -138.3 M-446.0 -313.0 L-447.0 -313.0 -445.85 -312.5 -446.0 -313.0 M-428.0 -303.0 L-426.45 -302.15 -426.6 -302.35 Q-427.25 -303.0 -428.0 -303.0 M-628.55 -328.25 L-630.0 -328.0 -629.1 -328.0 -628.55 -328.25 M-439.05 -300.3 L-438.0 -299.0 -438.0 -300.0 -439.05 -300.3 M-632.15 -332.95 L-632.3 -332.65 -632.1 -332.05 -632.15 -332.95 M-182.95 -176.65 L-182.35 -176.1 -181.0 -176.0 -182.95 -176.65 M-117.75 -150.0 L-117.8 -150.0 -117.75 -150.0 -116.0 -150.0 -116.0 -150.1 -116.05 -150.95 -116.2 -150.7 Q-116.75 -150.0 -117.75 -150.0 M-679.35 -324.45 L-681.1 -324.0 -680.1 -324.0 -679.35 -324.45" fill="#462060" fill-rule="evenodd" stroke="none"/>
  </g>
</svg>
