<?xml version="1.0" encoding="UTF-8" standalone="no"?>
<svg xmlns:ffdec="https://www.free-decompiler.com/flash" xmlns:xlink="http://www.w3.org/1999/xlink" ffdec:objectType="shape" height="1227.95px" width="1482.6px" xmlns="http://www.w3.org/2000/svg">
  <g transform="matrix(1.0, 0.0, 0.0, 1.0, 722.45, 1025.2)">
    <path d="M-703.8 -1016.1 Q-674.85 -1021.55 -585.95 -1024.3 -585.95 -1025.05 -530.75 -1025.2 -397.5 -1016.5 -307.95 -1003.1 -232.0 -991.7 -178.15 -975.4 -142.2 -964.5 -97.3 -944.55 L-61.25 -928.6 Q-40.05 -919.55 -20.8 -912.75 -5.05 -907.2 13.45 -898.35 23.5 -893.45 47.05 -881.15 69.35 -869.45 82.9 -863.05 104.1 -853.0 124.0 -845.75 134.05 -842.15 240.4 -814.05 L307.1 -796.25 Q331.55 -794.95 354.95 -783.65 363.8 -779.4 370.7 -774.55 376.35 -770.55 376.35 -769.65 376.35 -766.4 335.85 -746.55 311.0 -734.35 270.95 -715.95 263.6 -715.95 261.85 -729.2 261.3 -733.45 261.35 -739.15 L261.55 -745.35 Q257.9 -746.8 252.65 -746.8 229.6 -746.8 200.5 -734.6 176.1 -724.4 150.35 -707.0 128.75 -692.3 112.7 -677.25 97.9 -663.3 97.9 -658.85 97.9 -656.45 99.85 -645.35 101.8 -634.3 101.8 -631.85 101.8 -619.95 78.3 -609.25 71.4 -606.1 57.25 -600.85 42.9 -595.55 37.5 -593.15 3.25 -577.5 -16.4 -569.0 -52.45 -553.35 -59.7 -553.35 -65.7 -553.35 -69.9 -555.3 -69.9 -558.1 -71.55 -564.5 -73.5 -572.25 -76.55 -579.0 -85.15 -598.15 -97.1 -598.15 -125.05 -598.15 -155.2 -552.4 -164.4 -538.55 -175.4 -517.55 L-185.2 -499.1 Q-185.35 -497.85 -185.85 -497.1 -186.25 -496.5 -187.0 -495.95 L-187.85 -494.6 -188.85 -494.85 -190.9 -494.0 Q-199.9 -490.7 -225.3 -488.6 L-239.5 -483.75 Q-243.0 -481.35 -243.25 -481.35 L-247.0 -481.45 Q-261.5 -477.25 -268.85 -477.25 -276.7 -477.25 -278.3 -496.85 L-278.6 -503.2 Q-280.2 -509.1 -280.25 -517.25 L-280.4 -527.6 Q-285.25 -551.45 -296.3 -576.75 -300.2 -585.5 -323.8 -632.4 -342.35 -669.1 -342.35 -673.8 L-336.8 -693.65 Q-331.35 -713.45 -331.35 -718.4 -331.35 -723.2 -334.25 -733.2 -338.25 -747.1 -345.4 -758.65 -367.05 -793.55 -407.95 -793.55 -441.2 -793.55 -455.8 -743.2 -458.8 -733.0 -463.75 -724.55 -466.1 -720.6 -472.3 -712.05 -477.2 -705.35 -479.15 -700.8 -481.95 -694.2 -481.95 -685.85 -481.95 -674.0 -478.9 -648.5 -475.9 -623.05 -475.9 -612.85 -475.9 -612.15 -523.75 -571.2 -540.0 -571.2 -554.25 -612.95 -562.25 -636.35 -570.85 -679.1 L-581.3 -733.2 Q-587.5 -765.1 -592.8 -786.5 -595.05 -796.0 -603.9 -813.75 L-618.4 -841.7 Q-620.05 -844.95 -628.05 -847.3 L-644.05 -851.15 Q-654.25 -853.65 -659.2 -856.7 -665.9 -860.9 -666.0 -867.45 -666.0 -877.9 -671.5 -894.45 -678.0 -913.0 -698.75 -953.65 L-701.35 -958.7 -715.45 -986.5 Q-719.65 -995.15 -720.9 -999.25 L-721.1 -999.95 -721.65 -1001.05 Q-722.45 -1002.4 -722.45 -1005.25 -722.45 -1008.85 -719.75 -1010.9 -715.7 -1013.9 -703.8 -1016.1 M655.25 -223.55 L676.45 -222.05 702.7 -219.6 720.55 -217.85 Q731.4 -212.35 760.15 -208.0 753.5 -202.35 733.7 -190.8 L728.45 -187.8 Q700.9 -172.4 694.45 -168.35 685.1 -162.65 634.7 -153.95 L596.35 -147.5 Q576.3 -144.0 568.6 -141.8 552.6 -137.35 532.8 -126.0 514.8 -115.75 497.3 -101.85 480.5 -88.65 469.35 -76.35 457.85 -63.7 456.25 -56.35 453.15 -41.7 462.65 -29.4 469.4 -20.65 485.3 -10.7 L497.9 -3.0 Q505.05 1.35 508.75 4.3 519.2 12.35 517.65 19.85 517.0 22.7 482.95 51.9 445.2 84.3 404.5 115.6 353.45 154.85 317.1 177.15 272.65 204.4 255.75 202.65 252.0 202.25 239.25 193.15 L212.5 173.3 Q173.55 144.4 160.7 143.1 -17.45 124.55 -164.9 144.15 -199.35 148.7 -252.75 159.0 -272.4 162.75 -280.85 163.95 -293.0 165.7 -299.45 165.05 -311.05 163.8 -324.2 115.9 -330.85 91.85 -335.1 67.6 -334.5 64.75 -309.8 37.85 -308.1 29.9 -310.35 24.4 -313.3 17.05 -323.8 11.15 -349.6 -3.25 -427.4 -11.35 -442.7 -12.95 -444.4 -56.2 -444.75 -65.65 -444.55 -75.15 -444.25 -87.5 -442.95 -99.9 -441.75 -105.65 -438.65 -108.65 L-431.6 -108.6 Q-424.85 -108.55 -418.1 -108.65 L-418.0 -108.45 Q-417.6 -107.85 -417.6 -106.75 L-414.95 -106.4 Q-379.25 -100.8 -357.5 -98.55 -284.15 -90.9 -220.45 -95.0 -168.25 -98.35 -111.0 -110.75 -89.35 -115.45 -60.05 -122.95 -43.1 -127.25 -8.3 -136.3 58.0 -153.3 108.1 -162.0 166.1 -172.15 229.4 -188.3 L275.4 -200.0 Q300.6 -206.15 321.5 -210.1 374.45 -220.05 443.85 -223.3 525.2 -227.1 655.25 -223.55 M-57.7 -567.85 L-57.9 -568.3 -57.9 -567.85 -57.7 -567.85 M354.05 -769.5 L353.8 -768.7 355.9 -769.2 354.05 -769.5" fill="#462060" fill-rule="evenodd" stroke="none"/>
    <path d="M354.05 -769.5 L355.9 -769.2 353.8 -768.7 354.05 -769.5 M-57.7 -567.85 L-57.9 -567.85 -57.9 -568.3 -57.7 -567.85 Z" fill="none" stroke="#3c1f50" stroke-linecap="round" stroke-linejoin="round" stroke-width="2.0"/>
  </g>
</svg>
