<?xml version="1.0" encoding="UTF-8" standalone="no"?>
<svg xmlns:ffdec="https://www.free-decompiler.com/flash" xmlns:xlink="http://www.w3.org/1999/xlink" ffdec:objectType="shape" height="56.75px" width="118.85px" xmlns="http://www.w3.org/2000/svg">
  <g transform="matrix(1.0, 0.0, 0.0, 1.0, 62.05, 35.5)">
    <path d="M20.2 2.25 Q26.0 -0.9 34.9 0.05 32.55 4.85 24.4 9.95 20.5 11.6 20.2 9.95 22.3 6.2 20.2 2.25" fill="url(#gradient0)" fill-rule="evenodd" stroke="none"/>
    <path d="M20.2 2.25 Q26.0 -0.9 34.9 0.05 32.55 4.85 24.4 9.95 20.5 11.6 20.2 9.95 22.3 6.2 20.2 2.25 Z" fill="none" stroke="#462060" stroke-linecap="round" stroke-linejoin="round" stroke-opacity="0.2509804" stroke-width="0.05"/>
    <path d="M-2.9 -33.6 Q-3.65 -35.75 -1.55 -35.45 5.3 -33.4 13.55 -22.2 4.45 -23.8 -6.15 -21.7 -0.15 -27.3 -2.9 -33.6" fill="url(#gradient1)" fill-rule="evenodd" stroke="none"/>
    <path d="M-2.9 -33.6 Q-3.65 -35.75 -1.55 -35.45 5.3 -33.4 13.55 -22.2 4.45 -23.8 -6.15 -21.7 -0.15 -27.3 -2.9 -33.6 Z" fill="none" stroke="#462060" stroke-linecap="round" stroke-linejoin="round" stroke-opacity="0.2509804" stroke-width="0.05"/>
    <path d="M14.05 -11.95 Q13.7 -17.3 17.0 -22.45 13.7 -17.3 14.05 -11.95 3.7 -12.6 -6.9 -8.95 -10.0 -12.0 -11.1 -21.05 -10.0 -12.0 -6.9 -8.95 -10.8 -7.7 -15.0 -5.55 -20.1 -1.9 -17.55 0.05 L-18.1 0.1 Q-21.05 0.55 -24.15 2.0 -28.35 3.9 -32.9 7.55 -38.3 11.3 -42.2 11.05 L-44.55 10.75 Q-43.7 8.65 -42.3 7.15 L-45.45 6.9 Q-45.15 3.55 -42.25 -0.05 -36.65 -5.75 -30.95 -10.1 -21.1 -17.65 -11.1 -21.05 2.75 -25.7 17.0 -22.45 28.35 -19.85 39.85 -12.25 35.75 -11.75 33.15 -10.0 L31.05 -8.2 Q22.45 -11.4 14.05 -11.95 M-30.95 -10.1 Q-29.1 -1.85 -24.15 2.0 -29.1 -1.85 -30.95 -10.1" fill="url(#gradient2)" fill-rule="evenodd" stroke="none"/>
    <path d="M31.05 -8.2 L33.15 -10.0 Q35.75 -11.75 39.85 -12.25 52.2 -6.0 52.6 3.95 50.6 4.5 45.3 1.45 37.4 -3.2 39.55 5.25 40.05 7.1 45.2 8.0 37.25 6.8 28.2 3.55 27.45 -4.2 31.05 -8.2 M39.5 -2.0 Q39.95 -2.35 39.9 -2.95 39.85 -3.5 39.3 -3.75 L38.15 -4.35 37.15 -4.25 Q36.65 -3.75 36.65 -3.05 36.65 -2.35 37.2 -2.2 L38.4 -1.8 39.5 -2.0" fill="url(#gradient3)" fill-rule="evenodd" stroke="none"/>
    <path d="M39.5 -2.0 L38.4 -1.8 37.2 -2.2 Q36.65 -2.35 36.65 -3.05 36.65 -3.75 37.15 -4.25 L38.15 -4.35 39.3 -3.75 Q39.85 -3.5 39.9 -2.95 39.95 -2.35 39.5 -2.0" fill="url(#gradient4)" fill-rule="evenodd" stroke="none"/>
    <path d="M14.05 -11.95 Q22.45 -11.4 31.05 -8.2 27.45 -4.2 28.2 3.55 13.45 4.0 -3.0 0.95 -10.9 -0.95 -17.55 0.05 -20.1 -1.9 -15.0 -5.55 -10.8 -7.7 -6.9 -8.95 3.7 -12.6 14.05 -11.95" fill="url(#gradient5)" fill-rule="evenodd" stroke="none"/>
    <path d="M45.3 1.45 Q50.6 4.5 52.6 3.95 56.15 8.25 56.7 10.1 52.6 8.15 45.3 1.45" fill="url(#gradient6)" fill-rule="evenodd" stroke="none"/>
    <path d="M45.3 1.45 Q52.6 8.15 56.7 10.1 57.75 13.7 47.65 8.35 L45.2 8.0 Q40.05 7.1 39.55 5.25 37.4 -3.2 45.3 1.45" fill="url(#gradient7)" fill-rule="evenodd" stroke="none"/>
    <path d="M-42.2 11.05 Q-42.65 14.1 -44.85 18.2 -48.8 23.05 -48.85 20.2 -48.3 17.25 -48.45 14.45 -54.4 15.05 -60.35 16.7 -63.7 16.75 -60.35 13.35 -50.8 7.85 -45.45 6.9 L-42.3 7.15 Q-43.7 8.65 -44.55 10.75 L-42.2 11.05" fill="url(#gradient8)" fill-rule="evenodd" stroke="none"/>
    <path d="M17.0 -22.45 Q13.7 -17.3 14.05 -11.95 22.45 -11.4 31.05 -8.2 L33.15 -10.0 Q35.75 -11.75 39.85 -12.25 28.35 -19.85 17.0 -22.45 2.75 -25.7 -11.1 -21.05 -10.0 -12.0 -6.9 -8.95 3.7 -12.6 14.05 -11.95 M39.5 -2.0 L38.4 -1.8 37.2 -2.2 Q36.65 -2.35 36.65 -3.05 36.65 -3.75 37.15 -4.25 L38.15 -4.35 39.3 -3.75 Q39.85 -3.5 39.9 -2.95 39.95 -2.35 39.5 -2.0 M52.6 3.95 Q50.6 4.5 45.3 1.45 52.6 8.15 56.7 10.1 56.15 8.25 52.6 3.95 52.2 -6.0 39.85 -12.25 M56.7 10.1 Q57.75 13.7 47.65 8.35 L45.2 8.0 Q37.25 6.8 28.2 3.55 13.45 4.0 -3.0 0.95 -10.9 -0.95 -17.55 0.05 L-18.1 0.1 Q-21.05 0.55 -24.15 2.0 -28.35 3.9 -32.9 7.55 -38.3 11.3 -42.2 11.05 -42.65 14.1 -44.85 18.2 -48.8 23.05 -48.85 20.2 -48.3 17.25 -48.45 14.45 -54.4 15.05 -60.35 16.7 -63.7 16.75 -60.35 13.35 -50.8 7.85 -45.45 6.9 -45.15 3.55 -42.25 -0.05 -36.65 -5.75 -30.95 -10.1 -21.1 -17.65 -11.1 -21.05 M45.3 1.45 Q37.4 -3.2 39.55 5.25 40.05 7.1 45.2 8.0 M31.05 -8.2 Q27.45 -4.2 28.2 3.55 M-6.9 -8.95 Q-10.8 -7.7 -15.0 -5.55 -20.1 -1.9 -17.55 0.05 M-42.2 11.05 L-44.55 10.75 Q-43.7 8.65 -42.3 7.15 L-45.45 6.9 M-24.15 2.0 Q-29.1 -1.85 -30.95 -10.1" fill="none" stroke="#462060" stroke-linecap="round" stroke-linejoin="round" stroke-opacity="0.2509804" stroke-width="0.05"/>
  </g>
  <defs>
    <radialGradient cx="0" cy="0" gradientTransform="matrix(0.0231, -0.0201, 0.0231, 0.0089, 17.35, -5.6)" gradientUnits="userSpaceOnUse" id="gradient0" r="819.2" spreadMethod="pad">
      <stop offset="0.0" stop-color="#8bb9fc"/>
      <stop offset="0.3607843137254902" stop-color="#c9defd"/>
      <stop offset="0.47843137254901963" stop-color="#ffffff"/>
      <stop offset="0.5882352941176471" stop-color="#785cbc"/>
      <stop offset="1.0" stop-color="#e099ff"/>
    </radialGradient>
    <radialGradient cx="0" cy="0" gradientTransform="matrix(0.0286, 0.0165, -0.0085, 0.0147, 1.5, -23.65)" gradientUnits="userSpaceOnUse" id="gradient1" r="819.2" spreadMethod="pad">
      <stop offset="0.0" stop-color="#e099ff"/>
      <stop offset="0.3607843137254902" stop-color="#785cbc"/>
      <stop offset="0.47843137254901963" stop-color="#ffffff"/>
      <stop offset="0.5803921568627451" stop-color="#c9defd"/>
      <stop offset="1.0" stop-color="#8bb9fc"/>
    </radialGradient>
    <radialGradient cx="0" cy="0" gradientTransform="matrix(0.128, -0.0152, 0.0067, 0.0558, -6.25, 6.5)" gradientUnits="userSpaceOnUse" id="gradient2" r="819.2" spreadMethod="pad">
      <stop offset="0.0" stop-color="#e099ff"/>
      <stop offset="0.396078431372549" stop-color="#785cbc"/>
      <stop offset="0.47843137254901963" stop-color="#ffffff"/>
      <stop offset="0.5333333333333333" stop-color="#c9defd"/>
      <stop offset="1.0" stop-color="#8bb9fc"/>
    </radialGradient>
    <radialGradient cx="0" cy="0" gradientTransform="matrix(0.046, 0.009, -0.0039, 0.02, 47.85, -4.45)" gradientUnits="userSpaceOnUse" id="gradient3" r="819.2" spreadMethod="pad">
      <stop offset="0.0" stop-color="#8bb9fc"/>
      <stop offset="0.3607843137254902" stop-color="#c9defd"/>
      <stop offset="0.47843137254901963" stop-color="#ffffff"/>
      <stop offset="0.5882352941176471" stop-color="#785cbc"/>
      <stop offset="1.0" stop-color="#e099ff"/>
    </radialGradient>
    <radialGradient cx="0" cy="0" gradientTransform="matrix(0.0032, 0.0, 0.0, 0.0032, 38.3, -5.05)" gradientUnits="userSpaceOnUse" id="gradient4" r="819.2" spreadMethod="pad">
      <stop offset="0.0" stop-color="#8bb9fc"/>
      <stop offset="0.3607843137254902" stop-color="#c9defd"/>
      <stop offset="0.47843137254901963" stop-color="#ffffff"/>
      <stop offset="0.5882352941176471" stop-color="#785cbc"/>
      <stop offset="1.0" stop-color="#e099ff"/>
    </radialGradient>
    <radialGradient cx="0" cy="0" gradientTransform="matrix(0.081, 0.0047, -0.0016, 0.0271, 6.3, 1.05)" gradientUnits="userSpaceOnUse" id="gradient5" r="819.2" spreadMethod="pad">
      <stop offset="0.0" stop-color="#e099ff"/>
      <stop offset="0.3803921568627451" stop-color="#785cbc"/>
      <stop offset="0.47843137254901963" stop-color="#ffffff"/>
      <stop offset="0.5333333333333333" stop-color="#c9defd"/>
      <stop offset="1.0" stop-color="#8bb9fc"/>
    </radialGradient>
    <radialGradient cx="0" cy="0" gradientTransform="matrix(0.0245, 0.0066, -0.0044, 0.0164, 54.9, 1.05)" gradientUnits="userSpaceOnUse" id="gradient6" r="819.2" spreadMethod="pad">
      <stop offset="0.0" stop-color="#8bb9fc"/>
      <stop offset="0.3607843137254902" stop-color="#c9defd"/>
      <stop offset="0.47843137254901963" stop-color="#ffffff"/>
      <stop offset="0.5882352941176471" stop-color="#785cbc"/>
      <stop offset="1.0" stop-color="#e099ff"/>
    </radialGradient>
    <radialGradient cx="0" cy="0" gradientTransform="matrix(0.0282, 0.0114, -0.0045, 0.0112, 52.6, 3.95)" gradientUnits="userSpaceOnUse" id="gradient7" r="819.2" spreadMethod="pad">
      <stop offset="0.0" stop-color="#8bb9fc"/>
      <stop offset="0.3607843137254902" stop-color="#c9defd"/>
      <stop offset="0.47843137254901963" stop-color="#ffffff"/>
      <stop offset="0.5882352941176471" stop-color="#785cbc"/>
      <stop offset="1.0" stop-color="#e099ff"/>
    </radialGradient>
    <radialGradient cx="0" cy="0" gradientTransform="matrix(0.0588, -0.0158, 0.0105, 0.0393, -45.7, 22.2)" gradientUnits="userSpaceOnUse" id="gradient8" r="819.2" spreadMethod="pad">
      <stop offset="0.0" stop-color="#e099ff"/>
      <stop offset="0.40784313725490196" stop-color="#785cbc"/>
      <stop offset="0.4627450980392157" stop-color="#ffffff"/>
      <stop offset="0.5803921568627451" stop-color="#c9defd"/>
      <stop offset="1.0" stop-color="#8bb9fc"/>
    </radialGradient>
  </defs>
</svg>
