<?xml version="1.0" encoding="UTF-8" standalone="no"?>
<svg xmlns:ffdec="https://www.free-decompiler.com/flash" xmlns:xlink="http://www.w3.org/1999/xlink" ffdec:objectType="shape" height="26.1px" width="52.2px" xmlns="http://www.w3.org/2000/svg">
  <g transform="matrix(1.0, 0.0, 0.0, 1.0, 27.7, 12.95)">
    <path d="M9.5 -10.55 L13.2 -10.45 Q14.35 -10.1 14.85 -9.1 L15.3 -9.4 15.25 -10.8 Q15.95 -10.35 16.3 -9.3 L17.9 -8.1 24.5 -12.95 19.05 -6.7 21.5 -3.65 Q21.7 -2.95 21.15 -2.05 L20.3 -2.45 20.55 -2.05 19.95 -1.9 Q19.5 -2.05 19.3 -2.45 L19.05 -2.7 Q18.65 -3.1 18.05 -3.3 L15.95 -3.95 15.9 -3.9 15.65 -4.05 Q15.2 -4.25 14.85 -4.6 L13.85 -4.2 13.75 -4.15 Q12.8 -3.65 11.95 -2.95 L11.75 -2.75 Q10.9 -1.9 10.5 -0.85 L10.3 -0.4 9.75 0.9 9.7 1.1 9.4 2.35 8.4 3.85 7.9 4.45 7.75 4.55 8.25 5.15 9.0 5.8 10.85 6.65 12.4 7.35 Q13.0 8.2 11.85 8.45 L11.75 8.55 8.05 12.05 7.85 12.0 7.35 12.15 Q5.8 12.15 4.25 11.25 L6.15 10.2 7.65 11.0 7.95 10.7 Q8.7 10.5 9.25 10.0 L10.15 8.7 10.55 7.95 10.7 7.8 Q9.3 7.1 7.7 6.9 L5.1 6.3 4.55 6.1 3.95 7.05 2.25 8.3 Q1.75 8.5 1.45 8.95 L0.3 10.6 -0.5 11.85 Q-0.85 12.3 -1.3 12.35 L-6.35 12.55 -6.45 12.3 -6.85 12.4 -9.4 11.65 Q-9.65 12.65 -10.1 13.15 L-11.0 10.95 -10.5 9.9 -11.3 9.3 Q-12.1 8.65 -13.1 8.3 L-15.2 7.4 -15.8 7.05 Q-16.5 6.95 -16.5 6.15 L-16.45 5.3 Q-16.3 4.75 -15.2 4.55 -14.15 4.35 -13.35 3.45 L-14.8 1.5 -15.15 1.05 Q-15.9 0.0 -16.0 -1.3 L-15.9 -2.45 -15.9 -2.7 -15.8 -2.95 -17.4 -2.5 -18.5 -2.0 Q-19.05 -1.75 -20.1 -0.5 -19.95 -1.25 -18.85 -2.3 L-20.3 -1.0 Q-21.15 -0.5 -22.1 -0.4 L-23.75 -0.5 -23.85 -0.55 Q-24.65 -0.85 -25.35 -1.45 L-25.95 -1.85 -27.7 -2.1 -26.55 -2.65 -25.65 -2.95 -24.45 -3.35 -23.35 -3.45 -22.65 -3.55 -24.4 -3.75 -16.4 -4.7 -14.5 -4.6 -14.45 -4.6 -13.0 -5.7 Q-12.1 -6.25 -11.0 -6.05 L-10.4 -5.9 Q-9.7 -5.9 -9.1 -5.55 L-9.0 -5.5 -8.15 -5.25 -3.6 -4.4 Q-2.55 -5.05 -1.05 -4.8 L1.45 -5.0 Q2.3 -5.2 3.15 -5.0 L3.6 -4.9 3.75 -5.9 4.65 -6.05 Q4.9 -6.45 4.45 -6.95 5.35 -7.05 6.05 -7.8 6.75 -8.45 6.15 -9.1 L8.25 -9.25 7.1 -10.0 9.5 -10.55 M0.8 5.15 Q-0.85 4.85 -2.4 4.15 L-7.15 1.6 -7.2 1.95 Q-7.3 3.45 -8.35 5.3 -8.95 6.35 -9.0 7.2 L-8.35 7.6 -4.05 8.35 Q-3.4 8.45 -3.4 8.9 L-3.3 8.95 Q-2.3 10.15 -1.9 11.1 L-1.8 11.05 -1.4 11.0 -0.8 10.25 Q0.2 9.0 0.65 7.5 L1.65 5.25 0.8 5.15 M-9.45 9.1 Q-9.2 9.25 -9.1 9.8 L-9.25 11.1 -7.9 10.4 -6.1 11.55 -5.5 11.5 -4.05 11.75 -2.9 11.55 -3.85 11.1 -4.35 9.8 -5.15 9.5 -7.1 9.1 -9.1 8.9 -9.45 9.1 M-12.55 5.35 L-14.25 5.95 -13.85 6.5 -10.95 8.05 -10.95 7.5 -10.75 7.0 -10.65 6.8 Q-10.25 6.0 -10.35 4.8 L-12.55 5.35" fill="#ffffff" fill-rule="evenodd" stroke="none"/>
  </g>
</svg>
