<?xml version="1.0" encoding="UTF-8" standalone="no"?>
<svg xmlns:ffdec="https://www.free-decompiler.com/flash" xmlns:xlink="http://www.w3.org/1999/xlink" ffdec:objectType="shape" height="112.55px" width="297.0px" xmlns="http://www.w3.org/2000/svg">
  <g transform="matrix(1.0, 0.0, 0.0, 1.0, 148.5, 51.3)">
    <path d="M-71.45 -40.0 L-71.45 -44.5 Q-71.35 -47.3 -69.9 -49.25 -68.35 -51.3 -66.2 -51.3 L66.2 -51.3 Q68.4 -51.3 69.9 -49.25 71.35 -47.3 71.45 -44.5 L71.45 -40.0 -71.45 -40.0" fill="url(#gradient0)" fill-rule="evenodd" stroke="none"/>
    <path d="M-71.45 -40.0 L71.45 -40.0 137.65 -40.0 Q142.15 -40.0 145.3 -35.85 148.4 -31.9 148.5 -26.25 L148.5 47.6 Q148.4 53.15 145.3 57.15 142.15 61.25 137.65 61.25 L-137.6 61.25 Q-142.1 61.25 -145.35 57.15 -148.4 53.15 -148.5 47.6 L-148.5 -26.25 Q-148.4 -31.9 -145.35 -35.85 -142.1 -40.0 -137.6 -40.0 L-71.45 -40.0" fill="url(#gradient1)" fill-rule="evenodd" stroke="none"/>
    <path d="M71.45 -40.0 L71.45 -44.5 Q71.35 -47.3 69.9 -49.25 68.4 -51.3 66.2 -51.3 L-66.2 -51.3 Q-68.35 -51.3 -69.9 -49.25 -71.35 -47.3 -71.45 -44.5 L-71.45 -40.0 71.45 -40.0 137.65 -40.0 Q142.15 -40.0 145.3 -35.85 148.4 -31.9 148.5 -26.25 L148.5 47.6 Q148.4 53.15 145.3 57.15 142.15 61.25 137.65 61.25 L-137.6 61.25 Q-142.1 61.25 -145.35 57.15 -148.4 53.15 -148.5 47.6 L-148.5 -26.25 Q-148.4 -31.9 -145.35 -35.85 -142.1 -40.0 -137.6 -40.0 L-71.45 -40.0" fill="none" stroke="#ff6fe2" stroke-linecap="round" stroke-linejoin="round" stroke-width="0.05"/>
  </g>
  <defs>
    <linearGradient gradientTransform="matrix(0.0872, 0.0, 0.0, 0.4969, 0.0, 3.15)" gradientUnits="userSpaceOnUse" id="gradient0" spreadMethod="pad" x1="-819.2" x2="819.2">
      <stop offset="0.0" stop-color="#cd09ff" stop-opacity="0.7529412"/>
      <stop offset="1.0" stop-color="#4400aa" stop-opacity="0.7529412"/>
    </linearGradient>
    <linearGradient gradientTransform="matrix(0.1813, 0.0, 0.0, 1.0048, 0.0, 70.1)" gradientUnits="userSpaceOnUse" id="gradient1" spreadMethod="pad" x1="-819.2" x2="819.2">
      <stop offset="0.0" stop-color="#7003c5" stop-opacity="0.7529412"/>
      <stop offset="1.0" stop-color="#4400aa" stop-opacity="0.7529412"/>
    </linearGradient>
  </defs>
</svg>
