<?xml version="1.0" encoding="UTF-8" standalone="no"?>
<svg xmlns:ffdec="https://www.free-decompiler.com/flash" xmlns:xlink="http://www.w3.org/1999/xlink" ffdec:objectType="shape" height="30.0px" width="539.0px" xmlns="http://www.w3.org/2000/svg">
  <g transform="matrix(1.0, 0.0, 0.0, 1.0, 260.0, 15.0)">
    <path d="M-231.05 15.0 L-250.1 15.0 Q-254.2 15.0 -257.15 11.75 -260.0 8.5 -260.0 3.9 L-260.0 -3.85 Q-260.0 -8.5 -257.15 -11.75 -254.2 -15.0 -250.1 -15.0 L-231.05 -15.0 -231.05 15.0" fill="url(#gradient0)" fill-rule="evenodd" stroke="none"/>
    <path d="M239.05 -15.0 L269.15 -15.0 Q273.25 -15.0 276.1 -11.75 279.0 -8.5 279.0 -3.85 L279.0 3.9 Q279.0 8.5 276.1 11.75 273.25 15.0 269.15 15.0 L239.05 15.0 239.05 -15.0" fill="url(#gradient1)" fill-rule="evenodd" stroke="none"/>
    <path d="M239.05 -15.0 L239.05 15.0 -230.9 15.0 -230.9 -15.0 239.05 -15.0" fill="url(#gradient2)" fill-rule="evenodd" stroke="none"/>
    <path d="M239.05 15.0 L269.15 15.0 Q273.25 15.0 276.1 11.75 279.0 8.5 279.0 3.9 L279.0 -3.85 Q279.0 -8.5 276.1 -11.75 273.25 -15.0 269.15 -15.0 L239.05 -15.0 -230.9 -15.0 M239.05 15.0 L-230.9 15.0 M-231.05 -15.0 L-250.1 -15.0 Q-254.2 -15.0 -257.15 -11.75 -260.0 -8.5 -260.0 -3.85 L-260.0 3.9 Q-260.0 8.5 -257.15 11.75 -254.2 15.0 -250.1 15.0 L-231.05 15.0" fill="none" stroke="#ff6fe2" stroke-linecap="round" stroke-linejoin="round" stroke-width="0.05"/>
  </g>
  <defs>
    <linearGradient gradientTransform="matrix(0.1648, 0.0, 0.0, 0.0183, -125.0, 0.0)" gradientUnits="userSpaceOnUse" id="gradient0" spreadMethod="pad" x1="-819.2" x2="819.2">
      <stop offset="0.0" stop-color="#cd09ff" stop-opacity="0.7529412"/>
      <stop offset="1.0" stop-color="#4400aa" stop-opacity="0.7529412"/>
    </linearGradient>
    <linearGradient gradientTransform="matrix(0.1648, 0.0, 0.0, 0.0183, 144.0, 0.0)" gradientUnits="userSpaceOnUse" id="gradient1" spreadMethod="pad" x1="-819.2" x2="819.2">
      <stop offset="0.0" stop-color="#cd09ff" stop-opacity="0.7529412"/>
      <stop offset="1.0" stop-color="#4400aa" stop-opacity="0.7529412"/>
    </linearGradient>
    <linearGradient gradientTransform="matrix(0.3853, 0.0, 0.0, 0.0183, 17.05, 0.0)" gradientUnits="userSpaceOnUse" id="gradient2" spreadMethod="pad" x1="-819.2" x2="819.2">
      <stop offset="0.0" stop-color="#cd09ff" stop-opacity="0.7529412"/>
      <stop offset="1.0" stop-color="#4400aa" stop-opacity="0.7529412"/>
    </linearGradient>
  </defs>
</svg>
