<?xml version="1.0" encoding="UTF-8" standalone="no"?>
<svg xmlns:ffdec="https://www.free-decompiler.com/flash" xmlns:xlink="http://www.w3.org/1999/xlink" ffdec:objectType="shape" height="30.0px" width="270.0px" xmlns="http://www.w3.org/2000/svg">
  <g transform="matrix(1.0, 0.0, 0.0, 1.0, 135.0, 15.0)">
    <path d="M125.15 -15.0 Q129.25 -15.0 132.1 -11.75 135.0 -8.5 135.0 -3.85 L135.0 3.9 Q135.0 8.5 132.1 11.75 129.25 15.0 125.15 15.0 L-125.1 15.0 Q-129.2 15.0 -132.15 11.75 -135.0 8.5 -135.0 3.9 L-135.0 -3.85 Q-135.0 -8.5 -132.15 -11.75 -129.2 -15.0 -125.1 -15.0 L125.15 -15.0" fill="url(#gradient0)" fill-rule="evenodd" stroke="none"/>
    <path d="M125.15 -15.0 L-125.1 -15.0 Q-129.2 -15.0 -132.15 -11.75 -135.0 -8.5 -135.0 -3.85 L-135.0 3.9 Q-135.0 8.5 -132.15 11.75 -129.2 15.0 -125.1 15.0 L125.15 15.0 Q129.25 15.0 132.1 11.75 135.0 8.5 135.0 3.9 L135.0 -3.85 Q135.0 -8.5 132.1 -11.75 129.25 -15.0 125.15 -15.0 Z" fill="none" stroke="#ff6fe2" stroke-linecap="round" stroke-linejoin="round" stroke-width="0.05"/>
  </g>
  <defs>
    <linearGradient gradientTransform="matrix(0.1648, 0.0, 0.0, 0.0183, 0.0, 0.0)" gradientUnits="userSpaceOnUse" id="gradient0" spreadMethod="pad" x1="-819.2" x2="819.2">
      <stop offset="0.0" stop-color="#cd09ff" stop-opacity="0.7529412"/>
      <stop offset="1.0" stop-color="#4400aa" stop-opacity="0.7529412"/>
    </linearGradient>
  </defs>
</svg>
