<?xml version="1.0" encoding="UTF-8" standalone="no"?>
<svg xmlns:ffdec="https://www.free-decompiler.com/flash" xmlns:xlink="http://www.w3.org/1999/xlink" ffdec:objectType="shape" height="20.3px" width="91.8px" xmlns="http://www.w3.org/2000/svg">
  <g transform="matrix(1.0, 0.0, 0.0, 1.0, 45.9, 10.15)">
    <path d="M44.05 -7.8 Q45.0 -5.65 45.0 -2.55 L45.0 2.6 Q45.0 5.65 44.05 7.8 43.1 9.95 41.7 9.95 L-41.7 9.95 Q-43.05 9.95 -44.05 7.8 -45.0 5.65 -45.0 2.6 L-45.0 -2.55 Q-45.0 -5.65 -44.05 -7.8 -43.05 -9.95 -41.7 -9.95 L41.7 -9.95 Q43.1 -9.95 44.05 -7.8" fill="url(#gradient0)" fill-rule="evenodd" stroke="none"/>
    <path d="M44.05 -7.8 Q43.1 -9.95 41.7 -9.95 L-41.7 -9.95 Q-43.05 -9.95 -44.05 -7.8 -45.0 -5.65 -45.0 -2.55 L-45.0 2.6 Q-45.0 5.65 -44.05 7.8 -43.05 9.95 -41.7 9.95 L41.7 9.95 Q43.1 9.95 44.05 7.8 45.0 5.65 45.0 2.6 L45.0 -2.55 Q45.0 -5.65 44.05 -7.8 M44.95 -7.95 Q45.9 -5.75 45.9 -2.6 L45.9 2.65 Q45.9 5.75 44.95 7.95 43.95 10.15 42.55 10.15 L-42.55 10.15 Q-43.9 10.15 -44.95 7.95 -45.9 5.75 -45.9 2.65 L-45.9 -2.6 Q-45.9 -5.75 -44.95 -7.95 -43.9 -10.15 -42.55 -10.15 L42.55 -10.15 Q43.95 -10.15 44.95 -7.95" fill="#ff99ff" fill-opacity="0.5019608" fill-rule="evenodd" stroke="none"/>
    <path d="M44.05 -7.8 Q43.1 -9.95 41.7 -9.95 L-41.7 -9.95 Q-43.05 -9.95 -44.05 -7.8 -45.0 -5.65 -45.0 -2.55 L-45.0 2.6 Q-45.0 5.65 -44.05 7.8 -43.05 9.95 -41.7 9.95 L41.7 9.95 Q43.1 9.95 44.05 7.8 45.0 5.65 45.0 2.6 L45.0 -2.55 Q45.0 -5.65 44.05 -7.8" fill="none" stroke="#ff6fe2" stroke-linecap="round" stroke-linejoin="round" stroke-width="0.05"/>
    <path d="M44.95 -7.95 Q43.95 -10.15 42.55 -10.15 L-42.55 -10.15 Q-43.9 -10.15 -44.95 -7.95 -45.9 -5.75 -45.9 -2.6 L-45.9 2.65 Q-45.9 5.75 -44.95 7.95 -43.9 10.15 -42.55 10.15 L42.55 10.15 Q43.95 10.15 44.95 7.95 45.9 5.75 45.9 2.65 L45.9 -2.6 Q45.9 -5.75 44.95 -7.95 Z" fill="none" stroke="#ff6fe2" stroke-linecap="round" stroke-linejoin="round" stroke-opacity="0.5019608" stroke-width="0.05"/>
  </g>
  <defs>
    <linearGradient gradientTransform="matrix(0.0549, 0.0, 0.0, 0.0122, 0.0, 0.0)" gradientUnits="userSpaceOnUse" id="gradient0" spreadMethod="pad" x1="-819.2" x2="819.2">
      <stop offset="0.0" stop-color="#9906df" stop-opacity="0.9019608"/>
      <stop offset="1.0" stop-color="#4400aa" stop-opacity="0.9019608"/>
    </linearGradient>
  </defs>
</svg>
