<?xml version="1.0" encoding="UTF-8" standalone="no"?>
<svg xmlns:ffdec="https://www.free-decompiler.com/flash" xmlns:xlink="http://www.w3.org/1999/xlink" ffdec:objectType="shape" height="267.4px" width="534.8px" xmlns="http://www.w3.org/2000/svg">
  <g transform="matrix(1.0, 0.0, 0.0, 1.0, 267.4, 133.7)">
    <path d="M113.75 -109.1 Q133.2 -113.25 151.65 -108.1 163.45 -104.5 168.5 -94.25 170.55 -96.3 173.15 -97.35 L172.65 -111.7 Q179.85 -107.05 183.4 -96.3 192.65 -91.7 199.8 -84.05 L267.4 -133.7 211.55 -69.7 236.65 -38.4 Q238.7 -31.25 233.1 -22.0 L224.35 -26.1 226.95 -22.0 Q224.35 -20.0 220.8 -20.5 216.2 -22.0 214.15 -26.1 L211.55 -28.7 Q207.5 -32.8 201.3 -34.8 L179.85 -41.5 179.3 -41.0 Q177.75 -41.5 176.75 -42.55 172.1 -44.6 168.5 -48.15 163.45 -47.15 158.3 -44.05 157.75 -44.05 157.25 -43.55 147.55 -38.4 138.85 -31.25 L136.8 -29.2 Q128.1 -20.5 124.0 -9.7 L121.95 -5.15 Q119.35 2.05 116.25 8.15 115.75 9.2 115.75 10.25 115.75 16.4 112.75 23.05 108.1 31.8 102.45 38.4 L97.35 44.6 95.8 45.55 100.95 51.75 Q103.45 56.35 108.6 58.4 118.35 63.0 127.6 67.1 135.75 70.2 143.4 74.25 149.6 83.0 137.8 85.5 L136.8 86.55 98.9 122.45 Q97.85 121.9 96.85 121.9 L91.7 123.45 Q75.85 123.45 59.95 114.2 L79.4 103.45 94.8 111.65 Q95.8 110.15 97.85 108.6 105.5 106.55 111.2 101.4 117.3 95.3 120.4 88.1 L124.5 80.4 Q125.0 79.4 126.05 78.9 111.7 71.7 95.3 69.7 81.95 67.6 68.65 63.5 65.55 63.0 63.0 61.45 61.0 66.6 56.9 71.2 50.2 79.9 39.45 84.0 34.35 86.0 31.25 90.65 25.6 99.35 19.5 107.55 16.4 113.7 11.25 120.4 7.7 124.95 3.1 125.45 L-48.65 127.5 Q-49.65 126.0 -49.65 124.95 L-53.8 126.0 Q-66.6 124.5 -79.9 118.3 -82.5 128.55 -87.05 133.7 L-96.25 111.2 -91.15 100.35 Q-95.3 96.85 -99.35 94.25 -107.55 87.55 -117.8 84.0 -128.05 79.4 -139.3 74.75 -142.9 73.2 -145.45 71.2 -152.6 70.2 -152.6 61.95 -153.15 59.4 -152.1 53.25 -150.55 47.6 -139.3 45.55 -128.55 43.55 -120.35 34.3 -129.6 25.1 -135.25 14.35 -137.25 12.3 -138.8 9.7 -146.5 -1.05 -147.5 -14.35 -148.05 -20.5 -146.5 -26.1 L-146.5 -28.7 -145.45 -31.25 -161.85 -26.65 -173.15 -21.5 Q-178.75 -19.0 -189.5 -6.15 -188.0 -13.85 -176.7 -24.6 L-191.55 -11.25 Q-200.3 -6.15 -210.0 -5.15 -218.15 -3.6 -226.9 -6.15 L-227.95 -6.7 Q-236.1 -9.7 -243.25 -15.9 L-249.45 -20.0 Q-254.55 -23.55 -267.4 -22.5 L-255.55 -28.2 Q-251.5 -29.2 -246.35 -31.25 L-234.05 -35.35 -222.8 -36.35 -215.6 -37.4 -233.55 -39.45 Q-177.7 -49.15 -151.6 -49.15 -141.35 -50.2 -132.15 -48.15 L-131.65 -48.15 Q-124.95 -54.3 -116.75 -59.45 -107.55 -65.05 -96.25 -63.0 -93.2 -62.5 -90.15 -61.45 -82.95 -61.45 -76.8 -57.9 -76.3 -57.9 -75.8 -57.4 L-67.1 -54.8 -20.45 -46.15 Q-9.7 -52.75 5.65 -50.2 19.0 -48.65 31.25 -52.25 39.95 -54.3 48.7 -52.25 L53.3 -51.2 Q55.35 -56.35 54.8 -61.45 L64.05 -63.0 Q66.6 -67.1 62.0 -72.25 71.25 -73.3 78.35 -80.95 85.55 -87.55 79.4 -94.25 L100.95 -95.8 89.1 -103.45 Q108.6 -107.05 113.75 -109.1 M33.35 52.75 L24.6 51.75 Q7.7 48.65 -8.15 41.5 L-56.8 15.35 Q-57.35 16.9 -57.35 18.9 -58.35 34.3 -69.15 53.25 -75.25 64.0 -75.8 72.7 -73.2 76.3 -69.15 76.8 -47.6 83.0 -25.1 84.55 -18.4 85.5 -18.4 90.15 -17.9 90.15 -17.35 90.65 -7.15 102.95 -3.1 112.65 -2.55 112.65 -2.05 112.15 L2.05 111.65 Q5.15 107.55 8.25 103.95 18.45 91.15 23.05 75.8 27.15 63.5 33.35 52.75 M-76.8 90.15 Q-78.9 91.7 -80.4 92.2 -77.85 93.75 -76.8 99.35 -77.35 106.55 -78.35 112.65 L-64.55 105.5 -46.05 117.3 -39.95 116.8 Q-33.25 119.85 -25.1 119.35 -19.45 118.85 -13.3 117.3 L-23.05 112.65 -28.15 99.35 -36.35 96.3 Q-46.05 92.7 -56.3 92.2 -66.6 90.65 -76.8 90.15 M-125.45 65.55 Q-111.1 74.25 -95.8 81.45 -96.25 78.9 -95.8 75.8 -95.3 72.2 -93.75 70.7 L-92.7 68.65 Q-88.6 60.4 -89.6 48.15 -99.35 52.25 -112.15 53.8 -123.4 55.85 -129.6 59.9 -128.55 63.5 -125.45 65.55" fill="url(#gradient0)" fill-rule="evenodd" stroke="none"/>
  </g>
  <defs>
    <linearGradient gradientTransform="matrix(-0.3264, 3.0E-4, -1.0E-4, -0.1632, 0.0, 0.0)" gradientUnits="userSpaceOnUse" id="gradient0" spreadMethod="pad" x1="-819.2" x2="819.2">
      <stop offset="0.0" stop-color="#cd09ff" stop-opacity="0.7529412"/>
      <stop offset="1.0" stop-color="#4400aa" stop-opacity="0.7529412"/>
    </linearGradient>
  </defs>
</svg>
