<?xml version="1.0" encoding="UTF-8" standalone="no"?>
<svg xmlns:ffdec="https://www.free-decompiler.com/flash" xmlns:xlink="http://www.w3.org/1999/xlink" ffdec:objectType="shape" height="44.8px" width="32.8px" xmlns="http://www.w3.org/2000/svg">
  <g transform="matrix(1.0, 0.0, 0.0, 1.0, 22.85, 33.75)">
    <path d="M3.3 -1.95 L3.3 -1.55 Q3.3 0.8 -0.5 5.3 -5.05 10.75 -11.35 11.05 -17.7 11.35 -20.65 5.7 -23.6 0.05 -22.55 -4.2 -22.55 -5.8 -22.35 -6.2 -21.55 -7.6 -18.5 -7.6 L-17.5 -7.6 Q-19.0 -9.35 -19.85 -14.35 -19.85 -18.4 -18.4 -24.4 -16.1 -33.75 -11.8 -33.75 -7.9 -33.75 -1.05 -28.4 4.45 -24.1 5.8 -22.05 7.25 -19.7 8.55 -15.6 9.95 -11.25 9.95 -8.45 6.5 -3.1 3.3 -1.95" fill="url(#gradient0)" fill-rule="evenodd" stroke="none"/>
  </g>
  <defs>
    <radialGradient cx="0" cy="0" gradientTransform="matrix(0.0519, 0.0259, -0.0618, 0.0926, 18.45, 7.75)" gradientUnits="userSpaceOnUse" id="gradient0" r="819.2" spreadMethod="pad">
      <stop offset="0.0" stop-color="#ff0000"/>
      <stop offset="0.17254901960784313" stop-color="#ff00ff"/>
      <stop offset="0.32941176470588235" stop-color="#0000ff"/>
      <stop offset="0.4980392156862745" stop-color="#00ffff"/>
      <stop offset="0.6745098039215687" stop-color="#00ff00"/>
      <stop offset="0.8352941176470589" stop-color="#ffff00"/>
      <stop offset="1.0" stop-color="#ff0000"/>
    </radialGradient>
  </defs>
</svg>
