<?xml version="1.0" encoding="UTF-8" standalone="no"?>
<svg xmlns:ffdec="https://www.free-decompiler.com/flash" xmlns:xlink="http://www.w3.org/1999/xlink" ffdec:objectType="shape" height="85.65px" width="82.55px" xmlns="http://www.w3.org/2000/svg">
  <g transform="matrix(1.0, 0.0, 0.0, 1.0, 48.0, 41.8)">
    <path d="M3.65 -28.25 Q3.1 -28.85 2.95 -29.5 2.75 -30.15 2.85 -31.3 3.25 -34.8 7.6 -34.55 12.1 -34.2 12.35 -36.5 12.45 -37.55 11.85 -38.4 11.15 -39.35 10.05 -39.45 8.15 -39.7 7.95 -38.2 7.9 -37.35 8.95 -36.9 9.75 -36.4 10.6 -36.55 9.25 -35.9 8.65 -35.95 7.7 -36.05 7.05 -37.1 6.5 -38.0 6.55 -38.85 6.8 -40.5 8.65 -41.25 10.05 -41.95 11.4 -41.75 14.15 -41.5 15.5 -39.4 16.7 -37.65 16.45 -35.45 16.3 -33.85 15.4 -32.1 14.65 -30.45 14.6 -29.8 L14.6 -29.5 13.65 -30.3 Q12.9 -30.45 11.3 -29.2 L9.7 -28.0 Q9.9 -28.75 9.0 -29.75 8.2 -30.65 7.15 -30.8 5.4 -30.95 4.05 -28.95 L3.65 -28.25" fill="#ff33ff" fill-rule="evenodd" stroke="none"/>
    <path d="M6.05 -25.05 L6.35 -25.05 6.1 -25.15 6.05 -25.05 M6.35 -25.05 L7.2 -25.0 Q7.7 -24.85 7.6 -24.3 L7.25 -23.65 Q6.9 -23.15 6.5 -23.25 5.65 -23.3 5.75 -24.15 5.9 -25.4 6.5 -25.4 L6.35 -25.05 M10.6 -25.05 L10.95 -25.15 Q12.5 -25.05 12.4 -23.95 L12.05 -23.3 Q11.55 -22.75 10.75 -22.85 9.4 -23.0 9.55 -23.85 9.65 -24.7 10.6 -25.05" fill="#0066ff" fill-rule="evenodd" stroke="none"/>
    <path d="M7.2 -20.55 L7.35 -20.5 7.35 -20.6 7.6 -20.95 7.75 -21.15 8.8 -21.3 Q9.55 -21.2 10.1 -20.45 10.55 -19.8 10.45 -19.1 10.3 -17.7 8.15 -17.95 7.85 -18.0 7.45 -18.85 7.0 -19.7 7.05 -20.1 L7.2 -20.55" fill="#660033" fill-rule="evenodd" stroke="none"/>
    <path d="M2.9 -21.6 L2.5 -21.6 Q1.7 -21.7 1.15 -22.7 0.65 -23.8 0.8 -25.3 1.05 -27.6 1.7 -28.1 L3.05 -26.7 2.75 -25.5 2.75 -25.45 Q2.55 -24.05 2.7 -23.7 L2.8 -23.4 2.9 -21.6" fill="url(#gradient0)" fill-rule="evenodd" stroke="none"/>
    <path d="M15.95 -25.6 L17.1 -26.55 Q17.85 -25.8 17.9 -24.9 L17.75 -23.1 Q17.4 -19.65 15.35 -19.85 L14.9 -20.05 Q15.8 -21.65 16.05 -23.7 L15.95 -25.6" fill="url(#gradient1)" fill-rule="evenodd" stroke="none"/>
    <path d="M-10.0 16.85 Q-11.65 18.25 -14.3 19.5 L-20.5 22.1 -21.2 22.45 -25.4 24.4 Q-26.25 24.9 -27.2 26.4 L-27.35 26.7 Q-28.25 28.15 -29.15 28.8 L-35.0 31.95 Q-38.1 33.7 -39.2 35.4 L-39.55 36.0 -41.95 39.9 Q-44.95 44.0 -46.75 43.85 -47.45 43.75 -47.75 42.5 -48.05 41.4 -47.95 40.3 -47.8 39.3 -46.65 37.65 L-44.8 35.35 -43.75 34.3 Q-42.9 33.5 -42.0 33.0 L-41.5 32.8 -40.3 31.05 Q-38.05 27.35 -37.25 26.65 -35.65 25.0 -32.55 23.2 L-30.1 21.9 -28.2 21.1 Q-26.05 20.3 -24.15 18.45 L-23.95 18.2 -20.1 13.8 Q-18.65 12.45 -13.3 8.6 -11.15 10.0 -10.45 14.2 L-10.0 16.85" fill="url(#gradient2)" fill-rule="evenodd" stroke="none"/>
    <path d="M5.2 18.5 L7.2 26.65 Q9.35 34.05 8.5 36.2 L8.5 36.45 Q8.3 37.65 7.5 38.3 6.45 38.95 5.0 38.75 L1.3 37.65 1.1 37.6 Q-0.5 36.85 -2.8 35.95 L-7.0 32.65 -10.55 30.4 -11.05 30.25 -11.25 30.1 -11.35 30.25 Q-17.8 30.05 -20.45 34.0 -20.8 33.35 -20.7 32.55 -20.55 31.45 -20.25 31.15 L-19.4 29.6 Q-19.15 28.9 -18.4 28.65 L-16.95 28.1 -15.35 27.6 Q-14.65 27.45 -14.4 26.65 -13.25 24.4 -12.6 24.5 -11.15 24.65 -10.5 25.05 L-8.95 26.55 -8.6 26.85 -8.4 27.05 Q-6.5 28.5 -1.85 29.6 -0.75 29.75 0.05 30.05 L-1.7 27.4 -5.05 22.85 -6.4 20.4 -5.15 20.1 0.0 19.4 5.2 18.5 M0.9 31.7 L0.05 30.05 0.9 31.7" fill="url(#gradient3)" fill-rule="evenodd" stroke="none"/>
    <path d="M-0.65 -9.3 Q-2.85 -8.0 -4.1 -6.3 -4.35 -6.1 -5.1 -5.9 L-8.2 -6.05 Q-10.35 -6.25 -12.65 -7.3 L-14.05 -8.0 -15.3 -8.45 -17.15 -8.25 Q-18.35 -8.35 -19.85 -11.1 L-22.25 -15.95 -18.65 -12.9 -17.25 -12.25 -14.35 -11.2 -13.9 -11.15 -10.85 -10.9 -9.15 -10.55 -7.9 -10.25 -7.85 -10.2 -3.65 -13.65 Q0.55 -17.05 2.7 -16.8 3.65 -16.7 4.3 -15.95 L4.85 -15.35 Q3.45 -14.8 -0.3 -10.35 L-0.65 -9.3" fill="url(#gradient4)" fill-rule="evenodd" stroke="none"/>
    <path d="M12.15 -12.35 L13.9 -12.65 Q15.4 -12.5 15.95 -10.2 L16.55 -6.75 18.0 -3.45 19.25 -0.45 19.25 -0.15 Q20.75 -0.85 24.55 -1.65 26.35 -2.1 27.6 -2.9 28.25 -3.3 28.75 -3.8 30.4 -5.3 34.4 -10.75 L34.55 -10.7 34.4 -9.6 33.6 -6.6 32.85 -3.25 Q32.5 -1.8 31.35 -1.2 L29.1 -0.4 28.2 0.25 24.05 3.0 Q19.35 5.9 17.3 5.65 L16.75 4.9 15.6 3.2 13.55 0.25 13.95 -1.05 Q14.15 -2.7 13.1 -6.6 12.1 -9.9 12.15 -12.3 L12.15 -12.35" fill="url(#gradient5)" fill-rule="evenodd" stroke="none"/>
    <path d="M11.2 -16.35 Q10.65 -15.9 10.55 -14.85 10.4 -14.0 10.55 -13.95 L10.95 -13.4 10.65 -13.4 Q10.85 -11.65 7.9 -11.95 6.3 -12.2 6.0 -13.75 L5.65 -14.9 Q6.35 -15.7 6.45 -16.7 L6.4 -17.25 Q8.05 -16.1 8.5 -16.05 L11.2 -16.35" fill="url(#gradient6)" fill-rule="evenodd" stroke="none"/>
    <path d="M14.6 -29.5 L15.4 -27.65 15.95 -25.6 16.05 -23.7 Q15.8 -21.65 14.9 -20.05 L13.55 -18.2 Q12.4 -17.0 11.2 -16.35 L8.5 -16.05 Q8.05 -16.1 6.4 -17.25 L6.3 -17.4 4.05 -19.2 Q3.2 -20.1 2.9 -21.6 L2.8 -23.4 2.75 -25.45 2.75 -25.5 3.05 -26.7 3.65 -28.25 4.05 -28.95 Q5.4 -30.95 7.15 -30.8 8.2 -30.65 9.0 -29.75 9.9 -28.75 9.7 -28.0 L11.3 -29.2 Q12.9 -30.45 13.65 -30.3 L14.6 -29.5 M6.35 -25.05 L6.5 -25.4 Q5.9 -25.4 5.75 -24.15 5.65 -23.3 6.5 -23.25 6.9 -23.15 7.25 -23.65 L7.6 -24.3 Q7.7 -24.85 7.2 -25.0 L6.35 -25.05 M8.35 -27.15 L7.55 -27.4 Q6.85 -27.55 5.4 -26.45 6.85 -27.55 7.55 -27.4 L8.35 -27.15 M10.6 -25.05 Q9.65 -24.7 9.55 -23.85 9.4 -23.0 10.75 -22.85 11.55 -22.75 12.05 -23.3 L12.4 -23.95 Q12.5 -25.05 10.95 -25.15 L10.6 -25.05 M13.8 -25.25 L12.75 -26.25 Q11.85 -26.95 11.2 -27.0 L10.55 -26.85 11.2 -27.0 Q11.85 -26.95 12.75 -26.25 L13.8 -25.25 M7.2 -20.55 L7.05 -20.1 Q7.0 -19.7 7.45 -18.85 7.85 -18.0 8.15 -17.95 10.3 -17.7 10.45 -19.1 10.55 -19.8 10.1 -20.45 9.55 -21.2 8.8 -21.3 L7.75 -21.15 7.6 -20.95 7.35 -20.6 7.2 -20.55" fill="url(#gradient7)" fill-rule="evenodd" stroke="none"/>
    <path d="M7.75 12.75 Q7.15 14.55 7.1 15.2 6.8 17.45 7.5 17.75 L7.35 17.9 5.2 18.5 0.0 19.4 -5.15 20.1 -6.4 20.4 Q-8.55 21.05 -9.05 22.05 L-10.0 16.85 -10.45 14.2 Q-11.15 10.0 -13.3 8.6 L-14.4 8.1 -14.4 7.8 Q-12.7 6.05 -9.1 4.2 L-7.0 3.15 Q-4.25 5.8 -1.5 10.0 -0.1 12.1 5.25 12.75 L7.35 12.8 7.75 12.75" fill="url(#gradient8)" fill-rule="evenodd" stroke="none"/>
    <path d="M9.75 2.35 Q8.45 3.15 8.25 4.6 L8.6 9.9 7.75 12.75 7.35 12.8 5.25 12.75 Q-0.1 12.1 -1.5 10.0 -4.25 5.8 -7.0 3.15 -4.85 2.0 -4.3 1.4 -2.9 0.2 -2.45 -3.4 L-2.3 -4.3 -1.45 -2.45 Q0.1 0.25 2.95 0.6 L4.75 0.25 5.95 -0.2 7.9 1.25 9.75 2.35" fill="url(#gradient9)" fill-rule="evenodd" stroke="none"/>
    <path d="M10.95 -13.4 L11.75 -13.3 12.0 -12.9 12.15 -12.35 12.15 -12.3 Q12.1 -9.9 13.1 -6.6 14.15 -2.7 13.95 -1.05 L13.55 0.25 Q12.8 1.25 11.15 1.7 10.3 1.95 9.75 2.35 L7.9 1.25 5.95 -0.2 4.75 0.25 2.95 0.6 Q0.1 0.25 -1.45 -2.45 L-2.3 -4.3 -1.75 -7.15 -1.7 -7.35 -1.65 -7.4 -1.6 -7.5 -1.45 -7.8 -1.05 -8.65 -0.65 -9.3 -0.3 -10.35 Q3.45 -14.8 4.85 -15.35 L5.3 -15.4 5.65 -14.9 6.0 -13.75 Q6.3 -12.2 7.9 -11.95 10.85 -11.65 10.65 -13.4 L10.95 -13.4" fill="url(#gradient10)" fill-rule="evenodd" stroke="none"/>
    <path d="M3.65 -28.25 Q3.1 -28.85 2.95 -29.5 2.75 -30.15 2.85 -31.3 3.25 -34.8 7.6 -34.55 12.1 -34.2 12.35 -36.5 12.45 -37.55 11.85 -38.4 11.15 -39.35 10.05 -39.45 8.15 -39.7 7.95 -38.2 7.9 -37.35 8.95 -36.9 9.75 -36.4 10.6 -36.55 9.25 -35.9 8.65 -35.95 7.7 -36.05 7.05 -37.1 6.5 -38.0 6.55 -38.85 6.8 -40.5 8.65 -41.25 10.05 -41.95 11.4 -41.75 14.15 -41.5 15.5 -39.4 16.7 -37.65 16.45 -35.45 16.3 -33.85 15.4 -32.1 14.65 -30.45 14.6 -29.8 L14.6 -29.5 15.4 -27.65 15.95 -25.6 17.1 -26.55 Q17.85 -25.8 17.9 -24.9 L17.75 -23.1 Q17.4 -19.65 15.35 -19.85 L14.9 -20.05 13.55 -18.2 Q12.4 -17.0 11.2 -16.35 10.65 -15.9 10.55 -14.85 10.4 -14.0 10.55 -13.95 L10.95 -13.4 11.75 -13.3 12.0 -12.9 12.2 -12.65 12.15 -12.35 13.9 -12.65 Q15.4 -12.5 15.95 -10.2 L16.55 -6.75 18.0 -3.45 19.25 -0.45 19.25 -0.15 Q20.75 -0.85 24.55 -1.65 26.35 -2.1 27.6 -2.9 28.25 -3.3 28.75 -3.8 30.4 -5.3 34.4 -10.75 L34.55 -10.7 34.4 -9.6 33.6 -6.6 32.85 -3.25 Q32.5 -1.8 31.35 -1.2 L29.1 -0.4 28.2 0.25 24.05 3.0 Q19.35 5.9 17.3 5.65 L16.75 4.9 15.6 3.2 13.55 0.25 Q12.8 1.25 11.15 1.7 10.3 1.95 9.75 2.35 8.45 3.15 8.25 4.6 L8.6 9.9 7.75 12.75 Q7.15 14.55 7.1 15.2 6.8 17.45 7.5 17.75 L7.35 17.9 5.2 18.5 7.2 26.65 Q9.35 34.05 8.5 36.2 L8.5 36.45 Q8.3 37.65 7.5 38.3 6.45 38.95 5.0 38.75 L1.3 37.65 1.1 37.6 Q-0.5 36.85 -2.8 35.95 L-7.0 32.65 -10.55 30.4 -11.05 30.25 -11.35 30.25 Q-17.8 30.05 -20.45 34.0 -20.8 33.35 -20.7 32.55 -20.55 31.45 -20.25 31.15 L-19.4 29.6 Q-19.15 28.9 -18.4 28.65 L-16.95 28.1 -15.35 27.6 Q-14.65 27.45 -14.4 26.65 -13.25 24.4 -12.6 24.5 -11.15 24.65 -10.5 25.05 L-8.95 26.55 -8.6 26.85 -8.4 27.05 Q-6.5 28.5 -1.85 29.6 -0.75 29.75 0.05 30.05 L-1.7 27.4 -5.05 22.85 -6.4 20.4 Q-8.55 21.05 -9.05 22.05 L-10.0 16.85 Q-11.65 18.25 -14.3 19.5 L-20.5 22.1 -21.2 22.45 -25.4 24.4 Q-26.25 24.9 -27.2 26.4 L-27.35 26.7 Q-28.25 28.15 -29.15 28.8 L-35.0 31.95 Q-38.1 33.7 -39.2 35.4 L-39.55 36.0 -41.95 39.9 Q-44.95 44.0 -46.75 43.85 -47.45 43.75 -47.75 42.5 -48.05 41.4 -47.95 40.3 -47.8 39.3 -46.65 37.65 L-44.8 35.35 -43.75 34.3 Q-42.9 33.5 -42.0 33.0 L-42.0 32.3 M3.05 -26.7 L1.7 -28.1 Q1.05 -27.6 0.8 -25.3 0.65 -23.8 1.15 -22.7 1.7 -21.7 2.5 -21.6 L2.9 -21.6 2.8 -23.4 2.7 -23.7 Q2.55 -24.05 2.75 -25.45 L2.75 -25.5 3.05 -26.7 3.65 -28.25 4.05 -28.95 Q5.4 -30.95 7.15 -30.8 8.2 -30.65 9.0 -29.75 9.9 -28.75 9.7 -28.0 L11.3 -29.2 Q12.9 -30.45 13.65 -30.3 L14.6 -29.5 M6.05 -25.05 L6.35 -25.05 6.1 -25.15 6.05 -25.05 M6.35 -25.05 L6.5 -25.4 Q5.9 -25.4 5.75 -24.15 5.65 -23.3 6.5 -23.25 6.9 -23.15 7.25 -23.65 L7.6 -24.3 Q7.7 -24.85 7.2 -25.0 L6.35 -25.05 M5.4 -26.45 Q6.85 -27.55 7.55 -27.4 L8.35 -27.15 M10.6 -25.05 Q9.65 -24.7 9.55 -23.85 9.4 -23.0 10.75 -22.85 11.55 -22.75 12.05 -23.3 L12.4 -23.95 Q12.5 -25.05 10.95 -25.15 L10.6 -25.05 M10.55 -26.85 L11.2 -27.0 Q11.85 -26.95 12.75 -26.25 L13.8 -25.25 M5.65 -14.9 L6.0 -13.75 Q6.3 -12.2 7.9 -11.95 10.85 -11.65 10.65 -13.4 L10.95 -13.4 M14.9 -20.05 Q15.8 -21.65 16.05 -23.7 L15.95 -25.6 M7.35 -20.6 L7.35 -20.5 7.2 -20.55 7.05 -20.1 Q7.0 -19.7 7.45 -18.85 7.85 -18.0 8.15 -17.95 10.3 -17.7 10.45 -19.1 10.55 -19.8 10.1 -20.45 9.55 -21.2 8.8 -21.3 L7.75 -21.15 7.6 -20.95 7.35 -20.6 7.2 -20.55 M2.9 -21.6 Q3.2 -20.1 4.05 -19.2 L6.3 -17.4 6.4 -17.25 Q8.05 -16.1 8.5 -16.05 L11.2 -16.35 M-0.65 -9.3 Q-2.85 -8.0 -4.1 -6.3 -4.35 -6.1 -5.1 -5.9 L-8.2 -6.05 Q-10.35 -6.25 -12.65 -7.3 L-14.05 -8.0 -15.3 -8.45 -17.15 -8.25 Q-18.35 -8.35 -19.85 -11.1 L-22.25 -15.95 -18.65 -12.9 -17.25 -12.25 -14.35 -11.2 -13.9 -11.15 -10.85 -10.9 -9.15 -10.55 -7.9 -10.25 -7.85 -10.2 -3.65 -13.65 Q0.55 -17.05 2.7 -16.8 3.65 -16.7 4.3 -15.95 L4.85 -15.35 5.3 -15.4 5.65 -14.9 Q6.35 -15.7 6.45 -16.7 L6.4 -17.25 M13.55 0.25 L13.95 -1.05 Q14.15 -2.7 13.1 -6.6 12.1 -9.9 12.15 -12.3 L12.15 -12.35 12.0 -12.9 M2.75 -25.45 L2.8 -23.4 M-2.3 -4.3 L-1.45 -2.45 Q0.1 0.25 2.95 0.6 L4.75 0.25 5.95 -0.2 7.9 1.25 9.75 2.35 M-6.4 20.4 L-5.15 20.1 0.0 19.4 5.2 18.5 M-7.0 3.15 Q-4.25 5.8 -1.5 10.0 -0.1 12.1 5.25 12.75 L7.35 12.8 7.75 12.75 M0.05 30.05 L0.9 31.7 M-1.05 -8.65 L-1.45 -7.8 -1.6 -7.5 -1.65 -7.4 -1.7 -7.35 -1.75 -7.15 -2.3 -4.3 -2.45 -3.4 Q-2.9 0.2 -4.3 1.4 -4.85 2.0 -7.0 3.15 L-9.1 4.2 Q-12.7 6.05 -14.4 7.8 L-14.4 8.1 -13.3 8.6 Q-11.15 10.0 -10.45 14.2 L-10.0 16.85 M-1.05 -8.65 L-0.65 -9.3 -0.3 -10.35 Q3.45 -14.8 4.85 -15.35 M-42.0 33.0 L-41.5 32.8 -40.3 31.05 Q-38.05 27.35 -37.25 26.65 -35.65 25.0 -32.55 23.2 L-30.1 21.9 -28.2 21.1 Q-26.05 20.3 -24.15 18.45 L-23.95 18.2 -20.1 13.8 Q-18.65 12.45 -13.3 8.6 M-11.35 30.25 L-11.25 30.1 -11.05 30.25" fill="none" stroke="#462060" stroke-linecap="round" stroke-linejoin="round" stroke-opacity="0.2509804" stroke-width="0.05"/>
  </g>
  <defs>
    <radialGradient cx="0" cy="0" gradientTransform="matrix(0.0061, 0.0, 0.0, 0.0061, 1.0, -26.25)" gradientUnits="userSpaceOnUse" id="gradient0" r="819.2" spreadMethod="pad">
      <stop offset="0.0" stop-color="#8bb9fc"/>
      <stop offset="0.3607843137254902" stop-color="#c9defd"/>
      <stop offset="0.47843137254901963" stop-color="#ffffff"/>
      <stop offset="0.5882352941176471" stop-color="#785cbc"/>
      <stop offset="1.0" stop-color="#e099ff"/>
    </radialGradient>
    <radialGradient cx="0" cy="0" gradientTransform="matrix(0.0068, 0.0, 0.0, 0.0068, 16.75, -24.75)" gradientUnits="userSpaceOnUse" id="gradient1" r="819.2" spreadMethod="pad">
      <stop offset="0.0" stop-color="#8bb9fc"/>
      <stop offset="0.3607843137254902" stop-color="#c9defd"/>
      <stop offset="0.47843137254901963" stop-color="#ffffff"/>
      <stop offset="0.5882352941176471" stop-color="#785cbc"/>
      <stop offset="1.0" stop-color="#e099ff"/>
    </radialGradient>
    <radialGradient cx="0" cy="0" gradientTransform="matrix(0.0508, 0.0, 0.0, 0.0508, -11.0, 10.75)" gradientUnits="userSpaceOnUse" id="gradient2" r="819.2" spreadMethod="pad">
      <stop offset="0.0" stop-color="#8bb9fc"/>
      <stop offset="0.3607843137254902" stop-color="#c9defd"/>
      <stop offset="0.47843137254901963" stop-color="#ffffff"/>
      <stop offset="0.5882352941176471" stop-color="#785cbc"/>
      <stop offset="1.0" stop-color="#e099ff"/>
    </radialGradient>
    <radialGradient cx="0" cy="0" gradientTransform="matrix(0.0315, 0.0, 0.0, 0.0315, 12.75, 19.5)" gradientUnits="userSpaceOnUse" id="gradient3" r="819.2" spreadMethod="pad">
      <stop offset="0.0" stop-color="#8bb9fc"/>
      <stop offset="0.3607843137254902" stop-color="#c9defd"/>
      <stop offset="0.47843137254901963" stop-color="#ffffff"/>
      <stop offset="0.5882352941176471" stop-color="#785cbc"/>
      <stop offset="1.0" stop-color="#e099ff"/>
    </radialGradient>
    <radialGradient cx="0" cy="0" gradientTransform="matrix(0.0255, 0.0, 0.0, 0.0255, -7.5, -18.0)" gradientUnits="userSpaceOnUse" id="gradient4" r="819.2" spreadMethod="pad">
      <stop offset="0.0" stop-color="#8bb9fc"/>
      <stop offset="0.3607843137254902" stop-color="#c9defd"/>
      <stop offset="0.47843137254901963" stop-color="#ffffff"/>
      <stop offset="0.5882352941176471" stop-color="#785cbc"/>
      <stop offset="1.0" stop-color="#e099ff"/>
    </radialGradient>
    <radialGradient cx="0" cy="0" gradientTransform="matrix(0.025, 0.0, 0.0, 0.025, 22.5, -8.25)" gradientUnits="userSpaceOnUse" id="gradient5" r="819.2" spreadMethod="pad">
      <stop offset="0.0" stop-color="#8bb9fc"/>
      <stop offset="0.3607843137254902" stop-color="#c9defd"/>
      <stop offset="0.47843137254901963" stop-color="#ffffff"/>
      <stop offset="0.5882352941176471" stop-color="#785cbc"/>
      <stop offset="1.0" stop-color="#e099ff"/>
    </radialGradient>
    <radialGradient cx="0" cy="0" gradientTransform="matrix(0.0096, 0.0, 0.0, 0.0096, 8.5, -20.75)" gradientUnits="userSpaceOnUse" id="gradient6" r="819.2" spreadMethod="pad">
      <stop offset="0.0" stop-color="#8bb9fc"/>
      <stop offset="0.3607843137254902" stop-color="#c9defd"/>
      <stop offset="0.47843137254901963" stop-color="#ffffff"/>
      <stop offset="0.5882352941176471" stop-color="#785cbc"/>
      <stop offset="1.0" stop-color="#e099ff"/>
    </radialGradient>
    <radialGradient cx="0" cy="0" gradientTransform="matrix(0.0178, 0.0, 0.0, 0.0178, 11.5, -26.75)" gradientUnits="userSpaceOnUse" id="gradient7" r="819.2" spreadMethod="pad">
      <stop offset="0.0" stop-color="#8bb9fc"/>
      <stop offset="0.3607843137254902" stop-color="#c9defd"/>
      <stop offset="0.47843137254901963" stop-color="#ffffff"/>
      <stop offset="0.5882352941176471" stop-color="#785cbc"/>
      <stop offset="1.0" stop-color="#e099ff"/>
    </radialGradient>
    <radialGradient cx="0" cy="0" gradientTransform="matrix(0.0299, 0.0, 0.0, 0.0299, -0.25, 7.25)" gradientUnits="userSpaceOnUse" id="gradient8" r="819.2" spreadMethod="pad">
      <stop offset="0.0" stop-color="#8bb9fc"/>
      <stop offset="0.3607843137254902" stop-color="#c9defd"/>
      <stop offset="0.47843137254901963" stop-color="#ffffff"/>
      <stop offset="0.5882352941176471" stop-color="#785cbc"/>
      <stop offset="1.0" stop-color="#e099ff"/>
    </radialGradient>
    <radialGradient cx="0" cy="0" gradientTransform="matrix(0.0271, 0.0, 0.0, 0.0271, 5.0, 1.75)" gradientUnits="userSpaceOnUse" id="gradient9" r="819.2" spreadMethod="pad">
      <stop offset="0.0" stop-color="#8bb9fc"/>
      <stop offset="0.3607843137254902" stop-color="#c9defd"/>
      <stop offset="0.47843137254901963" stop-color="#ffffff"/>
      <stop offset="0.5882352941176471" stop-color="#785cbc"/>
      <stop offset="1.0" stop-color="#e099ff"/>
    </radialGradient>
    <radialGradient cx="0" cy="0" gradientTransform="matrix(0.0199, 0.0, 0.0, 0.0199, 7.5, -9.0)" gradientUnits="userSpaceOnUse" id="gradient10" r="819.2" spreadMethod="pad">
      <stop offset="0.0" stop-color="#8bb9fc"/>
      <stop offset="0.3607843137254902" stop-color="#c9defd"/>
      <stop offset="0.47843137254901963" stop-color="#ffffff"/>
      <stop offset="0.5882352941176471" stop-color="#785cbc"/>
      <stop offset="1.0" stop-color="#e099ff"/>
    </radialGradient>
  </defs>
</svg>
