<?xml version="1.0" encoding="UTF-8" standalone="no"?>
<svg xmlns:ffdec="https://www.free-decompiler.com/flash" xmlns:xlink="http://www.w3.org/1999/xlink" ffdec:objectType="shape" height="53.25px" width="43.85px" xmlns="http://www.w3.org/2000/svg">
  <g transform="matrix(1.0, 0.0, 0.0, 1.0, 29.7, 11.15)">
    <path d="M-11.75 -10.55 L-1.7 -11.15 Q3.7 -10.9 7.65 -7.15 11.7 -3.3 13.7 1.85 L14.15 3.55 Q13.4 6.75 10.55 9.05 3.95 14.45 3.6 23.3 3.4 27.65 2.3 32.0 -2.9 41.2 -15.0 42.1 -19.95 40.85 -21.05 37.25 -21.3 35.15 -23.5 31.8 -29.75 22.15 -29.7 10.65 -29.7 4.2 -26.7 -1.45 -22.05 -10.15 -11.75 -10.55" fill="url(#gradient0)" fill-rule="evenodd" stroke="none"/>
    <path d="M-11.75 -10.55 L-1.7 -11.15 Q3.7 -10.9 7.65 -7.15 11.7 -3.3 13.7 1.85 L14.15 3.55 Q13.4 6.75 10.55 9.05 3.95 14.45 3.6 23.3 3.4 27.65 2.3 32.0 -2.9 41.2 -15.0 42.1 -19.95 40.85 -21.05 37.25 -21.3 35.15 -23.5 31.8 -29.75 22.15 -29.7 10.65 -29.7 4.2 -26.7 -1.45 -22.05 -10.15 -11.75 -10.55 Z" fill="none" stroke="#330066" stroke-linecap="round" stroke-linejoin="round" stroke-opacity="0.2" stroke-width="0.05"/>
  </g>
  <defs>
    <radialGradient cx="0" cy="0" gradientTransform="matrix(0.0422, 0.0845, -0.0656, 0.0328, -1.7, -11.85)" gradientUnits="userSpaceOnUse" id="gradient0" r="819.2" spreadMethod="pad">
      <stop offset="0.0" stop-color="#8bb9fc"/>
      <stop offset="0.3607843137254902" stop-color="#c9defd"/>
      <stop offset="0.47843137254901963" stop-color="#ffffff"/>
      <stop offset="0.5882352941176471" stop-color="#785cbc"/>
      <stop offset="1.0" stop-color="#e099ff"/>
    </radialGradient>
  </defs>
</svg>
