<?xml version="1.0" encoding="UTF-8" standalone="no"?>
<svg xmlns:ffdec="https://www.free-decompiler.com/flash" xmlns:xlink="http://www.w3.org/1999/xlink" ffdec:objectType="shape" height="37.95px" width="14.0px" xmlns="http://www.w3.org/2000/svg">
  <g transform="matrix(1.0, 0.0, 0.0, 1.0, 4.5, 5.2)">
    <path d="M-3.85 5.15 Q-5.6 -0.2 -2.5 -4.2 2.2 -6.5 3.05 -3.45 L5.35 0.8 4.55 3.5 Q3.7 5.35 4.0 7.4 5.6 18.1 9.3 28.55 10.4 33.8 4.95 32.5 L2.1 31.15 1.8 26.0 Q1.45 20.85 -0.25 15.95 L-3.85 5.15" fill="url(#gradient0)" fill-rule="evenodd" stroke="none"/>
    <path d="M-3.85 5.15 Q-5.6 -0.2 -2.5 -4.2 2.2 -6.5 3.05 -3.45 L5.35 0.8 4.55 3.5 Q3.7 5.35 4.0 7.4 5.6 18.1 9.3 28.55 10.4 33.8 4.95 32.5 L2.1 31.15 1.8 26.0 Q1.45 20.85 -0.25 15.95 L-3.85 5.15 Z" fill="none" stroke="#330066" stroke-linecap="round" stroke-linejoin="round" stroke-opacity="0.2" stroke-width="0.05"/>
  </g>
  <defs>
    <radialGradient cx="0" cy="0" gradientTransform="matrix(0.0306, 0.0, 0.0, 0.0306, -4.55, -6.7)" gradientUnits="userSpaceOnUse" id="gradient0" r="819.2" spreadMethod="pad">
      <stop offset="0.0" stop-color="#8bb9fc"/>
      <stop offset="0.3607843137254902" stop-color="#c9defd"/>
      <stop offset="0.47843137254901963" stop-color="#ffffff"/>
      <stop offset="0.5882352941176471" stop-color="#785cbc"/>
      <stop offset="1.0" stop-color="#e099ff"/>
    </radialGradient>
  </defs>
</svg>
