<?xml version="1.0" encoding="UTF-8" standalone="no"?>
<svg xmlns:ffdec="https://www.free-decompiler.com/flash" xmlns:xlink="http://www.w3.org/1999/xlink" ffdec:objectType="shape" height="32.3px" width="39.15px" xmlns="http://www.w3.org/2000/svg">
  <g transform="matrix(1.0, 0.0, 0.0, 1.0, 34.35, 4.15)">
    <path d="M4.75 -0.4 Q5.3 1.35 0.1 6.95 -5.15 12.5 -15.25 16.5 -25.35 20.45 -26.1 27.05 -32.55 30.2 -34.05 24.35 -34.45 23.3 -34.35 20.35 -34.25 17.4 -29.1 15.25 -24.0 13.05 -20.95 7.2 -14.3 -1.95 -3.15 -4.0 1.15 -4.7 4.15 -2.35 L4.75 -0.4" fill="url(#gradient0)" fill-rule="evenodd" stroke="none"/>
    <path d="M4.75 -0.4 Q5.3 1.35 0.1 6.95 -5.15 12.5 -15.25 16.5 -25.35 20.45 -26.1 27.05 -32.55 30.2 -34.05 24.35 -34.45 23.3 -34.35 20.35 -34.25 17.4 -29.1 15.25 -24.0 13.05 -20.95 7.2 -14.3 -1.95 -3.15 -4.0 1.15 -4.7 4.15 -2.35 L4.75 -0.4 Z" fill="none" stroke="#330066" stroke-linecap="round" stroke-linejoin="round" stroke-opacity="0.2" stroke-width="0.05"/>
  </g>
  <defs>
    <radialGradient cx="0" cy="0" gradientTransform="matrix(0.0532, 0.0, 0.0, 0.0532, -15.4, -12.45)" gradientUnits="userSpaceOnUse" id="gradient0" r="819.2" spreadMethod="pad">
      <stop offset="0.0" stop-color="#8bb9fc"/>
      <stop offset="0.3607843137254902" stop-color="#c9defd"/>
      <stop offset="0.47843137254901963" stop-color="#ffffff"/>
      <stop offset="0.5882352941176471" stop-color="#785cbc"/>
      <stop offset="1.0" stop-color="#e099ff"/>
    </radialGradient>
  </defs>
</svg>
