<?xml version="1.0" encoding="UTF-8" standalone="no"?>
<svg xmlns:ffdec="https://www.free-decompiler.com/flash" xmlns:xlink="http://www.w3.org/1999/xlink" ffdec:objectType="shape" height="38.6px" width="28.85px" xmlns="http://www.w3.org/2000/svg">
  <g transform="matrix(1.0, 0.0, 0.0, 1.0, 14.4, 10.7)">
    <path d="M8.2 -7.3 Q10.25 -5.6 11.85 -3.4 14.8 0.65 14.4 5.65 13.8 13.55 11.25 19.8 8.65 26.05 2.6 27.75 -0.6 28.45 -3.6 26.0 -5.6 24.7 -6.55 20.9 L-6.1 17.3 Q-5.55 12.1 -7.55 7.4 -9.45 2.85 -12.7 -1.4 -16.7 -6.7 -11.35 -10.25 -3.85 -11.35 3.35 -9.65 6.0 -9.0 8.2 -7.3" fill="url(#gradient0)" fill-rule="evenodd" stroke="none"/>
    <path d="M8.2 -7.3 Q10.25 -5.6 11.85 -3.4 14.8 0.65 14.4 5.65 13.8 13.55 11.25 19.8 8.65 26.05 2.6 27.75 -0.6 28.45 -3.6 26.0 -5.6 24.7 -6.55 20.9 L-6.1 17.3 Q-5.55 12.1 -7.55 7.4 -9.45 2.85 -12.7 -1.4 -16.7 -6.7 -11.35 -10.25 -3.85 -11.35 3.35 -9.65 6.0 -9.0 8.2 -7.3 Z" fill="none" stroke="#330066" stroke-linecap="round" stroke-linejoin="round" stroke-opacity="0.2" stroke-width="0.05"/>
  </g>
  <defs>
    <radialGradient cx="0" cy="0" gradientTransform="matrix(0.0519, 0.0139, -0.0093, 0.0346, 7.15, -4.6)" gradientUnits="userSpaceOnUse" id="gradient0" r="819.2" spreadMethod="pad">
      <stop offset="0.0" stop-color="#8bb9fc"/>
      <stop offset="0.3607843137254902" stop-color="#c9defd"/>
      <stop offset="0.47843137254901963" stop-color="#ffffff"/>
      <stop offset="0.5882352941176471" stop-color="#785cbc"/>
      <stop offset="1.0" stop-color="#e099ff"/>
    </radialGradient>
  </defs>
</svg>
