<?xml version="1.0" encoding="UTF-8" standalone="no"?>
<svg xmlns:ffdec="https://www.free-decompiler.com/flash" xmlns:xlink="http://www.w3.org/1999/xlink" ffdec:objectType="shape" height="28.65px" width="17.4px" xmlns="http://www.w3.org/2000/svg">
  <g transform="matrix(1.0, 0.0, 0.0, 1.0, 4.25, 3.95)">
    <path d="M1.3 6.65 L-1.55 3.55 Q-6.6 -4.2 -2.15 -3.95 2.3 -3.7 3.5 -1.15 L13.15 22.5 Q8.95 27.85 6.6 20.25 7.05 16.6 5.5 13.1 3.9 9.5 1.3 6.65" fill="url(#gradient0)" fill-rule="evenodd" stroke="none"/>
    <path d="M1.3 6.65 L-1.55 3.55 Q-6.6 -4.2 -2.15 -3.95 2.3 -3.7 3.5 -1.15 L13.15 22.5 Q8.95 27.85 6.6 20.25 7.05 16.6 5.5 13.1 3.9 9.5 1.3 6.65 Z" fill="none" stroke="#330066" stroke-linecap="round" stroke-linejoin="round" stroke-opacity="0.2" stroke-width="0.05"/>
  </g>
  <defs>
    <radialGradient cx="0" cy="0" gradientTransform="matrix(0.02, 0.0, 0.0, 0.0302, 8.0, -7.2)" gradientUnits="userSpaceOnUse" id="gradient0" r="819.2" spreadMethod="pad">
      <stop offset="0.0" stop-color="#8bb9fc"/>
      <stop offset="0.3607843137254902" stop-color="#c9defd"/>
      <stop offset="0.47843137254901963" stop-color="#ffffff"/>
      <stop offset="0.5882352941176471" stop-color="#785cbc"/>
      <stop offset="1.0" stop-color="#e099ff"/>
    </radialGradient>
  </defs>
</svg>
