<?xml version="1.0" encoding="UTF-8" standalone="no"?>
<svg xmlns:ffdec="https://www.free-decompiler.com/flash" xmlns:xlink="http://www.w3.org/1999/xlink" ffdec:objectType="shape" height="18.0px" width="47.7px" xmlns="http://www.w3.org/2000/svg">
  <g transform="matrix(1.0, 0.0, 0.0, 1.0, 4.75, 6.0)">
    <path d="M9.65 -5.3 Q14.7 -3.7 18.6 0.05 20.45 1.9 23.2 2.4 L33.1 4.3 Q37.25 4.75 41.4 6.15 45.2 9.7 39.55 12.0 L33.5 10.3 Q25.95 8.25 18.0 9.1 11.3 9.45 4.7 9.0 2.55 9.2 0.35 7.9 -2.05 6.5 -3.55 4.2 -4.9 2.1 -4.7 -0.35 -3.45 -3.4 0.2 -4.85 4.95 -6.9 9.65 -5.3" fill="url(#gradient0)" fill-rule="evenodd" stroke="none"/>
    <path d="M9.65 -5.3 Q14.7 -3.7 18.6 0.05 20.45 1.9 23.2 2.4 L33.1 4.3 Q37.25 4.75 41.4 6.15 45.2 9.7 39.55 12.0 L33.5 10.3 Q25.95 8.25 18.0 9.1 11.3 9.45 4.7 9.0 2.55 9.2 0.35 7.9 -2.05 6.5 -3.55 4.2 -4.9 2.1 -4.7 -0.35 -3.45 -3.4 0.2 -4.85 4.95 -6.9 9.65 -5.3 Z" fill="none" stroke="#330066" stroke-linecap="round" stroke-linejoin="round" stroke-opacity="0.2" stroke-width="0.05"/>
  </g>
  <defs>
    <radialGradient cx="0" cy="0" gradientTransform="matrix(0.0507, 0.0, 0.0, 0.0249, 2.75, -5.35)" gradientUnits="userSpaceOnUse" id="gradient0" r="819.2" spreadMethod="pad">
      <stop offset="0.0" stop-color="#8bb9fc"/>
      <stop offset="0.3607843137254902" stop-color="#c9defd"/>
      <stop offset="0.47843137254901963" stop-color="#ffffff"/>
      <stop offset="0.5882352941176471" stop-color="#785cbc"/>
      <stop offset="1.0" stop-color="#e099ff"/>
    </radialGradient>
  </defs>
</svg>
