<?xml version="1.0" encoding="UTF-8" standalone="no"?>
<svg xmlns:ffdec="https://www.free-decompiler.com/flash" xmlns:xlink="http://www.w3.org/1999/xlink" ffdec:objectType="shape" height="42.9px" width="91.75px" xmlns="http://www.w3.org/2000/svg">
  <g transform="matrix(1.0, 0.0, 0.0, 1.0, 34.2, 16.45)">
    <path d="M20.9 24.8 Q17.35 21.2 14.65 17.1 11.9 13.0 10.0 7.6 8.1 2.15 6.95 -3.3 5.75 -8.8 3.5 -13.4 2.85 -14.8 1.7 -15.85 2.85 -14.8 3.5 -13.4 5.75 -8.8 6.95 -3.3 8.1 2.15 10.0 7.6 11.9 13.0 14.65 17.1 17.35 21.2 20.9 24.8 L2.9 20.0 -10.25 15.1 Q-19.45 12.4 -29.15 14.45 -33.3 9.65 -33.95 3.4 -34.55 -2.2 -33.6 -7.6 L-32.55 -10.9 Q-31.55 -13.3 -29.25 -15.1 L-13.85 -15.5 -6.65 -15.65 1.7 -15.85 25.1 -16.45 Q30.6 -16.4 35.15 -13.75 39.7 -11.15 45.35 -8.9 50.95 -6.7 54.5 -0.7 58.05 5.25 57.5 10.2 56.95 15.1 56.1 17.05 55.2 19.0 50.6 22.5 46.0 26.0 37.6 26.45 29.25 26.5 20.9 24.8 M2.9 20.0 Q2.95 -1.25 -6.65 -15.65 2.95 -1.25 2.9 20.0 M-13.85 -15.5 Q-2.95 -1.55 -10.25 15.1 -2.95 -1.55 -13.85 -15.5" fill="url(#gradient0)" fill-rule="evenodd" stroke="none"/>
    <path d="M1.7 -15.85 Q2.85 -14.8 3.5 -13.4 5.75 -8.8 6.95 -3.3 8.1 2.15 10.0 7.6 11.9 13.0 14.65 17.1 17.35 21.2 20.9 24.8 29.25 26.5 37.6 26.45 46.0 26.0 50.6 22.5 55.2 19.0 56.1 17.05 56.95 15.1 57.5 10.2 58.05 5.25 54.5 -0.7 50.95 -6.7 45.35 -8.9 39.7 -11.15 35.15 -13.75 30.6 -16.4 25.1 -16.45 L1.7 -15.85 -6.65 -15.65 Q2.95 -1.25 2.9 20.0 L20.9 24.8 M2.9 20.0 L-10.25 15.1 Q-19.45 12.4 -29.15 14.45 -33.3 9.65 -33.95 3.4 -34.55 -2.2 -33.6 -7.6 L-32.55 -10.9 Q-31.55 -13.3 -29.25 -15.1 L-13.85 -15.5 -6.65 -15.65 M-10.25 15.1 Q-2.95 -1.55 -13.85 -15.5" fill="none" stroke="#330066" stroke-linecap="round" stroke-linejoin="round" stroke-opacity="0.2" stroke-width="0.05"/>
  </g>
  <defs>
    <radialGradient cx="0" cy="0" gradientTransform="matrix(0.1814, 0.0, 0.0, 0.0622, -0.9, 26.45)" gradientUnits="userSpaceOnUse" id="gradient0" r="819.2" spreadMethod="pad">
      <stop offset="0.0" stop-color="#e099ff"/>
      <stop offset="0.3607843137254902" stop-color="#785cbc"/>
      <stop offset="0.47843137254901963" stop-color="#ffffff"/>
      <stop offset="0.5803921568627451" stop-color="#c9defd"/>
      <stop offset="1.0" stop-color="#8bb9fc"/>
    </radialGradient>
  </defs>
</svg>
