<?xml version="1.0" encoding="UTF-8" standalone="no"?>
<svg xmlns:ffdec="https://www.free-decompiler.com/flash" xmlns:xlink="http://www.w3.org/1999/xlink" ffdec:objectType="shape" height="39.15px" width="50.7px" xmlns="http://www.w3.org/2000/svg">
  <g transform="matrix(1.0, 0.0, 0.0, 1.0, 35.35, 14.25)">
    <path d="M12.7 -6.25 Q16.75 -2.35 14.6 2.75 12.5 7.7 8.05 10.95 3.8 14.15 -0.15 17.75 L-7.05 23.8 Q-7.1 24.15 -8.55 24.4 L-12.2 24.9 Q-17.25 25.05 -21.75 22.75 -26.2 20.5 -29.65 16.65 -32.95 13.05 -34.5 8.5 -36.1 3.9 -34.75 -1.0 -33.45 -5.75 -29.4 -8.5 -25.1 -11.5 -20.15 -13.0 -16.6 -14.1 -13.0 -14.25 L-3.65 -13.75 Q1.1 -13.15 5.6 -11.05 9.55 -9.2 12.7 -6.25" fill="url(#gradient0)" fill-rule="evenodd" stroke="none"/>
    <path d="M12.7 -6.25 Q16.75 -2.35 14.6 2.75 12.5 7.7 8.05 10.95 3.8 14.15 -0.15 17.75 L-7.05 23.8 Q-7.1 24.15 -8.55 24.4 L-12.2 24.9 Q-17.25 25.05 -21.75 22.75 -26.2 20.5 -29.65 16.65 -32.95 13.05 -34.5 8.5 -36.1 3.9 -34.75 -1.0 -33.45 -5.75 -29.4 -8.5 -25.1 -11.5 -20.15 -13.0 -16.6 -14.1 -13.0 -14.25 L-3.65 -13.75 Q1.1 -13.15 5.6 -11.05 9.55 -9.2 12.7 -6.25 Z" fill="none" stroke="#330066" stroke-linecap="round" stroke-linejoin="round" stroke-opacity="0.2" stroke-width="0.05"/>
  </g>
  <defs>
    <radialGradient cx="0" cy="0" gradientTransform="matrix(0.0618, 0.0, 0.0, 0.0505, -4.35, -16.1)" gradientUnits="userSpaceOnUse" id="gradient0" r="819.2" spreadMethod="pad">
      <stop offset="0.0" stop-color="#8bb9fc"/>
      <stop offset="0.3607843137254902" stop-color="#c9defd"/>
      <stop offset="0.47843137254901963" stop-color="#ffffff"/>
      <stop offset="0.5882352941176471" stop-color="#785cbc"/>
      <stop offset="1.0" stop-color="#e099ff"/>
    </radialGradient>
  </defs>
</svg>
